G04 #@! TF.FileFunction,Other,Fab,Bot*
%FSLAX46Y46*%
G04 Gerber Fmt 4.6, Leading zero omitted, Abs format (unit mm)*
G04 Created by KiCad (PCBNEW 4.0.5) date Saturday, July 01, 2017 'AMt' 12:52:34 AM*
%MOMM*%
%LPD*%
G01*
G04 APERTURE LIST*
%ADD10C,0.100000*%
%ADD11C,0.150000*%
G04 APERTURE END LIST*
D10*
D11*
X54792857Y2478571D02*
X53592857Y2478571D01*
X54792857Y1907142D02*
X53592857Y1907142D01*
X53592857Y1449999D01*
X53650000Y1335713D01*
X53707143Y1278570D01*
X53821429Y1221427D01*
X53992857Y1221427D01*
X54107143Y1278570D01*
X54164286Y1335713D01*
X54221429Y1449999D01*
X54221429Y1907142D01*
X53992857Y192856D02*
X54792857Y192856D01*
X53535714Y478570D02*
X54392857Y764285D01*
X54392857Y21427D01*
X53707143Y-378572D02*
X53650000Y-435715D01*
X53592857Y-550001D01*
X53592857Y-835715D01*
X53650000Y-950001D01*
X53707143Y-1007144D01*
X53821429Y-1064287D01*
X53935714Y-1064287D01*
X54107143Y-1007144D01*
X54792857Y-321430D01*
X54792857Y-1064287D01*
X53592857Y-1464287D02*
X53592857Y-2207144D01*
X54050000Y-1807144D01*
X54050000Y-1978572D01*
X54107143Y-2092858D01*
X54164286Y-2150001D01*
X54278571Y-2207144D01*
X54564286Y-2207144D01*
X54678571Y-2150001D01*
X54735714Y-2092858D01*
X54792857Y-1978572D01*
X54792857Y-1635715D01*
X54735714Y-1521429D01*
X54678571Y-1464287D01*
X53992857Y-3235715D02*
X54792857Y-3235715D01*
X53535714Y-2950001D02*
X54392857Y-2664286D01*
X54392857Y-3407144D01*
X54678571Y-4550001D02*
X54735714Y-4492858D01*
X54792857Y-4321429D01*
X54792857Y-4207143D01*
X54735714Y-4035715D01*
X54621429Y-3921429D01*
X54507143Y-3864286D01*
X54278571Y-3807143D01*
X54107143Y-3807143D01*
X53878571Y-3864286D01*
X53764286Y-3921429D01*
X53650000Y-4035715D01*
X53592857Y-4207143D01*
X53592857Y-4321429D01*
X53650000Y-4492858D01*
X53707143Y-4550001D01*
X53592857Y-4950001D02*
X53592857Y-5750001D01*
X54792857Y-4950001D01*
X54792857Y-5750001D01*
X53592857Y-6721429D02*
X53592857Y-6492858D01*
X53650000Y-6378572D01*
X53707143Y-6321429D01*
X53878571Y-6207143D01*
X54107143Y-6150000D01*
X54564286Y-6150000D01*
X54678571Y-6207143D01*
X54735714Y-6264286D01*
X54792857Y-6378572D01*
X54792857Y-6607143D01*
X54735714Y-6721429D01*
X54678571Y-6778572D01*
X54564286Y-6835715D01*
X54278571Y-6835715D01*
X54164286Y-6778572D01*
X54107143Y-6721429D01*
X54050000Y-6607143D01*
X54050000Y-6378572D01*
X54107143Y-6264286D01*
X54164286Y-6207143D01*
X54278571Y-6150000D01*
X86857143Y-2864285D02*
X86904762Y-2816666D01*
X86952381Y-2673809D01*
X86952381Y-2578571D01*
X86904762Y-2435713D01*
X86809524Y-2340475D01*
X86714286Y-2292856D01*
X86523810Y-2245237D01*
X86380952Y-2245237D01*
X86190476Y-2292856D01*
X86095238Y-2340475D01*
X86000000Y-2435713D01*
X85952381Y-2578571D01*
X85952381Y-2673809D01*
X86000000Y-2816666D01*
X86047619Y-2864285D01*
X86952381Y-3292856D02*
X86285714Y-3292856D01*
X86476190Y-3292856D02*
X86380952Y-3340475D01*
X86333333Y-3388094D01*
X86285714Y-3483332D01*
X86285714Y-3578571D01*
X86285714Y-3816666D02*
X86952381Y-4054761D01*
X86285714Y-4292857D02*
X86952381Y-4054761D01*
X87190476Y-3959523D01*
X87238095Y-3911904D01*
X87285714Y-3816666D01*
X86904762Y-4626190D02*
X86952381Y-4721428D01*
X86952381Y-4911904D01*
X86904762Y-5007143D01*
X86809524Y-5054762D01*
X86761905Y-5054762D01*
X86666667Y-5007143D01*
X86619048Y-4911904D01*
X86619048Y-4769047D01*
X86571429Y-4673809D01*
X86476190Y-4626190D01*
X86428571Y-4626190D01*
X86333333Y-4673809D01*
X86285714Y-4769047D01*
X86285714Y-4911904D01*
X86333333Y-5007143D01*
X86285714Y-5340476D02*
X86285714Y-5721428D01*
X85952381Y-5483333D02*
X86809524Y-5483333D01*
X86904762Y-5530952D01*
X86952381Y-5626190D01*
X86952381Y-5721428D01*
X86952381Y-6483334D02*
X86428571Y-6483334D01*
X86333333Y-6435715D01*
X86285714Y-6340477D01*
X86285714Y-6150000D01*
X86333333Y-6054762D01*
X86904762Y-6483334D02*
X86952381Y-6388096D01*
X86952381Y-6150000D01*
X86904762Y-6054762D01*
X86809524Y-6007143D01*
X86714286Y-6007143D01*
X86619048Y-6054762D01*
X86571429Y-6150000D01*
X86571429Y-6388096D01*
X86523810Y-6483334D01*
X86952381Y-7102381D02*
X86904762Y-7007143D01*
X86809524Y-6959524D01*
X85952381Y-6959524D01*
X87047619Y-7245239D02*
X87047619Y-8007144D01*
X86904762Y-8197620D02*
X86952381Y-8340477D01*
X86952381Y-8578573D01*
X86904762Y-8673811D01*
X86857143Y-8721430D01*
X86761905Y-8769049D01*
X86666667Y-8769049D01*
X86571429Y-8721430D01*
X86523810Y-8673811D01*
X86476190Y-8578573D01*
X86428571Y-8388096D01*
X86380952Y-8292858D01*
X86333333Y-8245239D01*
X86238095Y-8197620D01*
X86142857Y-8197620D01*
X86047619Y-8245239D01*
X86000000Y-8292858D01*
X85952381Y-8388096D01*
X85952381Y-8626192D01*
X86000000Y-8769049D01*
X86952381Y-9197620D02*
X86285714Y-9197620D01*
X86380952Y-9197620D02*
X86333333Y-9245239D01*
X86285714Y-9340477D01*
X86285714Y-9483335D01*
X86333333Y-9578573D01*
X86428571Y-9626192D01*
X86952381Y-9626192D01*
X86428571Y-9626192D02*
X86333333Y-9673811D01*
X86285714Y-9769049D01*
X86285714Y-9911906D01*
X86333333Y-10007144D01*
X86428571Y-10054763D01*
X86952381Y-10054763D01*
X86952381Y-10959525D02*
X86428571Y-10959525D01*
X86333333Y-10911906D01*
X86285714Y-10816668D01*
X86285714Y-10626191D01*
X86333333Y-10530953D01*
X86904762Y-10959525D02*
X86952381Y-10864287D01*
X86952381Y-10626191D01*
X86904762Y-10530953D01*
X86809524Y-10483334D01*
X86714286Y-10483334D01*
X86619048Y-10530953D01*
X86571429Y-10626191D01*
X86571429Y-10864287D01*
X86523810Y-10959525D01*
X86952381Y-11578572D02*
X86904762Y-11483334D01*
X86809524Y-11435715D01*
X85952381Y-11435715D01*
X86952381Y-12102382D02*
X86904762Y-12007144D01*
X86809524Y-11959525D01*
X85952381Y-11959525D01*
X87724762Y3992381D02*
X87772381Y3849524D01*
X87772381Y3611428D01*
X87724762Y3516190D01*
X87677143Y3468571D01*
X87581905Y3420952D01*
X87486667Y3420952D01*
X87391429Y3468571D01*
X87343810Y3516190D01*
X87296190Y3611428D01*
X87248571Y3801905D01*
X87200952Y3897143D01*
X87153333Y3944762D01*
X87058095Y3992381D01*
X86962857Y3992381D01*
X86867619Y3944762D01*
X86820000Y3897143D01*
X86772381Y3801905D01*
X86772381Y3563809D01*
X86820000Y3420952D01*
X87105714Y3087619D02*
X87772381Y2897143D01*
X87296190Y2706666D01*
X87772381Y2516190D01*
X87105714Y2325714D01*
X87772381Y1944762D02*
X87105714Y1944762D01*
X86772381Y1944762D02*
X86820000Y1992381D01*
X86867619Y1944762D01*
X86820000Y1897143D01*
X86772381Y1944762D01*
X86867619Y1944762D01*
X87105714Y1611429D02*
X87105714Y1230477D01*
X86772381Y1468572D02*
X87629524Y1468572D01*
X87724762Y1420953D01*
X87772381Y1325715D01*
X87772381Y1230477D01*
X87724762Y468571D02*
X87772381Y563809D01*
X87772381Y754286D01*
X87724762Y849524D01*
X87677143Y897143D01*
X87581905Y944762D01*
X87296190Y944762D01*
X87200952Y897143D01*
X87153333Y849524D01*
X87105714Y754286D01*
X87105714Y563809D01*
X87153333Y468571D01*
X87772381Y40000D02*
X86772381Y40000D01*
X87772381Y-388572D02*
X87248571Y-388572D01*
X87153333Y-340953D01*
X87105714Y-245715D01*
X87105714Y-102857D01*
X87153333Y-7619D01*
X87200952Y40000D01*
X87867619Y-626667D02*
X87867619Y-1388572D01*
X87772381Y-1626667D02*
X86772381Y-1626667D01*
X86772381Y-1864762D01*
X86820000Y-2007620D01*
X86915238Y-2102858D01*
X87010476Y-2150477D01*
X87200952Y-2198096D01*
X87343810Y-2198096D01*
X87534286Y-2150477D01*
X87629524Y-2102858D01*
X87724762Y-2007620D01*
X87772381Y-1864762D01*
X87772381Y-1626667D01*
X87772381Y-2626667D02*
X86772381Y-2626667D01*
X86772381Y-3007620D01*
X86820000Y-3102858D01*
X86867619Y-3150477D01*
X86962857Y-3198096D01*
X87105714Y-3198096D01*
X87200952Y-3150477D01*
X87248571Y-3102858D01*
X87296190Y-3007620D01*
X87296190Y-2626667D01*
X87724762Y-3579048D02*
X87772381Y-3721905D01*
X87772381Y-3960001D01*
X87724762Y-4055239D01*
X87677143Y-4102858D01*
X87581905Y-4150477D01*
X87486667Y-4150477D01*
X87391429Y-4102858D01*
X87343810Y-4055239D01*
X87296190Y-3960001D01*
X87248571Y-3769524D01*
X87200952Y-3674286D01*
X87153333Y-3626667D01*
X87058095Y-3579048D01*
X86962857Y-3579048D01*
X86867619Y-3626667D01*
X86820000Y-3674286D01*
X86772381Y-3769524D01*
X86772381Y-4007620D01*
X86820000Y-4150477D01*
X86772381Y-4436191D02*
X86772381Y-5007620D01*
X87772381Y-4721905D02*
X86772381Y-4721905D01*
X61771428Y-7352381D02*
X62342857Y-7352381D01*
X62057143Y-7352381D02*
X62057143Y-6352381D01*
X62152381Y-6495238D01*
X62247619Y-6590476D01*
X62342857Y-6638095D01*
X61152381Y-6352381D02*
X61057142Y-6352381D01*
X60961904Y-6400000D01*
X60914285Y-6447619D01*
X60866666Y-6542857D01*
X60819047Y-6733333D01*
X60819047Y-6971429D01*
X60866666Y-7161905D01*
X60914285Y-7257143D01*
X60961904Y-7304762D01*
X61057142Y-7352381D01*
X61152381Y-7352381D01*
X61247619Y-7304762D01*
X61295238Y-7257143D01*
X61342857Y-7161905D01*
X61390476Y-6971429D01*
X61390476Y-6733333D01*
X61342857Y-6542857D01*
X61295238Y-6447619D01*
X61247619Y-6400000D01*
X61152381Y-6352381D01*
X59961904Y-6685714D02*
X59961904Y-7352381D01*
X60390476Y-6685714D02*
X60390476Y-7209524D01*
X60342857Y-7304762D01*
X60247619Y-7352381D01*
X60104761Y-7352381D01*
X60009523Y-7304762D01*
X59961904Y-7257143D01*
X59152380Y-6828571D02*
X59485714Y-6828571D01*
X59485714Y-7352381D02*
X59485714Y-6352381D01*
X59009523Y-6352381D01*
X117902381Y-45402381D02*
X117902381Y-44830952D01*
X117902381Y-45116666D02*
X116902381Y-45116666D01*
X117045238Y-45021428D01*
X117140476Y-44926190D01*
X117188095Y-44830952D01*
X116902381Y-46021428D02*
X116902381Y-46116667D01*
X116950000Y-46211905D01*
X116997619Y-46259524D01*
X117092857Y-46307143D01*
X117283333Y-46354762D01*
X117521429Y-46354762D01*
X117711905Y-46307143D01*
X117807143Y-46259524D01*
X117854762Y-46211905D01*
X117902381Y-46116667D01*
X117902381Y-46021428D01*
X117854762Y-45926190D01*
X117807143Y-45878571D01*
X117711905Y-45830952D01*
X117521429Y-45783333D01*
X117283333Y-45783333D01*
X117092857Y-45830952D01*
X116997619Y-45878571D01*
X116950000Y-45926190D01*
X116902381Y-46021428D01*
X117235714Y-46783333D02*
X118235714Y-46783333D01*
X117283333Y-46783333D02*
X117235714Y-46878571D01*
X117235714Y-47069048D01*
X117283333Y-47164286D01*
X117330952Y-47211905D01*
X117426190Y-47259524D01*
X117711905Y-47259524D01*
X117807143Y-47211905D01*
X117854762Y-47164286D01*
X117902381Y-47069048D01*
X117902381Y-46878571D01*
X117854762Y-46783333D01*
X117902381Y-48211905D02*
X117902381Y-47640476D01*
X117902381Y-47926190D02*
X116902381Y-47926190D01*
X117045238Y-47830952D01*
X117140476Y-47735714D01*
X117188095Y-47640476D01*
X116902381Y-48830952D02*
X116902381Y-48926191D01*
X116950000Y-49021429D01*
X116997619Y-49069048D01*
X117092857Y-49116667D01*
X117283333Y-49164286D01*
X117521429Y-49164286D01*
X117711905Y-49116667D01*
X117807143Y-49069048D01*
X117854762Y-49021429D01*
X117902381Y-48926191D01*
X117902381Y-48830952D01*
X117854762Y-48735714D01*
X117807143Y-48688095D01*
X117711905Y-48640476D01*
X117521429Y-48592857D01*
X117283333Y-48592857D01*
X117092857Y-48640476D01*
X116997619Y-48688095D01*
X116950000Y-48735714D01*
X116902381Y-48830952D01*
X117854762Y-50021429D02*
X117902381Y-49926191D01*
X117902381Y-49735714D01*
X117854762Y-49640476D01*
X117807143Y-49592857D01*
X117711905Y-49545238D01*
X117426190Y-49545238D01*
X117330952Y-49592857D01*
X117283333Y-49640476D01*
X117235714Y-49735714D01*
X117235714Y-49926191D01*
X117283333Y-50021429D01*
X117997619Y-50211905D02*
X117997619Y-50973810D01*
X117902381Y-51783334D02*
X117426190Y-51450000D01*
X117902381Y-51211905D02*
X116902381Y-51211905D01*
X116902381Y-51592858D01*
X116950000Y-51688096D01*
X116997619Y-51735715D01*
X117092857Y-51783334D01*
X117235714Y-51783334D01*
X117330952Y-51735715D01*
X117378571Y-51688096D01*
X117426190Y-51592858D01*
X117426190Y-51211905D01*
X117902381Y-52211905D02*
X116902381Y-52211905D01*
X116950000Y-53211905D02*
X116902381Y-53116667D01*
X116902381Y-52973810D01*
X116950000Y-52830952D01*
X117045238Y-52735714D01*
X117140476Y-52688095D01*
X117330952Y-52640476D01*
X117473810Y-52640476D01*
X117664286Y-52688095D01*
X117759524Y-52735714D01*
X117854762Y-52830952D01*
X117902381Y-52973810D01*
X117902381Y-53069048D01*
X117854762Y-53211905D01*
X117807143Y-53259524D01*
X117473810Y-53259524D01*
X117473810Y-53069048D01*
X117902381Y-53688095D02*
X116902381Y-53688095D01*
X117378571Y-53688095D02*
X117378571Y-54259524D01*
X117902381Y-54259524D02*
X116902381Y-54259524D01*
X116902381Y-54592857D02*
X116902381Y-55164286D01*
X117902381Y-54878571D02*
X116902381Y-54878571D01*
X114202381Y-54078571D02*
X114202381Y-53507142D01*
X114202381Y-53792856D02*
X113202381Y-53792856D01*
X113345238Y-53697618D01*
X113440476Y-53602380D01*
X113488095Y-53507142D01*
X113202381Y-54697618D02*
X113202381Y-54792857D01*
X113250000Y-54888095D01*
X113297619Y-54935714D01*
X113392857Y-54983333D01*
X113583333Y-55030952D01*
X113821429Y-55030952D01*
X114011905Y-54983333D01*
X114107143Y-54935714D01*
X114154762Y-54888095D01*
X114202381Y-54792857D01*
X114202381Y-54697618D01*
X114154762Y-54602380D01*
X114107143Y-54554761D01*
X114011905Y-54507142D01*
X113821429Y-54459523D01*
X113583333Y-54459523D01*
X113392857Y-54507142D01*
X113297619Y-54554761D01*
X113250000Y-54602380D01*
X113202381Y-54697618D01*
X113535714Y-55459523D02*
X114535714Y-55459523D01*
X113583333Y-55459523D02*
X113535714Y-55554761D01*
X113535714Y-55745238D01*
X113583333Y-55840476D01*
X113630952Y-55888095D01*
X113726190Y-55935714D01*
X114011905Y-55935714D01*
X114107143Y-55888095D01*
X114154762Y-55840476D01*
X114202381Y-55745238D01*
X114202381Y-55554761D01*
X114154762Y-55459523D01*
X114202381Y-56888095D02*
X114202381Y-56316666D01*
X114202381Y-56602380D02*
X113202381Y-56602380D01*
X113345238Y-56507142D01*
X113440476Y-56411904D01*
X113488095Y-56316666D01*
X113202381Y-57507142D02*
X113202381Y-57602381D01*
X113250000Y-57697619D01*
X113297619Y-57745238D01*
X113392857Y-57792857D01*
X113583333Y-57840476D01*
X113821429Y-57840476D01*
X114011905Y-57792857D01*
X114107143Y-57745238D01*
X114154762Y-57697619D01*
X114202381Y-57602381D01*
X114202381Y-57507142D01*
X114154762Y-57411904D01*
X114107143Y-57364285D01*
X114011905Y-57316666D01*
X113821429Y-57269047D01*
X113583333Y-57269047D01*
X113392857Y-57316666D01*
X113297619Y-57364285D01*
X113250000Y-57411904D01*
X113202381Y-57507142D01*
X114154762Y-58697619D02*
X114202381Y-58602381D01*
X114202381Y-58411904D01*
X114154762Y-58316666D01*
X114107143Y-58269047D01*
X114011905Y-58221428D01*
X113726190Y-58221428D01*
X113630952Y-58269047D01*
X113583333Y-58316666D01*
X113535714Y-58411904D01*
X113535714Y-58602381D01*
X113583333Y-58697619D01*
X114297619Y-58888095D02*
X114297619Y-59650000D01*
X114202381Y-60364286D02*
X114202381Y-59888095D01*
X113202381Y-59888095D01*
X113678571Y-60697619D02*
X113678571Y-61030953D01*
X114202381Y-61173810D02*
X114202381Y-60697619D01*
X113202381Y-60697619D01*
X113202381Y-61173810D01*
X113678571Y-61935715D02*
X113678571Y-61602381D01*
X114202381Y-61602381D02*
X113202381Y-61602381D01*
X113202381Y-62078572D01*
X113202381Y-62316667D02*
X113202381Y-62888096D01*
X114202381Y-62602381D02*
X113202381Y-62602381D01*
X64392857Y-2402381D02*
X64297618Y-2402381D01*
X64202380Y-2450000D01*
X64154761Y-2497619D01*
X64107142Y-2592857D01*
X64059523Y-2783333D01*
X64059523Y-3021429D01*
X64107142Y-3211905D01*
X64154761Y-3307143D01*
X64202380Y-3354762D01*
X64297618Y-3402381D01*
X64392857Y-3402381D01*
X64488095Y-3354762D01*
X64535714Y-3307143D01*
X64583333Y-3211905D01*
X64630952Y-3021429D01*
X64630952Y-2783333D01*
X64583333Y-2592857D01*
X64535714Y-2497619D01*
X64488095Y-2450000D01*
X64392857Y-2402381D01*
X63630952Y-3307143D02*
X63583333Y-3354762D01*
X63630952Y-3402381D01*
X63678571Y-3354762D01*
X63630952Y-3307143D01*
X63630952Y-3402381D01*
X62630952Y-3402381D02*
X63202381Y-3402381D01*
X62916667Y-3402381D02*
X62916667Y-2402381D01*
X63011905Y-2545238D01*
X63107143Y-2640476D01*
X63202381Y-2688095D01*
X61773809Y-2735714D02*
X61773809Y-3402381D01*
X62202381Y-2735714D02*
X62202381Y-3259524D01*
X62154762Y-3354762D01*
X62059524Y-3402381D01*
X61916666Y-3402381D01*
X61821428Y-3354762D01*
X61773809Y-3307143D01*
X60964285Y-2878571D02*
X61297619Y-2878571D01*
X61297619Y-3402381D02*
X61297619Y-2402381D01*
X60821428Y-2402381D01*
X66706667Y7805238D02*
X66706667Y7329047D01*
X66992381Y7900476D02*
X65992381Y7567143D01*
X66992381Y7233809D01*
X65992381Y7043333D02*
X66992381Y6710000D01*
X65992381Y6376666D01*
X66992381Y5471904D02*
X66516190Y5805238D01*
X66992381Y6043333D02*
X65992381Y6043333D01*
X65992381Y5662380D01*
X66040000Y5567142D01*
X66087619Y5519523D01*
X66182857Y5471904D01*
X66325714Y5471904D01*
X66420952Y5519523D01*
X66468571Y5567142D01*
X66516190Y5662380D01*
X66516190Y6043333D01*
X66611429Y5043333D02*
X66611429Y4281428D01*
X66992381Y3805238D02*
X65992381Y3805238D01*
X66944762Y3376667D02*
X66992381Y3233810D01*
X66992381Y2995714D01*
X66944762Y2900476D01*
X66897143Y2852857D01*
X66801905Y2805238D01*
X66706667Y2805238D01*
X66611429Y2852857D01*
X66563810Y2900476D01*
X66516190Y2995714D01*
X66468571Y3186191D01*
X66420952Y3281429D01*
X66373333Y3329048D01*
X66278095Y3376667D01*
X66182857Y3376667D01*
X66087619Y3329048D01*
X66040000Y3281429D01*
X65992381Y3186191D01*
X65992381Y2948095D01*
X66040000Y2805238D01*
X66992381Y2376667D02*
X65992381Y2376667D01*
X65992381Y1995714D01*
X66040000Y1900476D01*
X66087619Y1852857D01*
X66182857Y1805238D01*
X66325714Y1805238D01*
X66420952Y1852857D01*
X66468571Y1900476D01*
X66516190Y1995714D01*
X66516190Y2376667D01*
X66611429Y1376667D02*
X66611429Y614762D01*
X65992381Y-290000D02*
X65992381Y-99523D01*
X66040000Y-4285D01*
X66087619Y43334D01*
X66230476Y138572D01*
X66420952Y186191D01*
X66801905Y186191D01*
X66897143Y138572D01*
X66944762Y90953D01*
X66992381Y-4285D01*
X66992381Y-194762D01*
X66944762Y-290000D01*
X66897143Y-337619D01*
X66801905Y-385238D01*
X66563810Y-385238D01*
X66468571Y-337619D01*
X66420952Y-290000D01*
X66373333Y-194762D01*
X66373333Y-4285D01*
X66420952Y90953D01*
X66468571Y138572D01*
X66563810Y186191D01*
X66435238Y-3402381D02*
X67006667Y-3402381D01*
X66720953Y-3402381D02*
X66720953Y-2402381D01*
X66816191Y-2545238D01*
X66911429Y-2640476D01*
X67006667Y-2688095D01*
X65578095Y-2735714D02*
X65578095Y-3402381D01*
X66006667Y-2735714D02*
X66006667Y-3259524D01*
X65959048Y-3354762D01*
X65863810Y-3402381D01*
X65720952Y-3402381D01*
X65625714Y-3354762D01*
X65578095Y-3307143D01*
X64768571Y-2878571D02*
X65101905Y-2878571D01*
X65101905Y-3402381D02*
X65101905Y-2402381D01*
X64625714Y-2402381D01*
X1742381Y-10038095D02*
X742381Y-10038095D01*
X742381Y-10276190D01*
X790000Y-10419048D01*
X885238Y-10514286D01*
X980476Y-10561905D01*
X1170952Y-10609524D01*
X1313810Y-10609524D01*
X1504286Y-10561905D01*
X1599524Y-10514286D01*
X1694762Y-10419048D01*
X1742381Y-10276190D01*
X1742381Y-10038095D01*
X16142381Y-10038095D02*
X15142381Y-10038095D01*
X15142381Y-10276190D01*
X15190000Y-10419048D01*
X15285238Y-10514286D01*
X15380476Y-10561905D01*
X15570952Y-10609524D01*
X15713810Y-10609524D01*
X15904286Y-10561905D01*
X15999524Y-10514286D01*
X16094762Y-10419048D01*
X16142381Y-10276190D01*
X16142381Y-10038095D01*
X34642381Y-10038095D02*
X33642381Y-10038095D01*
X33642381Y-10276190D01*
X33690000Y-10419048D01*
X33785238Y-10514286D01*
X33880476Y-10561905D01*
X34070952Y-10609524D01*
X34213810Y-10609524D01*
X34404286Y-10561905D01*
X34499524Y-10514286D01*
X34594762Y-10419048D01*
X34642381Y-10276190D01*
X34642381Y-10038095D01*
X51742381Y-11738095D02*
X50742381Y-11738095D01*
X50742381Y-11976190D01*
X50790000Y-12119048D01*
X50885238Y-12214286D01*
X50980476Y-12261905D01*
X51170952Y-12309524D01*
X51313810Y-12309524D01*
X51504286Y-12261905D01*
X51599524Y-12214286D01*
X51694762Y-12119048D01*
X51742381Y-11976190D01*
X51742381Y-11738095D01*
X85042381Y-9938095D02*
X84042381Y-9938095D01*
X84042381Y-10176190D01*
X84090000Y-10319048D01*
X84185238Y-10414286D01*
X84280476Y-10461905D01*
X84470952Y-10509524D01*
X84613810Y-10509524D01*
X84804286Y-10461905D01*
X84899524Y-10414286D01*
X84994762Y-10319048D01*
X85042381Y-10176190D01*
X85042381Y-9938095D01*
X90142381Y-9938095D02*
X89142381Y-9938095D01*
X89142381Y-10176190D01*
X89190000Y-10319048D01*
X89285238Y-10414286D01*
X89380476Y-10461905D01*
X89570952Y-10509524D01*
X89713810Y-10509524D01*
X89904286Y-10461905D01*
X89999524Y-10414286D01*
X90094762Y-10319048D01*
X90142381Y-10176190D01*
X90142381Y-9938095D01*
X120942381Y-9888035D02*
X119942381Y-9888035D01*
X119942381Y-10126130D01*
X119990000Y-10268988D01*
X120085238Y-10364226D01*
X120180476Y-10411845D01*
X120370952Y-10459464D01*
X120513810Y-10459464D01*
X120704286Y-10411845D01*
X120799524Y-10364226D01*
X120894762Y-10268988D01*
X120942381Y-10126130D01*
X120942381Y-9888035D01*
X139442381Y-9938095D02*
X138442381Y-9938095D01*
X138442381Y-10176190D01*
X138490000Y-10319048D01*
X138585238Y-10414286D01*
X138680476Y-10461905D01*
X138870952Y-10509524D01*
X139013810Y-10509524D01*
X139204286Y-10461905D01*
X139299524Y-10414286D01*
X139394762Y-10319048D01*
X139442381Y-10176190D01*
X139442381Y-9938095D01*
X157942381Y-9938095D02*
X156942381Y-9938095D01*
X156942381Y-10176190D01*
X156990000Y-10319048D01*
X157085238Y-10414286D01*
X157180476Y-10461905D01*
X157370952Y-10509524D01*
X157513810Y-10509524D01*
X157704286Y-10461905D01*
X157799524Y-10414286D01*
X157894762Y-10319048D01*
X157942381Y-10176190D01*
X157942381Y-9938095D01*
X176442381Y-9838095D02*
X175442381Y-9838095D01*
X175442381Y-10076190D01*
X175490000Y-10219048D01*
X175585238Y-10314286D01*
X175680476Y-10361905D01*
X175870952Y-10409524D01*
X176013810Y-10409524D01*
X176204286Y-10361905D01*
X176299524Y-10314286D01*
X176394762Y-10219048D01*
X176442381Y-10076190D01*
X176442381Y-9838095D01*
X194842381Y-9938095D02*
X193842381Y-9938095D01*
X193842381Y-10176190D01*
X193890000Y-10319048D01*
X193985238Y-10414286D01*
X194080476Y-10461905D01*
X194270952Y-10509524D01*
X194413810Y-10509524D01*
X194604286Y-10461905D01*
X194699524Y-10414286D01*
X194794762Y-10319048D01*
X194842381Y-10176190D01*
X194842381Y-9938095D01*
X213442381Y-9938095D02*
X212442381Y-9938095D01*
X212442381Y-10176190D01*
X212490000Y-10319048D01*
X212585238Y-10414286D01*
X212680476Y-10461905D01*
X212870952Y-10509524D01*
X213013810Y-10509524D01*
X213204286Y-10461905D01*
X213299524Y-10414286D01*
X213394762Y-10319048D01*
X213442381Y-10176190D01*
X213442381Y-9938095D01*
X1742381Y-25738095D02*
X742381Y-25738095D01*
X742381Y-25976190D01*
X790000Y-26119048D01*
X885238Y-26214286D01*
X980476Y-26261905D01*
X1170952Y-26309524D01*
X1313810Y-26309524D01*
X1504286Y-26261905D01*
X1599524Y-26214286D01*
X1694762Y-26119048D01*
X1742381Y-25976190D01*
X1742381Y-25738095D01*
X16242381Y-25738095D02*
X15242381Y-25738095D01*
X15242381Y-25976190D01*
X15290000Y-26119048D01*
X15385238Y-26214286D01*
X15480476Y-26261905D01*
X15670952Y-26309524D01*
X15813810Y-26309524D01*
X16004286Y-26261905D01*
X16099524Y-26214286D01*
X16194762Y-26119048D01*
X16242381Y-25976190D01*
X16242381Y-25738095D01*
X34742381Y-25638095D02*
X33742381Y-25638095D01*
X33742381Y-25876190D01*
X33790000Y-26019048D01*
X33885238Y-26114286D01*
X33980476Y-26161905D01*
X34170952Y-26209524D01*
X34313810Y-26209524D01*
X34504286Y-26161905D01*
X34599524Y-26114286D01*
X34694762Y-26019048D01*
X34742381Y-25876190D01*
X34742381Y-25638095D01*
X53242381Y-25738095D02*
X52242381Y-25738095D01*
X52242381Y-25976190D01*
X52290000Y-26119048D01*
X52385238Y-26214286D01*
X52480476Y-26261905D01*
X52670952Y-26309524D01*
X52813810Y-26309524D01*
X53004286Y-26261905D01*
X53099524Y-26214286D01*
X53194762Y-26119048D01*
X53242381Y-25976190D01*
X53242381Y-25738095D01*
X71742381Y-25738095D02*
X70742381Y-25738095D01*
X70742381Y-25976190D01*
X70790000Y-26119048D01*
X70885238Y-26214286D01*
X70980476Y-26261905D01*
X71170952Y-26309524D01*
X71313810Y-26309524D01*
X71504286Y-26261905D01*
X71599524Y-26214286D01*
X71694762Y-26119048D01*
X71742381Y-25976190D01*
X71742381Y-25738095D01*
X90242381Y-25638095D02*
X89242381Y-25638095D01*
X89242381Y-25876190D01*
X89290000Y-26019048D01*
X89385238Y-26114286D01*
X89480476Y-26161905D01*
X89670952Y-26209524D01*
X89813810Y-26209524D01*
X90004286Y-26161905D01*
X90099524Y-26114286D01*
X90194762Y-26019048D01*
X90242381Y-25876190D01*
X90242381Y-25638095D01*
X120942381Y-25638095D02*
X119942381Y-25638095D01*
X119942381Y-25876190D01*
X119990000Y-26019048D01*
X120085238Y-26114286D01*
X120180476Y-26161905D01*
X120370952Y-26209524D01*
X120513810Y-26209524D01*
X120704286Y-26161905D01*
X120799524Y-26114286D01*
X120894762Y-26019048D01*
X120942381Y-25876190D01*
X120942381Y-25638095D01*
X139442381Y-25638095D02*
X138442381Y-25638095D01*
X138442381Y-25876190D01*
X138490000Y-26019048D01*
X138585238Y-26114286D01*
X138680476Y-26161905D01*
X138870952Y-26209524D01*
X139013810Y-26209524D01*
X139204286Y-26161905D01*
X139299524Y-26114286D01*
X139394762Y-26019048D01*
X139442381Y-25876190D01*
X139442381Y-25638095D01*
X158022381Y-25638035D02*
X157022381Y-25638035D01*
X157022381Y-25876130D01*
X157070000Y-26018988D01*
X157165238Y-26114226D01*
X157260476Y-26161845D01*
X157450952Y-26209464D01*
X157593810Y-26209464D01*
X157784286Y-26161845D01*
X157879524Y-26114226D01*
X157974762Y-26018988D01*
X158022381Y-25876130D01*
X158022381Y-25638035D01*
X176442381Y-25638095D02*
X175442381Y-25638095D01*
X175442381Y-25876190D01*
X175490000Y-26019048D01*
X175585238Y-26114286D01*
X175680476Y-26161905D01*
X175870952Y-26209524D01*
X176013810Y-26209524D01*
X176204286Y-26161905D01*
X176299524Y-26114286D01*
X176394762Y-26019048D01*
X176442381Y-25876190D01*
X176442381Y-25638095D01*
X194942381Y-25638095D02*
X193942381Y-25638095D01*
X193942381Y-25876190D01*
X193990000Y-26019048D01*
X194085238Y-26114286D01*
X194180476Y-26161905D01*
X194370952Y-26209524D01*
X194513810Y-26209524D01*
X194704286Y-26161905D01*
X194799524Y-26114286D01*
X194894762Y-26019048D01*
X194942381Y-25876190D01*
X194942381Y-25638095D01*
X213442381Y-25638095D02*
X212442381Y-25638095D01*
X212442381Y-25876190D01*
X212490000Y-26019048D01*
X212585238Y-26114286D01*
X212680476Y-26161905D01*
X212870952Y-26209524D01*
X213013810Y-26209524D01*
X213204286Y-26161905D01*
X213299524Y-26114286D01*
X213394762Y-26019048D01*
X213442381Y-25876190D01*
X213442381Y-25638095D01*
X1842381Y-41438095D02*
X842381Y-41438095D01*
X842381Y-41676190D01*
X890000Y-41819048D01*
X985238Y-41914286D01*
X1080476Y-41961905D01*
X1270952Y-42009524D01*
X1413810Y-42009524D01*
X1604286Y-41961905D01*
X1699524Y-41914286D01*
X1794762Y-41819048D01*
X1842381Y-41676190D01*
X1842381Y-41438095D01*
X16242381Y-41438095D02*
X15242381Y-41438095D01*
X15242381Y-41676190D01*
X15290000Y-41819048D01*
X15385238Y-41914286D01*
X15480476Y-41961905D01*
X15670952Y-42009524D01*
X15813810Y-42009524D01*
X16004286Y-41961905D01*
X16099524Y-41914286D01*
X16194762Y-41819048D01*
X16242381Y-41676190D01*
X16242381Y-41438095D01*
X34742381Y-41538095D02*
X33742381Y-41538095D01*
X33742381Y-41776190D01*
X33790000Y-41919048D01*
X33885238Y-42014286D01*
X33980476Y-42061905D01*
X34170952Y-42109524D01*
X34313810Y-42109524D01*
X34504286Y-42061905D01*
X34599524Y-42014286D01*
X34694762Y-41919048D01*
X34742381Y-41776190D01*
X34742381Y-41538095D01*
X53242381Y-41438095D02*
X52242381Y-41438095D01*
X52242381Y-41676190D01*
X52290000Y-41819048D01*
X52385238Y-41914286D01*
X52480476Y-41961905D01*
X52670952Y-42009524D01*
X52813810Y-42009524D01*
X53004286Y-41961905D01*
X53099524Y-41914286D01*
X53194762Y-41819048D01*
X53242381Y-41676190D01*
X53242381Y-41438095D01*
X71742381Y-41438095D02*
X70742381Y-41438095D01*
X70742381Y-41676190D01*
X70790000Y-41819048D01*
X70885238Y-41914286D01*
X70980476Y-41961905D01*
X71170952Y-42009524D01*
X71313810Y-42009524D01*
X71504286Y-41961905D01*
X71599524Y-41914286D01*
X71694762Y-41819048D01*
X71742381Y-41676190D01*
X71742381Y-41438095D01*
X90242381Y-38338095D02*
X89242381Y-38338095D01*
X89242381Y-38576190D01*
X89290000Y-38719048D01*
X89385238Y-38814286D01*
X89480476Y-38861905D01*
X89670952Y-38909524D01*
X89813810Y-38909524D01*
X90004286Y-38861905D01*
X90099524Y-38814286D01*
X90194762Y-38719048D01*
X90242381Y-38576190D01*
X90242381Y-38338095D01*
X120942381Y-35438095D02*
X119942381Y-35438095D01*
X119942381Y-35676190D01*
X119990000Y-35819048D01*
X120085238Y-35914286D01*
X120180476Y-35961905D01*
X120370952Y-36009524D01*
X120513810Y-36009524D01*
X120704286Y-35961905D01*
X120799524Y-35914286D01*
X120894762Y-35819048D01*
X120942381Y-35676190D01*
X120942381Y-35438095D01*
X139442381Y-35438095D02*
X138442381Y-35438095D01*
X138442381Y-35676190D01*
X138490000Y-35819048D01*
X138585238Y-35914286D01*
X138680476Y-35961905D01*
X138870952Y-36009524D01*
X139013810Y-36009524D01*
X139204286Y-35961905D01*
X139299524Y-35914286D01*
X139394762Y-35819048D01*
X139442381Y-35676190D01*
X139442381Y-35438095D01*
X157942381Y-35438095D02*
X156942381Y-35438095D01*
X156942381Y-35676190D01*
X156990000Y-35819048D01*
X157085238Y-35914286D01*
X157180476Y-35961905D01*
X157370952Y-36009524D01*
X157513810Y-36009524D01*
X157704286Y-35961905D01*
X157799524Y-35914286D01*
X157894762Y-35819048D01*
X157942381Y-35676190D01*
X157942381Y-35438095D01*
X176442381Y-35438095D02*
X175442381Y-35438095D01*
X175442381Y-35676190D01*
X175490000Y-35819048D01*
X175585238Y-35914286D01*
X175680476Y-35961905D01*
X175870952Y-36009524D01*
X176013810Y-36009524D01*
X176204286Y-35961905D01*
X176299524Y-35914286D01*
X176394762Y-35819048D01*
X176442381Y-35676190D01*
X176442381Y-35438095D01*
X194942381Y-35438095D02*
X193942381Y-35438095D01*
X193942381Y-35676190D01*
X193990000Y-35819048D01*
X194085238Y-35914286D01*
X194180476Y-35961905D01*
X194370952Y-36009524D01*
X194513810Y-36009524D01*
X194704286Y-35961905D01*
X194799524Y-35914286D01*
X194894762Y-35819048D01*
X194942381Y-35676190D01*
X194942381Y-35438095D01*
X213442381Y-35438095D02*
X212442381Y-35438095D01*
X212442381Y-35676190D01*
X212490000Y-35819048D01*
X212585238Y-35914286D01*
X212680476Y-35961905D01*
X212870952Y-36009524D01*
X213013810Y-36009524D01*
X213204286Y-35961905D01*
X213299524Y-35914286D01*
X213394762Y-35819048D01*
X213442381Y-35676190D01*
X213442381Y-35438095D01*
X71262381Y-47838095D02*
X70262381Y-47838095D01*
X70262381Y-48076190D01*
X70310000Y-48219048D01*
X70405238Y-48314286D01*
X70500476Y-48361905D01*
X70690952Y-48409524D01*
X70833810Y-48409524D01*
X71024286Y-48361905D01*
X71119524Y-48314286D01*
X71214762Y-48219048D01*
X71262381Y-48076190D01*
X71262381Y-47838095D01*
X89762381Y-47738095D02*
X88762381Y-47738095D01*
X88762381Y-47976190D01*
X88810000Y-48119048D01*
X88905238Y-48214286D01*
X89000476Y-48261905D01*
X89190952Y-48309524D01*
X89333810Y-48309524D01*
X89524286Y-48261905D01*
X89619524Y-48214286D01*
X89714762Y-48119048D01*
X89762381Y-47976190D01*
X89762381Y-47738095D01*
X141882381Y-53588035D02*
X140882381Y-53588035D01*
X140882381Y-53826130D01*
X140930000Y-53968988D01*
X141025238Y-54064226D01*
X141120476Y-54111845D01*
X141310952Y-54159464D01*
X141453810Y-54159464D01*
X141644286Y-54111845D01*
X141739524Y-54064226D01*
X141834762Y-53968988D01*
X141882381Y-53826130D01*
X141882381Y-53588035D01*
X160372381Y-53578095D02*
X159372381Y-53578095D01*
X159372381Y-53816190D01*
X159420000Y-53959048D01*
X159515238Y-54054286D01*
X159610476Y-54101905D01*
X159800952Y-54149524D01*
X159943810Y-54149524D01*
X160134286Y-54101905D01*
X160229524Y-54054286D01*
X160324762Y-53959048D01*
X160372381Y-53816190D01*
X160372381Y-53578095D01*
X56574797Y-6012040D02*
X56574797Y-5944696D01*
X56541125Y-5843681D01*
X56372766Y-5675322D01*
X56271751Y-5641650D01*
X56204407Y-5641650D01*
X56103392Y-5675322D01*
X56036049Y-5742665D01*
X55968705Y-5877352D01*
X55968705Y-6685475D01*
X55530972Y-6247742D01*
X55901362Y-5338604D02*
X55901362Y-5271261D01*
X55867690Y-5170246D01*
X55699331Y-5001887D01*
X55598316Y-4968215D01*
X55530972Y-4968215D01*
X55429957Y-5001887D01*
X55362614Y-5069230D01*
X55295270Y-5203917D01*
X55295270Y-6012040D01*
X54857537Y-5574306D01*
X57736020Y-4353731D02*
X57718590Y-4288682D01*
X57659921Y-4199824D01*
X57453724Y-4080776D01*
X57347436Y-4074396D01*
X57282387Y-4091826D01*
X57193529Y-4150495D01*
X57145910Y-4232974D01*
X57115720Y-4380501D01*
X57324878Y-5161087D01*
X56788767Y-4851563D01*
X56911233Y-3877541D02*
X56893804Y-3812492D01*
X56835135Y-3723634D01*
X56628937Y-3604586D01*
X56522649Y-3598206D01*
X56457601Y-3615636D01*
X56368742Y-3674305D01*
X56321123Y-3756783D01*
X56290934Y-3904310D01*
X56500092Y-4684897D01*
X55963980Y-4375373D01*
X81893750Y-9293561D02*
X81557033Y-8956843D01*
X81759064Y-9562935D02*
X82230468Y-8620126D01*
X81287659Y-9091530D01*
X81860079Y-8249737D02*
X81456017Y-7845675D01*
X80950942Y-8754813D02*
X81658048Y-8047706D01*
X80513209Y-8317080D02*
X80984613Y-7845675D01*
X80917270Y-7913019D02*
X80917270Y-7845675D01*
X80883598Y-7744660D01*
X80782582Y-7643644D01*
X80681567Y-7609972D01*
X80580552Y-7643644D01*
X80210162Y-8014034D01*
X80580552Y-7643644D02*
X80614224Y-7542629D01*
X80580552Y-7441614D01*
X80479537Y-7340599D01*
X80378522Y-7306927D01*
X80277507Y-7340599D01*
X79907117Y-7710988D01*
X79334697Y-7071225D02*
X79368369Y-7172240D01*
X79503056Y-7306928D01*
X79604072Y-7340599D01*
X79705087Y-7306928D01*
X79974461Y-7037553D01*
X80008133Y-6936538D01*
X79974461Y-6835523D01*
X79839774Y-6700835D01*
X79738758Y-6667164D01*
X79637743Y-6700835D01*
X79570399Y-6768180D01*
X79839774Y-7172241D01*
X79132667Y-5993729D02*
X78560247Y-6566149D01*
X78526575Y-6667164D01*
X78526575Y-6734507D01*
X78560248Y-6835523D01*
X78661263Y-6936538D01*
X78762278Y-6970210D01*
X78694934Y-6431462D02*
X78728605Y-6532477D01*
X78863293Y-6667164D01*
X78964308Y-6700836D01*
X79031652Y-6700836D01*
X79132667Y-6667164D01*
X79334698Y-6465133D01*
X79368370Y-6364118D01*
X79368370Y-6296775D01*
X79334698Y-6195760D01*
X79200010Y-6061072D01*
X79098995Y-6027400D01*
X78021499Y-5825370D02*
X78391888Y-5454980D01*
X78492903Y-5421309D01*
X78593919Y-5454980D01*
X78728606Y-5589668D01*
X78762278Y-5690683D01*
X78055170Y-5791698D02*
X78088842Y-5892713D01*
X78257201Y-6061073D01*
X78358217Y-6094744D01*
X78459232Y-6061073D01*
X78526575Y-5993729D01*
X78560247Y-5892714D01*
X78526575Y-5791699D01*
X78358216Y-5623340D01*
X78324544Y-5522325D01*
X78459232Y-4848890D02*
X78021499Y-4411156D01*
X77987828Y-4916233D01*
X77886812Y-4815217D01*
X77785797Y-4781545D01*
X77718453Y-4781545D01*
X77617437Y-4815218D01*
X77449079Y-4983576D01*
X77415407Y-5084592D01*
X77415407Y-5151935D01*
X77449079Y-5252950D01*
X77651110Y-5454981D01*
X77752125Y-5488653D01*
X77819468Y-5488653D01*
X77684782Y-4209126D02*
X77684782Y-4141783D01*
X77651110Y-4040768D01*
X77482750Y-3872408D01*
X77381735Y-3838737D01*
X77314392Y-3838737D01*
X77213377Y-3872408D01*
X77146033Y-3939752D01*
X77078690Y-4074439D01*
X77078690Y-4882561D01*
X76640957Y-4444828D01*
X77045018Y-3434676D02*
X76472598Y-4007096D01*
X76371583Y-4040768D01*
X76304240Y-4040768D01*
X76203225Y-4007096D01*
X76068537Y-3872408D01*
X76034865Y-3771393D01*
X76034865Y-3704050D01*
X76068537Y-3603035D01*
X76640957Y-3030615D01*
X75765491Y-2626553D02*
X75294087Y-3097958D01*
X76203225Y-2525539D02*
X75866507Y-3198974D01*
X75428774Y-2761241D01*
X75193072Y-2458195D02*
X74654323Y-1919447D01*
X74283934Y-1683745D02*
X73947217Y-1347027D01*
X74149248Y-1953119D02*
X74620652Y-1010310D01*
X73677843Y-1481714D01*
X74149248Y-538905D02*
X73576828Y-1111325D01*
X73475813Y-1144997D01*
X73408469Y-1144997D01*
X73307454Y-1111325D01*
X73172766Y-976638D01*
X73139095Y-875623D01*
X73139095Y-808279D01*
X73172766Y-707264D01*
X73745186Y-134844D01*
X72390476Y-24052381D02*
X72961905Y-24052381D01*
X72676191Y-24052381D02*
X72676191Y-23052381D01*
X72771429Y-23195238D01*
X72866667Y-23290476D01*
X72961905Y-23338095D01*
X71771429Y-23052381D02*
X71676190Y-23052381D01*
X71580952Y-23100000D01*
X71533333Y-23147619D01*
X71485714Y-23242857D01*
X71438095Y-23433333D01*
X71438095Y-23671429D01*
X71485714Y-23861905D01*
X71533333Y-23957143D01*
X71580952Y-24004762D01*
X71676190Y-24052381D01*
X71771429Y-24052381D01*
X71866667Y-24004762D01*
X71914286Y-23957143D01*
X71961905Y-23861905D01*
X72009524Y-23671429D01*
X72009524Y-23433333D01*
X71961905Y-23242857D01*
X71914286Y-23147619D01*
X71866667Y-23100000D01*
X71771429Y-23052381D01*
X71009524Y-24052381D02*
X71009524Y-23052381D01*
X70438095Y-24052381D02*
X70866667Y-23480952D01*
X70438095Y-23052381D02*
X71009524Y-23623810D01*
X85321428Y-8202381D02*
X85892857Y-8202381D01*
X85607143Y-8202381D02*
X85607143Y-7202381D01*
X85702381Y-7345238D01*
X85797619Y-7440476D01*
X85892857Y-7488095D01*
X84702381Y-7202381D02*
X84607142Y-7202381D01*
X84511904Y-7250000D01*
X84464285Y-7297619D01*
X84416666Y-7392857D01*
X84369047Y-7583333D01*
X84369047Y-7821429D01*
X84416666Y-8011905D01*
X84464285Y-8107143D01*
X84511904Y-8154762D01*
X84607142Y-8202381D01*
X84702381Y-8202381D01*
X84797619Y-8154762D01*
X84845238Y-8107143D01*
X84892857Y-8011905D01*
X84940476Y-7821429D01*
X84940476Y-7583333D01*
X84892857Y-7392857D01*
X84845238Y-7297619D01*
X84797619Y-7250000D01*
X84702381Y-7202381D01*
X83940476Y-7535714D02*
X83940476Y-8535714D01*
X83940476Y-7583333D02*
X83845238Y-7535714D01*
X83654761Y-7535714D01*
X83559523Y-7583333D01*
X83511904Y-7630952D01*
X83464285Y-7726190D01*
X83464285Y-8011905D01*
X83511904Y-8107143D01*
X83559523Y-8154762D01*
X83654761Y-8202381D01*
X83845238Y-8202381D01*
X83940476Y-8154762D01*
X82702380Y-7678571D02*
X83035714Y-7678571D01*
X83035714Y-8202381D02*
X83035714Y-7202381D01*
X82559523Y-7202381D01*
X83502381Y-4078572D02*
X83502381Y-3507143D01*
X83502381Y-3792857D02*
X82502381Y-3792857D01*
X82645238Y-3697619D01*
X82740476Y-3602381D01*
X82788095Y-3507143D01*
X82502381Y-4697619D02*
X82502381Y-4792858D01*
X82550000Y-4888096D01*
X82597619Y-4935715D01*
X82692857Y-4983334D01*
X82883333Y-5030953D01*
X83121429Y-5030953D01*
X83311905Y-4983334D01*
X83407143Y-4935715D01*
X83454762Y-4888096D01*
X83502381Y-4792858D01*
X83502381Y-4697619D01*
X83454762Y-4602381D01*
X83407143Y-4554762D01*
X83311905Y-4507143D01*
X83121429Y-4459524D01*
X82883333Y-4459524D01*
X82692857Y-4507143D01*
X82597619Y-4554762D01*
X82550000Y-4602381D01*
X82502381Y-4697619D01*
X82835714Y-5459524D02*
X83835714Y-5459524D01*
X82883333Y-5459524D02*
X82835714Y-5554762D01*
X82835714Y-5745239D01*
X82883333Y-5840477D01*
X82930952Y-5888096D01*
X83026190Y-5935715D01*
X83311905Y-5935715D01*
X83407143Y-5888096D01*
X83454762Y-5840477D01*
X83502381Y-5745239D01*
X83502381Y-5554762D01*
X83454762Y-5459524D01*
X82978571Y-6697620D02*
X82978571Y-6364286D01*
X83502381Y-6364286D02*
X82502381Y-6364286D01*
X82502381Y-6840477D01*
X49409523Y-9928571D02*
X49742857Y-9928571D01*
X49742857Y-10452381D02*
X49742857Y-9452381D01*
X49266666Y-9452381D01*
X48885714Y-9452381D02*
X48885714Y-10261905D01*
X48838095Y-10357143D01*
X48790476Y-10404762D01*
X48695238Y-10452381D01*
X48504761Y-10452381D01*
X48409523Y-10404762D01*
X48361904Y-10357143D01*
X48314285Y-10261905D01*
X48314285Y-9452381D01*
X47885714Y-10404762D02*
X47742857Y-10452381D01*
X47504761Y-10452381D01*
X47409523Y-10404762D01*
X47361904Y-10357143D01*
X47314285Y-10261905D01*
X47314285Y-10166667D01*
X47361904Y-10071429D01*
X47409523Y-10023810D01*
X47504761Y-9976190D01*
X47695238Y-9928571D01*
X47790476Y-9880952D01*
X47838095Y-9833333D01*
X47885714Y-9738095D01*
X47885714Y-9642857D01*
X47838095Y-9547619D01*
X47790476Y-9500000D01*
X47695238Y-9452381D01*
X47457142Y-9452381D01*
X47314285Y-9500000D01*
X46885714Y-9928571D02*
X46552380Y-9928571D01*
X46409523Y-10452381D02*
X46885714Y-10452381D01*
X46885714Y-9452381D01*
X46409523Y-9452381D01*
X79612381Y1350476D02*
X79612381Y1921905D01*
X79612381Y1636191D02*
X78612381Y1636191D01*
X78755238Y1731429D01*
X78850476Y1826667D01*
X78898095Y1921905D01*
X78612381Y731429D02*
X78612381Y636190D01*
X78660000Y540952D01*
X78707619Y493333D01*
X78802857Y445714D01*
X78993333Y398095D01*
X79231429Y398095D01*
X79421905Y445714D01*
X79517143Y493333D01*
X79564762Y540952D01*
X79612381Y636190D01*
X79612381Y731429D01*
X79564762Y826667D01*
X79517143Y874286D01*
X79421905Y921905D01*
X79231429Y969524D01*
X78993333Y969524D01*
X78802857Y921905D01*
X78707619Y874286D01*
X78660000Y826667D01*
X78612381Y731429D01*
X79612381Y-30476D02*
X78612381Y-30476D01*
X79612381Y-601905D02*
X79040952Y-173333D01*
X78612381Y-601905D02*
X79183810Y-30476D01*
M02*
