G04 #@! TF.FileFunction,Other,Fab,Top*
%FSLAX46Y46*%
G04 Gerber Fmt 4.6, Leading zero omitted, Abs format (unit mm)*
G04 Created by KiCad (PCBNEW 4.0.5) date Saturday, July 01, 2017 'AMt' 12:52:34 AM*
%MOMM*%
%LPD*%
G01*
G04 APERTURE LIST*
%ADD10C,0.100000*%
%ADD11C,0.150000*%
G04 APERTURE END LIST*
D10*
D11*
X78238095Y-14904762D02*
X78380952Y-14952381D01*
X78619048Y-14952381D01*
X78714286Y-14904762D01*
X78761905Y-14857143D01*
X78809524Y-14761905D01*
X78809524Y-14666667D01*
X78761905Y-14571429D01*
X78714286Y-14523810D01*
X78619048Y-14476190D01*
X78428571Y-14428571D01*
X78333333Y-14380952D01*
X78285714Y-14333333D01*
X78238095Y-14238095D01*
X78238095Y-14142857D01*
X78285714Y-14047619D01*
X78333333Y-14000000D01*
X78428571Y-13952381D01*
X78666667Y-13952381D01*
X78809524Y-14000000D01*
X79142857Y-13952381D02*
X79380952Y-14952381D01*
X79571429Y-14238095D01*
X79761905Y-14952381D01*
X80000000Y-13952381D01*
X80142857Y-15047619D02*
X80904762Y-15047619D01*
X81142857Y-14952381D02*
X81142857Y-13952381D01*
X81523810Y-13952381D01*
X81619048Y-14000000D01*
X81666667Y-14047619D01*
X81714286Y-14142857D01*
X81714286Y-14285714D01*
X81666667Y-14380952D01*
X81619048Y-14428571D01*
X81523810Y-14476190D01*
X81142857Y-14476190D01*
X82142857Y-13952381D02*
X82142857Y-14761905D01*
X82190476Y-14857143D01*
X82238095Y-14904762D01*
X82333333Y-14952381D01*
X82523810Y-14952381D01*
X82619048Y-14904762D01*
X82666667Y-14857143D01*
X82714286Y-14761905D01*
X82714286Y-13952381D01*
X83142857Y-14904762D02*
X83285714Y-14952381D01*
X83523810Y-14952381D01*
X83619048Y-14904762D01*
X83666667Y-14857143D01*
X83714286Y-14761905D01*
X83714286Y-14666667D01*
X83666667Y-14571429D01*
X83619048Y-14523810D01*
X83523810Y-14476190D01*
X83333333Y-14428571D01*
X83238095Y-14380952D01*
X83190476Y-14333333D01*
X83142857Y-14238095D01*
X83142857Y-14142857D01*
X83190476Y-14047619D01*
X83238095Y-14000000D01*
X83333333Y-13952381D01*
X83571429Y-13952381D01*
X83714286Y-14000000D01*
X84142857Y-14952381D02*
X84142857Y-13952381D01*
X84142857Y-14428571D02*
X84714286Y-14428571D01*
X84714286Y-14952381D02*
X84714286Y-13952381D01*
X127438095Y895238D02*
X127580952Y847619D01*
X127819048Y847619D01*
X127914286Y895238D01*
X127961905Y942857D01*
X128009524Y1038095D01*
X128009524Y1133333D01*
X127961905Y1228571D01*
X127914286Y1276190D01*
X127819048Y1323810D01*
X127628571Y1371429D01*
X127533333Y1419048D01*
X127485714Y1466667D01*
X127438095Y1561905D01*
X127438095Y1657143D01*
X127485714Y1752381D01*
X127533333Y1800000D01*
X127628571Y1847619D01*
X127866667Y1847619D01*
X128009524Y1800000D01*
X128342857Y1847619D02*
X128580952Y847619D01*
X128771429Y1561905D01*
X128961905Y847619D01*
X129200000Y1847619D01*
X129342857Y752381D02*
X130104762Y752381D01*
X130342857Y847619D02*
X130342857Y1847619D01*
X130723810Y1847619D01*
X130819048Y1800000D01*
X130866667Y1752381D01*
X130914286Y1657143D01*
X130914286Y1514286D01*
X130866667Y1419048D01*
X130819048Y1371429D01*
X130723810Y1323810D01*
X130342857Y1323810D01*
X131342857Y1847619D02*
X131342857Y1038095D01*
X131390476Y942857D01*
X131438095Y895238D01*
X131533333Y847619D01*
X131723810Y847619D01*
X131819048Y895238D01*
X131866667Y942857D01*
X131914286Y1038095D01*
X131914286Y1847619D01*
X132342857Y895238D02*
X132485714Y847619D01*
X132723810Y847619D01*
X132819048Y895238D01*
X132866667Y942857D01*
X132914286Y1038095D01*
X132914286Y1133333D01*
X132866667Y1228571D01*
X132819048Y1276190D01*
X132723810Y1323810D01*
X132533333Y1371429D01*
X132438095Y1419048D01*
X132390476Y1466667D01*
X132342857Y1561905D01*
X132342857Y1657143D01*
X132390476Y1752381D01*
X132438095Y1800000D01*
X132533333Y1847619D01*
X132771429Y1847619D01*
X132914286Y1800000D01*
X133342857Y847619D02*
X133342857Y1847619D01*
X133342857Y1371429D02*
X133914286Y1371429D01*
X133914286Y847619D02*
X133914286Y1847619D01*
X96738095Y-14904762D02*
X96880952Y-14952381D01*
X97119048Y-14952381D01*
X97214286Y-14904762D01*
X97261905Y-14857143D01*
X97309524Y-14761905D01*
X97309524Y-14666667D01*
X97261905Y-14571429D01*
X97214286Y-14523810D01*
X97119048Y-14476190D01*
X96928571Y-14428571D01*
X96833333Y-14380952D01*
X96785714Y-14333333D01*
X96738095Y-14238095D01*
X96738095Y-14142857D01*
X96785714Y-14047619D01*
X96833333Y-14000000D01*
X96928571Y-13952381D01*
X97166667Y-13952381D01*
X97309524Y-14000000D01*
X97642857Y-13952381D02*
X97880952Y-14952381D01*
X98071429Y-14238095D01*
X98261905Y-14952381D01*
X98500000Y-13952381D01*
X98642857Y-15047619D02*
X99404762Y-15047619D01*
X99642857Y-14952381D02*
X99642857Y-13952381D01*
X100023810Y-13952381D01*
X100119048Y-14000000D01*
X100166667Y-14047619D01*
X100214286Y-14142857D01*
X100214286Y-14285714D01*
X100166667Y-14380952D01*
X100119048Y-14428571D01*
X100023810Y-14476190D01*
X99642857Y-14476190D01*
X100642857Y-13952381D02*
X100642857Y-14761905D01*
X100690476Y-14857143D01*
X100738095Y-14904762D01*
X100833333Y-14952381D01*
X101023810Y-14952381D01*
X101119048Y-14904762D01*
X101166667Y-14857143D01*
X101214286Y-14761905D01*
X101214286Y-13952381D01*
X101642857Y-14904762D02*
X101785714Y-14952381D01*
X102023810Y-14952381D01*
X102119048Y-14904762D01*
X102166667Y-14857143D01*
X102214286Y-14761905D01*
X102214286Y-14666667D01*
X102166667Y-14571429D01*
X102119048Y-14523810D01*
X102023810Y-14476190D01*
X101833333Y-14428571D01*
X101738095Y-14380952D01*
X101690476Y-14333333D01*
X101642857Y-14238095D01*
X101642857Y-14142857D01*
X101690476Y-14047619D01*
X101738095Y-14000000D01*
X101833333Y-13952381D01*
X102071429Y-13952381D01*
X102214286Y-14000000D01*
X102642857Y-14952381D02*
X102642857Y-13952381D01*
X102642857Y-14428571D02*
X103214286Y-14428571D01*
X103214286Y-14952381D02*
X103214286Y-13952381D01*
X78238095Y895238D02*
X78380952Y847619D01*
X78619048Y847619D01*
X78714286Y895238D01*
X78761905Y942857D01*
X78809524Y1038095D01*
X78809524Y1133333D01*
X78761905Y1228571D01*
X78714286Y1276190D01*
X78619048Y1323810D01*
X78428571Y1371429D01*
X78333333Y1419048D01*
X78285714Y1466667D01*
X78238095Y1561905D01*
X78238095Y1657143D01*
X78285714Y1752381D01*
X78333333Y1800000D01*
X78428571Y1847619D01*
X78666667Y1847619D01*
X78809524Y1800000D01*
X79142857Y1847619D02*
X79380952Y847619D01*
X79571429Y1561905D01*
X79761905Y847619D01*
X80000000Y1847619D01*
X80142857Y752381D02*
X80904762Y752381D01*
X81142857Y847619D02*
X81142857Y1847619D01*
X81523810Y1847619D01*
X81619048Y1800000D01*
X81666667Y1752381D01*
X81714286Y1657143D01*
X81714286Y1514286D01*
X81666667Y1419048D01*
X81619048Y1371429D01*
X81523810Y1323810D01*
X81142857Y1323810D01*
X82142857Y1847619D02*
X82142857Y1038095D01*
X82190476Y942857D01*
X82238095Y895238D01*
X82333333Y847619D01*
X82523810Y847619D01*
X82619048Y895238D01*
X82666667Y942857D01*
X82714286Y1038095D01*
X82714286Y1847619D01*
X83142857Y895238D02*
X83285714Y847619D01*
X83523810Y847619D01*
X83619048Y895238D01*
X83666667Y942857D01*
X83714286Y1038095D01*
X83714286Y1133333D01*
X83666667Y1228571D01*
X83619048Y1276190D01*
X83523810Y1323810D01*
X83333333Y1371429D01*
X83238095Y1419048D01*
X83190476Y1466667D01*
X83142857Y1561905D01*
X83142857Y1657143D01*
X83190476Y1752381D01*
X83238095Y1800000D01*
X83333333Y1847619D01*
X83571429Y1847619D01*
X83714286Y1800000D01*
X84142857Y847619D02*
X84142857Y1847619D01*
X84142857Y1371429D02*
X84714286Y1371429D01*
X84714286Y847619D02*
X84714286Y1847619D01*
X69071425Y-55504762D02*
X69214282Y-55552381D01*
X69452378Y-55552381D01*
X69547616Y-55504762D01*
X69595235Y-55457143D01*
X69642854Y-55361905D01*
X69642854Y-55266667D01*
X69595235Y-55171429D01*
X69547616Y-55123810D01*
X69452378Y-55076190D01*
X69261901Y-55028571D01*
X69166663Y-54980952D01*
X69119044Y-54933333D01*
X69071425Y-54838095D01*
X69071425Y-54742857D01*
X69119044Y-54647619D01*
X69166663Y-54600000D01*
X69261901Y-54552381D01*
X69499997Y-54552381D01*
X69642854Y-54600000D01*
X69976187Y-54552381D02*
X70214282Y-55552381D01*
X70404759Y-54838095D01*
X70595235Y-55552381D01*
X70833330Y-54552381D01*
X70976187Y-55647619D02*
X71738092Y-55647619D01*
X71976187Y-55552381D02*
X71976187Y-54552381D01*
X72357140Y-54552381D01*
X72452378Y-54600000D01*
X72499997Y-54647619D01*
X72547616Y-54742857D01*
X72547616Y-54885714D01*
X72499997Y-54980952D01*
X72452378Y-55028571D01*
X72357140Y-55076190D01*
X71976187Y-55076190D01*
X72976187Y-54552381D02*
X72976187Y-55361905D01*
X73023806Y-55457143D01*
X73071425Y-55504762D01*
X73166663Y-55552381D01*
X73357140Y-55552381D01*
X73452378Y-55504762D01*
X73499997Y-55457143D01*
X73547616Y-55361905D01*
X73547616Y-54552381D01*
X73976187Y-55504762D02*
X74119044Y-55552381D01*
X74357140Y-55552381D01*
X74452378Y-55504762D01*
X74499997Y-55457143D01*
X74547616Y-55361905D01*
X74547616Y-55266667D01*
X74499997Y-55171429D01*
X74452378Y-55123810D01*
X74357140Y-55076190D01*
X74166663Y-55028571D01*
X74071425Y-54980952D01*
X74023806Y-54933333D01*
X73976187Y-54838095D01*
X73976187Y-54742857D01*
X74023806Y-54647619D01*
X74071425Y-54600000D01*
X74166663Y-54552381D01*
X74404759Y-54552381D01*
X74547616Y-54600000D01*
X74976187Y-55552381D02*
X74976187Y-54552381D01*
X74976187Y-55028571D02*
X75547616Y-55028571D01*
X75547616Y-55552381D02*
X75547616Y-54552381D01*
X41238095Y895238D02*
X41380952Y847619D01*
X41619048Y847619D01*
X41714286Y895238D01*
X41761905Y942857D01*
X41809524Y1038095D01*
X41809524Y1133333D01*
X41761905Y1228571D01*
X41714286Y1276190D01*
X41619048Y1323810D01*
X41428571Y1371429D01*
X41333333Y1419048D01*
X41285714Y1466667D01*
X41238095Y1561905D01*
X41238095Y1657143D01*
X41285714Y1752381D01*
X41333333Y1800000D01*
X41428571Y1847619D01*
X41666667Y1847619D01*
X41809524Y1800000D01*
X42142857Y1847619D02*
X42380952Y847619D01*
X42571429Y1561905D01*
X42761905Y847619D01*
X43000000Y1847619D01*
X43142857Y752381D02*
X43904762Y752381D01*
X44142857Y847619D02*
X44142857Y1847619D01*
X44523810Y1847619D01*
X44619048Y1800000D01*
X44666667Y1752381D01*
X44714286Y1657143D01*
X44714286Y1514286D01*
X44666667Y1419048D01*
X44619048Y1371429D01*
X44523810Y1323810D01*
X44142857Y1323810D01*
X45142857Y1847619D02*
X45142857Y1038095D01*
X45190476Y942857D01*
X45238095Y895238D01*
X45333333Y847619D01*
X45523810Y847619D01*
X45619048Y895238D01*
X45666667Y942857D01*
X45714286Y1038095D01*
X45714286Y1847619D01*
X46142857Y895238D02*
X46285714Y847619D01*
X46523810Y847619D01*
X46619048Y895238D01*
X46666667Y942857D01*
X46714286Y1038095D01*
X46714286Y1133333D01*
X46666667Y1228571D01*
X46619048Y1276190D01*
X46523810Y1323810D01*
X46333333Y1371429D01*
X46238095Y1419048D01*
X46190476Y1466667D01*
X46142857Y1561905D01*
X46142857Y1657143D01*
X46190476Y1752381D01*
X46238095Y1800000D01*
X46333333Y1847619D01*
X46571429Y1847619D01*
X46714286Y1800000D01*
X47142857Y847619D02*
X47142857Y1847619D01*
X47142857Y1371429D02*
X47714286Y1371429D01*
X47714286Y847619D02*
X47714286Y1847619D01*
X96738095Y895238D02*
X96880952Y847619D01*
X97119048Y847619D01*
X97214286Y895238D01*
X97261905Y942857D01*
X97309524Y1038095D01*
X97309524Y1133333D01*
X97261905Y1228571D01*
X97214286Y1276190D01*
X97119048Y1323810D01*
X96928571Y1371429D01*
X96833333Y1419048D01*
X96785714Y1466667D01*
X96738095Y1561905D01*
X96738095Y1657143D01*
X96785714Y1752381D01*
X96833333Y1800000D01*
X96928571Y1847619D01*
X97166667Y1847619D01*
X97309524Y1800000D01*
X97642857Y1847619D02*
X97880952Y847619D01*
X98071429Y1561905D01*
X98261905Y847619D01*
X98500000Y1847619D01*
X98642857Y752381D02*
X99404762Y752381D01*
X99642857Y847619D02*
X99642857Y1847619D01*
X100023810Y1847619D01*
X100119048Y1800000D01*
X100166667Y1752381D01*
X100214286Y1657143D01*
X100214286Y1514286D01*
X100166667Y1419048D01*
X100119048Y1371429D01*
X100023810Y1323810D01*
X99642857Y1323810D01*
X100642857Y1847619D02*
X100642857Y1038095D01*
X100690476Y942857D01*
X100738095Y895238D01*
X100833333Y847619D01*
X101023810Y847619D01*
X101119048Y895238D01*
X101166667Y942857D01*
X101214286Y1038095D01*
X101214286Y1847619D01*
X101642857Y895238D02*
X101785714Y847619D01*
X102023810Y847619D01*
X102119048Y895238D01*
X102166667Y942857D01*
X102214286Y1038095D01*
X102214286Y1133333D01*
X102166667Y1228571D01*
X102119048Y1276190D01*
X102023810Y1323810D01*
X101833333Y1371429D01*
X101738095Y1419048D01*
X101690476Y1466667D01*
X101642857Y1561905D01*
X101642857Y1657143D01*
X101690476Y1752381D01*
X101738095Y1800000D01*
X101833333Y1847619D01*
X102071429Y1847619D01*
X102214286Y1800000D01*
X102642857Y847619D02*
X102642857Y1847619D01*
X102642857Y1371429D02*
X103214286Y1371429D01*
X103214286Y847619D02*
X103214286Y1847619D01*
X4238095Y895238D02*
X4380952Y847619D01*
X4619048Y847619D01*
X4714286Y895238D01*
X4761905Y942857D01*
X4809524Y1038095D01*
X4809524Y1133333D01*
X4761905Y1228571D01*
X4714286Y1276190D01*
X4619048Y1323810D01*
X4428571Y1371429D01*
X4333333Y1419048D01*
X4285714Y1466667D01*
X4238095Y1561905D01*
X4238095Y1657143D01*
X4285714Y1752381D01*
X4333333Y1800000D01*
X4428571Y1847619D01*
X4666667Y1847619D01*
X4809524Y1800000D01*
X5142857Y1847619D02*
X5380952Y847619D01*
X5571429Y1561905D01*
X5761905Y847619D01*
X6000000Y1847619D01*
X6142857Y752381D02*
X6904762Y752381D01*
X7142857Y847619D02*
X7142857Y1847619D01*
X7523810Y1847619D01*
X7619048Y1800000D01*
X7666667Y1752381D01*
X7714286Y1657143D01*
X7714286Y1514286D01*
X7666667Y1419048D01*
X7619048Y1371429D01*
X7523810Y1323810D01*
X7142857Y1323810D01*
X8142857Y1847619D02*
X8142857Y1038095D01*
X8190476Y942857D01*
X8238095Y895238D01*
X8333333Y847619D01*
X8523810Y847619D01*
X8619048Y895238D01*
X8666667Y942857D01*
X8714286Y1038095D01*
X8714286Y1847619D01*
X9142857Y895238D02*
X9285714Y847619D01*
X9523810Y847619D01*
X9619048Y895238D01*
X9666667Y942857D01*
X9714286Y1038095D01*
X9714286Y1133333D01*
X9666667Y1228571D01*
X9619048Y1276190D01*
X9523810Y1323810D01*
X9333333Y1371429D01*
X9238095Y1419048D01*
X9190476Y1466667D01*
X9142857Y1561905D01*
X9142857Y1657143D01*
X9190476Y1752381D01*
X9238095Y1800000D01*
X9333333Y1847619D01*
X9571429Y1847619D01*
X9714286Y1800000D01*
X10142857Y847619D02*
X10142857Y1847619D01*
X10142857Y1371429D02*
X10714286Y1371429D01*
X10714286Y847619D02*
X10714286Y1847619D01*
X155104762Y-55504762D02*
X155247619Y-55552381D01*
X155485715Y-55552381D01*
X155580953Y-55504762D01*
X155628572Y-55457143D01*
X155676191Y-55361905D01*
X155676191Y-55266667D01*
X155628572Y-55171429D01*
X155580953Y-55123810D01*
X155485715Y-55076190D01*
X155295238Y-55028571D01*
X155200000Y-54980952D01*
X155152381Y-54933333D01*
X155104762Y-54838095D01*
X155104762Y-54742857D01*
X155152381Y-54647619D01*
X155200000Y-54600000D01*
X155295238Y-54552381D01*
X155533334Y-54552381D01*
X155676191Y-54600000D01*
X156009524Y-54552381D02*
X156247619Y-55552381D01*
X156438096Y-54838095D01*
X156628572Y-55552381D01*
X156866667Y-54552381D01*
X157009524Y-55647619D02*
X157771429Y-55647619D01*
X158009524Y-55552381D02*
X158009524Y-54552381D01*
X158390477Y-54552381D01*
X158485715Y-54600000D01*
X158533334Y-54647619D01*
X158580953Y-54742857D01*
X158580953Y-54885714D01*
X158533334Y-54980952D01*
X158485715Y-55028571D01*
X158390477Y-55076190D01*
X158009524Y-55076190D01*
X159009524Y-54552381D02*
X159009524Y-55361905D01*
X159057143Y-55457143D01*
X159104762Y-55504762D01*
X159200000Y-55552381D01*
X159390477Y-55552381D01*
X159485715Y-55504762D01*
X159533334Y-55457143D01*
X159580953Y-55361905D01*
X159580953Y-54552381D01*
X160009524Y-55504762D02*
X160152381Y-55552381D01*
X160390477Y-55552381D01*
X160485715Y-55504762D01*
X160533334Y-55457143D01*
X160580953Y-55361905D01*
X160580953Y-55266667D01*
X160533334Y-55171429D01*
X160485715Y-55123810D01*
X160390477Y-55076190D01*
X160200000Y-55028571D01*
X160104762Y-54980952D01*
X160057143Y-54933333D01*
X160009524Y-54838095D01*
X160009524Y-54742857D01*
X160057143Y-54647619D01*
X160104762Y-54600000D01*
X160200000Y-54552381D01*
X160438096Y-54552381D01*
X160580953Y-54600000D01*
X161009524Y-55552381D02*
X161009524Y-54552381D01*
X161009524Y-55028571D02*
X161580953Y-55028571D01*
X161580953Y-55552381D02*
X161580953Y-54552381D01*
X136604762Y-55504762D02*
X136747619Y-55552381D01*
X136985715Y-55552381D01*
X137080953Y-55504762D01*
X137128572Y-55457143D01*
X137176191Y-55361905D01*
X137176191Y-55266667D01*
X137128572Y-55171429D01*
X137080953Y-55123810D01*
X136985715Y-55076190D01*
X136795238Y-55028571D01*
X136700000Y-54980952D01*
X136652381Y-54933333D01*
X136604762Y-54838095D01*
X136604762Y-54742857D01*
X136652381Y-54647619D01*
X136700000Y-54600000D01*
X136795238Y-54552381D01*
X137033334Y-54552381D01*
X137176191Y-54600000D01*
X137509524Y-54552381D02*
X137747619Y-55552381D01*
X137938096Y-54838095D01*
X138128572Y-55552381D01*
X138366667Y-54552381D01*
X138509524Y-55647619D02*
X139271429Y-55647619D01*
X139509524Y-55552381D02*
X139509524Y-54552381D01*
X139890477Y-54552381D01*
X139985715Y-54600000D01*
X140033334Y-54647619D01*
X140080953Y-54742857D01*
X140080953Y-54885714D01*
X140033334Y-54980952D01*
X139985715Y-55028571D01*
X139890477Y-55076190D01*
X139509524Y-55076190D01*
X140509524Y-54552381D02*
X140509524Y-55361905D01*
X140557143Y-55457143D01*
X140604762Y-55504762D01*
X140700000Y-55552381D01*
X140890477Y-55552381D01*
X140985715Y-55504762D01*
X141033334Y-55457143D01*
X141080953Y-55361905D01*
X141080953Y-54552381D01*
X141509524Y-55504762D02*
X141652381Y-55552381D01*
X141890477Y-55552381D01*
X141985715Y-55504762D01*
X142033334Y-55457143D01*
X142080953Y-55361905D01*
X142080953Y-55266667D01*
X142033334Y-55171429D01*
X141985715Y-55123810D01*
X141890477Y-55076190D01*
X141700000Y-55028571D01*
X141604762Y-54980952D01*
X141557143Y-54933333D01*
X141509524Y-54838095D01*
X141509524Y-54742857D01*
X141557143Y-54647619D01*
X141604762Y-54600000D01*
X141700000Y-54552381D01*
X141938096Y-54552381D01*
X142080953Y-54600000D01*
X142509524Y-55552381D02*
X142509524Y-54552381D01*
X142509524Y-55028571D02*
X143080953Y-55028571D01*
X143080953Y-55552381D02*
X143080953Y-54552381D01*
X87571425Y-55504762D02*
X87714282Y-55552381D01*
X87952378Y-55552381D01*
X88047616Y-55504762D01*
X88095235Y-55457143D01*
X88142854Y-55361905D01*
X88142854Y-55266667D01*
X88095235Y-55171429D01*
X88047616Y-55123810D01*
X87952378Y-55076190D01*
X87761901Y-55028571D01*
X87666663Y-54980952D01*
X87619044Y-54933333D01*
X87571425Y-54838095D01*
X87571425Y-54742857D01*
X87619044Y-54647619D01*
X87666663Y-54600000D01*
X87761901Y-54552381D01*
X87999997Y-54552381D01*
X88142854Y-54600000D01*
X88476187Y-54552381D02*
X88714282Y-55552381D01*
X88904759Y-54838095D01*
X89095235Y-55552381D01*
X89333330Y-54552381D01*
X89476187Y-55647619D02*
X90238092Y-55647619D01*
X90476187Y-55552381D02*
X90476187Y-54552381D01*
X90857140Y-54552381D01*
X90952378Y-54600000D01*
X90999997Y-54647619D01*
X91047616Y-54742857D01*
X91047616Y-54885714D01*
X90999997Y-54980952D01*
X90952378Y-55028571D01*
X90857140Y-55076190D01*
X90476187Y-55076190D01*
X91476187Y-54552381D02*
X91476187Y-55361905D01*
X91523806Y-55457143D01*
X91571425Y-55504762D01*
X91666663Y-55552381D01*
X91857140Y-55552381D01*
X91952378Y-55504762D01*
X91999997Y-55457143D01*
X92047616Y-55361905D01*
X92047616Y-54552381D01*
X92476187Y-55504762D02*
X92619044Y-55552381D01*
X92857140Y-55552381D01*
X92952378Y-55504762D01*
X92999997Y-55457143D01*
X93047616Y-55361905D01*
X93047616Y-55266667D01*
X92999997Y-55171429D01*
X92952378Y-55123810D01*
X92857140Y-55076190D01*
X92666663Y-55028571D01*
X92571425Y-54980952D01*
X92523806Y-54933333D01*
X92476187Y-54838095D01*
X92476187Y-54742857D01*
X92523806Y-54647619D01*
X92571425Y-54600000D01*
X92666663Y-54552381D01*
X92904759Y-54552381D01*
X93047616Y-54600000D01*
X93476187Y-55552381D02*
X93476187Y-54552381D01*
X93476187Y-55028571D02*
X94047616Y-55028571D01*
X94047616Y-55552381D02*
X94047616Y-54552381D01*
X219938095Y-30704762D02*
X220080952Y-30752381D01*
X220319048Y-30752381D01*
X220414286Y-30704762D01*
X220461905Y-30657143D01*
X220509524Y-30561905D01*
X220509524Y-30466667D01*
X220461905Y-30371429D01*
X220414286Y-30323810D01*
X220319048Y-30276190D01*
X220128571Y-30228571D01*
X220033333Y-30180952D01*
X219985714Y-30133333D01*
X219938095Y-30038095D01*
X219938095Y-29942857D01*
X219985714Y-29847619D01*
X220033333Y-29800000D01*
X220128571Y-29752381D01*
X220366667Y-29752381D01*
X220509524Y-29800000D01*
X220842857Y-29752381D02*
X221080952Y-30752381D01*
X221271429Y-30038095D01*
X221461905Y-30752381D01*
X221700000Y-29752381D01*
X221842857Y-30847619D02*
X222604762Y-30847619D01*
X222842857Y-30752381D02*
X222842857Y-29752381D01*
X223223810Y-29752381D01*
X223319048Y-29800000D01*
X223366667Y-29847619D01*
X223414286Y-29942857D01*
X223414286Y-30085714D01*
X223366667Y-30180952D01*
X223319048Y-30228571D01*
X223223810Y-30276190D01*
X222842857Y-30276190D01*
X223842857Y-29752381D02*
X223842857Y-30561905D01*
X223890476Y-30657143D01*
X223938095Y-30704762D01*
X224033333Y-30752381D01*
X224223810Y-30752381D01*
X224319048Y-30704762D01*
X224366667Y-30657143D01*
X224414286Y-30561905D01*
X224414286Y-29752381D01*
X224842857Y-30704762D02*
X224985714Y-30752381D01*
X225223810Y-30752381D01*
X225319048Y-30704762D01*
X225366667Y-30657143D01*
X225414286Y-30561905D01*
X225414286Y-30466667D01*
X225366667Y-30371429D01*
X225319048Y-30323810D01*
X225223810Y-30276190D01*
X225033333Y-30228571D01*
X224938095Y-30180952D01*
X224890476Y-30133333D01*
X224842857Y-30038095D01*
X224842857Y-29942857D01*
X224890476Y-29847619D01*
X224938095Y-29800000D01*
X225033333Y-29752381D01*
X225271429Y-29752381D01*
X225414286Y-29800000D01*
X225842857Y-30752381D02*
X225842857Y-29752381D01*
X225842857Y-30228571D02*
X226414286Y-30228571D01*
X226414286Y-30752381D02*
X226414286Y-29752381D01*
X201438095Y-30704762D02*
X201580952Y-30752381D01*
X201819048Y-30752381D01*
X201914286Y-30704762D01*
X201961905Y-30657143D01*
X202009524Y-30561905D01*
X202009524Y-30466667D01*
X201961905Y-30371429D01*
X201914286Y-30323810D01*
X201819048Y-30276190D01*
X201628571Y-30228571D01*
X201533333Y-30180952D01*
X201485714Y-30133333D01*
X201438095Y-30038095D01*
X201438095Y-29942857D01*
X201485714Y-29847619D01*
X201533333Y-29800000D01*
X201628571Y-29752381D01*
X201866667Y-29752381D01*
X202009524Y-29800000D01*
X202342857Y-29752381D02*
X202580952Y-30752381D01*
X202771429Y-30038095D01*
X202961905Y-30752381D01*
X203200000Y-29752381D01*
X203342857Y-30847619D02*
X204104762Y-30847619D01*
X204342857Y-30752381D02*
X204342857Y-29752381D01*
X204723810Y-29752381D01*
X204819048Y-29800000D01*
X204866667Y-29847619D01*
X204914286Y-29942857D01*
X204914286Y-30085714D01*
X204866667Y-30180952D01*
X204819048Y-30228571D01*
X204723810Y-30276190D01*
X204342857Y-30276190D01*
X205342857Y-29752381D02*
X205342857Y-30561905D01*
X205390476Y-30657143D01*
X205438095Y-30704762D01*
X205533333Y-30752381D01*
X205723810Y-30752381D01*
X205819048Y-30704762D01*
X205866667Y-30657143D01*
X205914286Y-30561905D01*
X205914286Y-29752381D01*
X206342857Y-30704762D02*
X206485714Y-30752381D01*
X206723810Y-30752381D01*
X206819048Y-30704762D01*
X206866667Y-30657143D01*
X206914286Y-30561905D01*
X206914286Y-30466667D01*
X206866667Y-30371429D01*
X206819048Y-30323810D01*
X206723810Y-30276190D01*
X206533333Y-30228571D01*
X206438095Y-30180952D01*
X206390476Y-30133333D01*
X206342857Y-30038095D01*
X206342857Y-29942857D01*
X206390476Y-29847619D01*
X206438095Y-29800000D01*
X206533333Y-29752381D01*
X206771429Y-29752381D01*
X206914286Y-29800000D01*
X207342857Y-30752381D02*
X207342857Y-29752381D01*
X207342857Y-30228571D02*
X207914286Y-30228571D01*
X207914286Y-30752381D02*
X207914286Y-29752381D01*
X182938095Y-30704762D02*
X183080952Y-30752381D01*
X183319048Y-30752381D01*
X183414286Y-30704762D01*
X183461905Y-30657143D01*
X183509524Y-30561905D01*
X183509524Y-30466667D01*
X183461905Y-30371429D01*
X183414286Y-30323810D01*
X183319048Y-30276190D01*
X183128571Y-30228571D01*
X183033333Y-30180952D01*
X182985714Y-30133333D01*
X182938095Y-30038095D01*
X182938095Y-29942857D01*
X182985714Y-29847619D01*
X183033333Y-29800000D01*
X183128571Y-29752381D01*
X183366667Y-29752381D01*
X183509524Y-29800000D01*
X183842857Y-29752381D02*
X184080952Y-30752381D01*
X184271429Y-30038095D01*
X184461905Y-30752381D01*
X184700000Y-29752381D01*
X184842857Y-30847619D02*
X185604762Y-30847619D01*
X185842857Y-30752381D02*
X185842857Y-29752381D01*
X186223810Y-29752381D01*
X186319048Y-29800000D01*
X186366667Y-29847619D01*
X186414286Y-29942857D01*
X186414286Y-30085714D01*
X186366667Y-30180952D01*
X186319048Y-30228571D01*
X186223810Y-30276190D01*
X185842857Y-30276190D01*
X186842857Y-29752381D02*
X186842857Y-30561905D01*
X186890476Y-30657143D01*
X186938095Y-30704762D01*
X187033333Y-30752381D01*
X187223810Y-30752381D01*
X187319048Y-30704762D01*
X187366667Y-30657143D01*
X187414286Y-30561905D01*
X187414286Y-29752381D01*
X187842857Y-30704762D02*
X187985714Y-30752381D01*
X188223810Y-30752381D01*
X188319048Y-30704762D01*
X188366667Y-30657143D01*
X188414286Y-30561905D01*
X188414286Y-30466667D01*
X188366667Y-30371429D01*
X188319048Y-30323810D01*
X188223810Y-30276190D01*
X188033333Y-30228571D01*
X187938095Y-30180952D01*
X187890476Y-30133333D01*
X187842857Y-30038095D01*
X187842857Y-29942857D01*
X187890476Y-29847619D01*
X187938095Y-29800000D01*
X188033333Y-29752381D01*
X188271429Y-29752381D01*
X188414286Y-29800000D01*
X188842857Y-30752381D02*
X188842857Y-29752381D01*
X188842857Y-30228571D02*
X189414286Y-30228571D01*
X189414286Y-30752381D02*
X189414286Y-29752381D01*
X164438095Y-30704762D02*
X164580952Y-30752381D01*
X164819048Y-30752381D01*
X164914286Y-30704762D01*
X164961905Y-30657143D01*
X165009524Y-30561905D01*
X165009524Y-30466667D01*
X164961905Y-30371429D01*
X164914286Y-30323810D01*
X164819048Y-30276190D01*
X164628571Y-30228571D01*
X164533333Y-30180952D01*
X164485714Y-30133333D01*
X164438095Y-30038095D01*
X164438095Y-29942857D01*
X164485714Y-29847619D01*
X164533333Y-29800000D01*
X164628571Y-29752381D01*
X164866667Y-29752381D01*
X165009524Y-29800000D01*
X165342857Y-29752381D02*
X165580952Y-30752381D01*
X165771429Y-30038095D01*
X165961905Y-30752381D01*
X166200000Y-29752381D01*
X166342857Y-30847619D02*
X167104762Y-30847619D01*
X167342857Y-30752381D02*
X167342857Y-29752381D01*
X167723810Y-29752381D01*
X167819048Y-29800000D01*
X167866667Y-29847619D01*
X167914286Y-29942857D01*
X167914286Y-30085714D01*
X167866667Y-30180952D01*
X167819048Y-30228571D01*
X167723810Y-30276190D01*
X167342857Y-30276190D01*
X168342857Y-29752381D02*
X168342857Y-30561905D01*
X168390476Y-30657143D01*
X168438095Y-30704762D01*
X168533333Y-30752381D01*
X168723810Y-30752381D01*
X168819048Y-30704762D01*
X168866667Y-30657143D01*
X168914286Y-30561905D01*
X168914286Y-29752381D01*
X169342857Y-30704762D02*
X169485714Y-30752381D01*
X169723810Y-30752381D01*
X169819048Y-30704762D01*
X169866667Y-30657143D01*
X169914286Y-30561905D01*
X169914286Y-30466667D01*
X169866667Y-30371429D01*
X169819048Y-30323810D01*
X169723810Y-30276190D01*
X169533333Y-30228571D01*
X169438095Y-30180952D01*
X169390476Y-30133333D01*
X169342857Y-30038095D01*
X169342857Y-29942857D01*
X169390476Y-29847619D01*
X169438095Y-29800000D01*
X169533333Y-29752381D01*
X169771429Y-29752381D01*
X169914286Y-29800000D01*
X170342857Y-30752381D02*
X170342857Y-29752381D01*
X170342857Y-30228571D02*
X170914286Y-30228571D01*
X170914286Y-30752381D02*
X170914286Y-29752381D01*
X145938095Y-30704762D02*
X146080952Y-30752381D01*
X146319048Y-30752381D01*
X146414286Y-30704762D01*
X146461905Y-30657143D01*
X146509524Y-30561905D01*
X146509524Y-30466667D01*
X146461905Y-30371429D01*
X146414286Y-30323810D01*
X146319048Y-30276190D01*
X146128571Y-30228571D01*
X146033333Y-30180952D01*
X145985714Y-30133333D01*
X145938095Y-30038095D01*
X145938095Y-29942857D01*
X145985714Y-29847619D01*
X146033333Y-29800000D01*
X146128571Y-29752381D01*
X146366667Y-29752381D01*
X146509524Y-29800000D01*
X146842857Y-29752381D02*
X147080952Y-30752381D01*
X147271429Y-30038095D01*
X147461905Y-30752381D01*
X147700000Y-29752381D01*
X147842857Y-30847619D02*
X148604762Y-30847619D01*
X148842857Y-30752381D02*
X148842857Y-29752381D01*
X149223810Y-29752381D01*
X149319048Y-29800000D01*
X149366667Y-29847619D01*
X149414286Y-29942857D01*
X149414286Y-30085714D01*
X149366667Y-30180952D01*
X149319048Y-30228571D01*
X149223810Y-30276190D01*
X148842857Y-30276190D01*
X149842857Y-29752381D02*
X149842857Y-30561905D01*
X149890476Y-30657143D01*
X149938095Y-30704762D01*
X150033333Y-30752381D01*
X150223810Y-30752381D01*
X150319048Y-30704762D01*
X150366667Y-30657143D01*
X150414286Y-30561905D01*
X150414286Y-29752381D01*
X150842857Y-30704762D02*
X150985714Y-30752381D01*
X151223810Y-30752381D01*
X151319048Y-30704762D01*
X151366667Y-30657143D01*
X151414286Y-30561905D01*
X151414286Y-30466667D01*
X151366667Y-30371429D01*
X151319048Y-30323810D01*
X151223810Y-30276190D01*
X151033333Y-30228571D01*
X150938095Y-30180952D01*
X150890476Y-30133333D01*
X150842857Y-30038095D01*
X150842857Y-29942857D01*
X150890476Y-29847619D01*
X150938095Y-29800000D01*
X151033333Y-29752381D01*
X151271429Y-29752381D01*
X151414286Y-29800000D01*
X151842857Y-30752381D02*
X151842857Y-29752381D01*
X151842857Y-30228571D02*
X152414286Y-30228571D01*
X152414286Y-30752381D02*
X152414286Y-29752381D01*
X127438095Y-30704762D02*
X127580952Y-30752381D01*
X127819048Y-30752381D01*
X127914286Y-30704762D01*
X127961905Y-30657143D01*
X128009524Y-30561905D01*
X128009524Y-30466667D01*
X127961905Y-30371429D01*
X127914286Y-30323810D01*
X127819048Y-30276190D01*
X127628571Y-30228571D01*
X127533333Y-30180952D01*
X127485714Y-30133333D01*
X127438095Y-30038095D01*
X127438095Y-29942857D01*
X127485714Y-29847619D01*
X127533333Y-29800000D01*
X127628571Y-29752381D01*
X127866667Y-29752381D01*
X128009524Y-29800000D01*
X128342857Y-29752381D02*
X128580952Y-30752381D01*
X128771429Y-30038095D01*
X128961905Y-30752381D01*
X129200000Y-29752381D01*
X129342857Y-30847619D02*
X130104762Y-30847619D01*
X130342857Y-30752381D02*
X130342857Y-29752381D01*
X130723810Y-29752381D01*
X130819048Y-29800000D01*
X130866667Y-29847619D01*
X130914286Y-29942857D01*
X130914286Y-30085714D01*
X130866667Y-30180952D01*
X130819048Y-30228571D01*
X130723810Y-30276190D01*
X130342857Y-30276190D01*
X131342857Y-29752381D02*
X131342857Y-30561905D01*
X131390476Y-30657143D01*
X131438095Y-30704762D01*
X131533333Y-30752381D01*
X131723810Y-30752381D01*
X131819048Y-30704762D01*
X131866667Y-30657143D01*
X131914286Y-30561905D01*
X131914286Y-29752381D01*
X132342857Y-30704762D02*
X132485714Y-30752381D01*
X132723810Y-30752381D01*
X132819048Y-30704762D01*
X132866667Y-30657143D01*
X132914286Y-30561905D01*
X132914286Y-30466667D01*
X132866667Y-30371429D01*
X132819048Y-30323810D01*
X132723810Y-30276190D01*
X132533333Y-30228571D01*
X132438095Y-30180952D01*
X132390476Y-30133333D01*
X132342857Y-30038095D01*
X132342857Y-29942857D01*
X132390476Y-29847619D01*
X132438095Y-29800000D01*
X132533333Y-29752381D01*
X132771429Y-29752381D01*
X132914286Y-29800000D01*
X133342857Y-30752381D02*
X133342857Y-29752381D01*
X133342857Y-30228571D02*
X133914286Y-30228571D01*
X133914286Y-30752381D02*
X133914286Y-29752381D01*
X96738095Y-30704762D02*
X96880952Y-30752381D01*
X97119048Y-30752381D01*
X97214286Y-30704762D01*
X97261905Y-30657143D01*
X97309524Y-30561905D01*
X97309524Y-30466667D01*
X97261905Y-30371429D01*
X97214286Y-30323810D01*
X97119048Y-30276190D01*
X96928571Y-30228571D01*
X96833333Y-30180952D01*
X96785714Y-30133333D01*
X96738095Y-30038095D01*
X96738095Y-29942857D01*
X96785714Y-29847619D01*
X96833333Y-29800000D01*
X96928571Y-29752381D01*
X97166667Y-29752381D01*
X97309524Y-29800000D01*
X97642857Y-29752381D02*
X97880952Y-30752381D01*
X98071429Y-30038095D01*
X98261905Y-30752381D01*
X98500000Y-29752381D01*
X98642857Y-30847619D02*
X99404762Y-30847619D01*
X99642857Y-30752381D02*
X99642857Y-29752381D01*
X100023810Y-29752381D01*
X100119048Y-29800000D01*
X100166667Y-29847619D01*
X100214286Y-29942857D01*
X100214286Y-30085714D01*
X100166667Y-30180952D01*
X100119048Y-30228571D01*
X100023810Y-30276190D01*
X99642857Y-30276190D01*
X100642857Y-29752381D02*
X100642857Y-30561905D01*
X100690476Y-30657143D01*
X100738095Y-30704762D01*
X100833333Y-30752381D01*
X101023810Y-30752381D01*
X101119048Y-30704762D01*
X101166667Y-30657143D01*
X101214286Y-30561905D01*
X101214286Y-29752381D01*
X101642857Y-30704762D02*
X101785714Y-30752381D01*
X102023810Y-30752381D01*
X102119048Y-30704762D01*
X102166667Y-30657143D01*
X102214286Y-30561905D01*
X102214286Y-30466667D01*
X102166667Y-30371429D01*
X102119048Y-30323810D01*
X102023810Y-30276190D01*
X101833333Y-30228571D01*
X101738095Y-30180952D01*
X101690476Y-30133333D01*
X101642857Y-30038095D01*
X101642857Y-29942857D01*
X101690476Y-29847619D01*
X101738095Y-29800000D01*
X101833333Y-29752381D01*
X102071429Y-29752381D01*
X102214286Y-29800000D01*
X102642857Y-30752381D02*
X102642857Y-29752381D01*
X102642857Y-30228571D02*
X103214286Y-30228571D01*
X103214286Y-30752381D02*
X103214286Y-29752381D01*
X78238095Y-30704762D02*
X78380952Y-30752381D01*
X78619048Y-30752381D01*
X78714286Y-30704762D01*
X78761905Y-30657143D01*
X78809524Y-30561905D01*
X78809524Y-30466667D01*
X78761905Y-30371429D01*
X78714286Y-30323810D01*
X78619048Y-30276190D01*
X78428571Y-30228571D01*
X78333333Y-30180952D01*
X78285714Y-30133333D01*
X78238095Y-30038095D01*
X78238095Y-29942857D01*
X78285714Y-29847619D01*
X78333333Y-29800000D01*
X78428571Y-29752381D01*
X78666667Y-29752381D01*
X78809524Y-29800000D01*
X79142857Y-29752381D02*
X79380952Y-30752381D01*
X79571429Y-30038095D01*
X79761905Y-30752381D01*
X80000000Y-29752381D01*
X80142857Y-30847619D02*
X80904762Y-30847619D01*
X81142857Y-30752381D02*
X81142857Y-29752381D01*
X81523810Y-29752381D01*
X81619048Y-29800000D01*
X81666667Y-29847619D01*
X81714286Y-29942857D01*
X81714286Y-30085714D01*
X81666667Y-30180952D01*
X81619048Y-30228571D01*
X81523810Y-30276190D01*
X81142857Y-30276190D01*
X82142857Y-29752381D02*
X82142857Y-30561905D01*
X82190476Y-30657143D01*
X82238095Y-30704762D01*
X82333333Y-30752381D01*
X82523810Y-30752381D01*
X82619048Y-30704762D01*
X82666667Y-30657143D01*
X82714286Y-30561905D01*
X82714286Y-29752381D01*
X83142857Y-30704762D02*
X83285714Y-30752381D01*
X83523810Y-30752381D01*
X83619048Y-30704762D01*
X83666667Y-30657143D01*
X83714286Y-30561905D01*
X83714286Y-30466667D01*
X83666667Y-30371429D01*
X83619048Y-30323810D01*
X83523810Y-30276190D01*
X83333333Y-30228571D01*
X83238095Y-30180952D01*
X83190476Y-30133333D01*
X83142857Y-30038095D01*
X83142857Y-29942857D01*
X83190476Y-29847619D01*
X83238095Y-29800000D01*
X83333333Y-29752381D01*
X83571429Y-29752381D01*
X83714286Y-29800000D01*
X84142857Y-30752381D02*
X84142857Y-29752381D01*
X84142857Y-30228571D02*
X84714286Y-30228571D01*
X84714286Y-30752381D02*
X84714286Y-29752381D01*
X59738095Y-30704762D02*
X59880952Y-30752381D01*
X60119048Y-30752381D01*
X60214286Y-30704762D01*
X60261905Y-30657143D01*
X60309524Y-30561905D01*
X60309524Y-30466667D01*
X60261905Y-30371429D01*
X60214286Y-30323810D01*
X60119048Y-30276190D01*
X59928571Y-30228571D01*
X59833333Y-30180952D01*
X59785714Y-30133333D01*
X59738095Y-30038095D01*
X59738095Y-29942857D01*
X59785714Y-29847619D01*
X59833333Y-29800000D01*
X59928571Y-29752381D01*
X60166667Y-29752381D01*
X60309524Y-29800000D01*
X60642857Y-29752381D02*
X60880952Y-30752381D01*
X61071429Y-30038095D01*
X61261905Y-30752381D01*
X61500000Y-29752381D01*
X61642857Y-30847619D02*
X62404762Y-30847619D01*
X62642857Y-30752381D02*
X62642857Y-29752381D01*
X63023810Y-29752381D01*
X63119048Y-29800000D01*
X63166667Y-29847619D01*
X63214286Y-29942857D01*
X63214286Y-30085714D01*
X63166667Y-30180952D01*
X63119048Y-30228571D01*
X63023810Y-30276190D01*
X62642857Y-30276190D01*
X63642857Y-29752381D02*
X63642857Y-30561905D01*
X63690476Y-30657143D01*
X63738095Y-30704762D01*
X63833333Y-30752381D01*
X64023810Y-30752381D01*
X64119048Y-30704762D01*
X64166667Y-30657143D01*
X64214286Y-30561905D01*
X64214286Y-29752381D01*
X64642857Y-30704762D02*
X64785714Y-30752381D01*
X65023810Y-30752381D01*
X65119048Y-30704762D01*
X65166667Y-30657143D01*
X65214286Y-30561905D01*
X65214286Y-30466667D01*
X65166667Y-30371429D01*
X65119048Y-30323810D01*
X65023810Y-30276190D01*
X64833333Y-30228571D01*
X64738095Y-30180952D01*
X64690476Y-30133333D01*
X64642857Y-30038095D01*
X64642857Y-29942857D01*
X64690476Y-29847619D01*
X64738095Y-29800000D01*
X64833333Y-29752381D01*
X65071429Y-29752381D01*
X65214286Y-29800000D01*
X65642857Y-30752381D02*
X65642857Y-29752381D01*
X65642857Y-30228571D02*
X66214286Y-30228571D01*
X66214286Y-30752381D02*
X66214286Y-29752381D01*
X41238095Y-30704762D02*
X41380952Y-30752381D01*
X41619048Y-30752381D01*
X41714286Y-30704762D01*
X41761905Y-30657143D01*
X41809524Y-30561905D01*
X41809524Y-30466667D01*
X41761905Y-30371429D01*
X41714286Y-30323810D01*
X41619048Y-30276190D01*
X41428571Y-30228571D01*
X41333333Y-30180952D01*
X41285714Y-30133333D01*
X41238095Y-30038095D01*
X41238095Y-29942857D01*
X41285714Y-29847619D01*
X41333333Y-29800000D01*
X41428571Y-29752381D01*
X41666667Y-29752381D01*
X41809524Y-29800000D01*
X42142857Y-29752381D02*
X42380952Y-30752381D01*
X42571429Y-30038095D01*
X42761905Y-30752381D01*
X43000000Y-29752381D01*
X43142857Y-30847619D02*
X43904762Y-30847619D01*
X44142857Y-30752381D02*
X44142857Y-29752381D01*
X44523810Y-29752381D01*
X44619048Y-29800000D01*
X44666667Y-29847619D01*
X44714286Y-29942857D01*
X44714286Y-30085714D01*
X44666667Y-30180952D01*
X44619048Y-30228571D01*
X44523810Y-30276190D01*
X44142857Y-30276190D01*
X45142857Y-29752381D02*
X45142857Y-30561905D01*
X45190476Y-30657143D01*
X45238095Y-30704762D01*
X45333333Y-30752381D01*
X45523810Y-30752381D01*
X45619048Y-30704762D01*
X45666667Y-30657143D01*
X45714286Y-30561905D01*
X45714286Y-29752381D01*
X46142857Y-30704762D02*
X46285714Y-30752381D01*
X46523810Y-30752381D01*
X46619048Y-30704762D01*
X46666667Y-30657143D01*
X46714286Y-30561905D01*
X46714286Y-30466667D01*
X46666667Y-30371429D01*
X46619048Y-30323810D01*
X46523810Y-30276190D01*
X46333333Y-30228571D01*
X46238095Y-30180952D01*
X46190476Y-30133333D01*
X46142857Y-30038095D01*
X46142857Y-29942857D01*
X46190476Y-29847619D01*
X46238095Y-29800000D01*
X46333333Y-29752381D01*
X46571429Y-29752381D01*
X46714286Y-29800000D01*
X47142857Y-30752381D02*
X47142857Y-29752381D01*
X47142857Y-30228571D02*
X47714286Y-30228571D01*
X47714286Y-30752381D02*
X47714286Y-29752381D01*
X22738095Y-30704762D02*
X22880952Y-30752381D01*
X23119048Y-30752381D01*
X23214286Y-30704762D01*
X23261905Y-30657143D01*
X23309524Y-30561905D01*
X23309524Y-30466667D01*
X23261905Y-30371429D01*
X23214286Y-30323810D01*
X23119048Y-30276190D01*
X22928571Y-30228571D01*
X22833333Y-30180952D01*
X22785714Y-30133333D01*
X22738095Y-30038095D01*
X22738095Y-29942857D01*
X22785714Y-29847619D01*
X22833333Y-29800000D01*
X22928571Y-29752381D01*
X23166667Y-29752381D01*
X23309524Y-29800000D01*
X23642857Y-29752381D02*
X23880952Y-30752381D01*
X24071429Y-30038095D01*
X24261905Y-30752381D01*
X24500000Y-29752381D01*
X24642857Y-30847619D02*
X25404762Y-30847619D01*
X25642857Y-30752381D02*
X25642857Y-29752381D01*
X26023810Y-29752381D01*
X26119048Y-29800000D01*
X26166667Y-29847619D01*
X26214286Y-29942857D01*
X26214286Y-30085714D01*
X26166667Y-30180952D01*
X26119048Y-30228571D01*
X26023810Y-30276190D01*
X25642857Y-30276190D01*
X26642857Y-29752381D02*
X26642857Y-30561905D01*
X26690476Y-30657143D01*
X26738095Y-30704762D01*
X26833333Y-30752381D01*
X27023810Y-30752381D01*
X27119048Y-30704762D01*
X27166667Y-30657143D01*
X27214286Y-30561905D01*
X27214286Y-29752381D01*
X27642857Y-30704762D02*
X27785714Y-30752381D01*
X28023810Y-30752381D01*
X28119048Y-30704762D01*
X28166667Y-30657143D01*
X28214286Y-30561905D01*
X28214286Y-30466667D01*
X28166667Y-30371429D01*
X28119048Y-30323810D01*
X28023810Y-30276190D01*
X27833333Y-30228571D01*
X27738095Y-30180952D01*
X27690476Y-30133333D01*
X27642857Y-30038095D01*
X27642857Y-29942857D01*
X27690476Y-29847619D01*
X27738095Y-29800000D01*
X27833333Y-29752381D01*
X28071429Y-29752381D01*
X28214286Y-29800000D01*
X28642857Y-30752381D02*
X28642857Y-29752381D01*
X28642857Y-30228571D02*
X29214286Y-30228571D01*
X29214286Y-30752381D02*
X29214286Y-29752381D01*
X4238095Y-30704762D02*
X4380952Y-30752381D01*
X4619048Y-30752381D01*
X4714286Y-30704762D01*
X4761905Y-30657143D01*
X4809524Y-30561905D01*
X4809524Y-30466667D01*
X4761905Y-30371429D01*
X4714286Y-30323810D01*
X4619048Y-30276190D01*
X4428571Y-30228571D01*
X4333333Y-30180952D01*
X4285714Y-30133333D01*
X4238095Y-30038095D01*
X4238095Y-29942857D01*
X4285714Y-29847619D01*
X4333333Y-29800000D01*
X4428571Y-29752381D01*
X4666667Y-29752381D01*
X4809524Y-29800000D01*
X5142857Y-29752381D02*
X5380952Y-30752381D01*
X5571429Y-30038095D01*
X5761905Y-30752381D01*
X6000000Y-29752381D01*
X6142857Y-30847619D02*
X6904762Y-30847619D01*
X7142857Y-30752381D02*
X7142857Y-29752381D01*
X7523810Y-29752381D01*
X7619048Y-29800000D01*
X7666667Y-29847619D01*
X7714286Y-29942857D01*
X7714286Y-30085714D01*
X7666667Y-30180952D01*
X7619048Y-30228571D01*
X7523810Y-30276190D01*
X7142857Y-30276190D01*
X8142857Y-29752381D02*
X8142857Y-30561905D01*
X8190476Y-30657143D01*
X8238095Y-30704762D01*
X8333333Y-30752381D01*
X8523810Y-30752381D01*
X8619048Y-30704762D01*
X8666667Y-30657143D01*
X8714286Y-30561905D01*
X8714286Y-29752381D01*
X9142857Y-30704762D02*
X9285714Y-30752381D01*
X9523810Y-30752381D01*
X9619048Y-30704762D01*
X9666667Y-30657143D01*
X9714286Y-30561905D01*
X9714286Y-30466667D01*
X9666667Y-30371429D01*
X9619048Y-30323810D01*
X9523810Y-30276190D01*
X9333333Y-30228571D01*
X9238095Y-30180952D01*
X9190476Y-30133333D01*
X9142857Y-30038095D01*
X9142857Y-29942857D01*
X9190476Y-29847619D01*
X9238095Y-29800000D01*
X9333333Y-29752381D01*
X9571429Y-29752381D01*
X9714286Y-29800000D01*
X10142857Y-30752381D02*
X10142857Y-29752381D01*
X10142857Y-30228571D02*
X10714286Y-30228571D01*
X10714286Y-30752381D02*
X10714286Y-29752381D01*
X219938095Y-14904762D02*
X220080952Y-14952381D01*
X220319048Y-14952381D01*
X220414286Y-14904762D01*
X220461905Y-14857143D01*
X220509524Y-14761905D01*
X220509524Y-14666667D01*
X220461905Y-14571429D01*
X220414286Y-14523810D01*
X220319048Y-14476190D01*
X220128571Y-14428571D01*
X220033333Y-14380952D01*
X219985714Y-14333333D01*
X219938095Y-14238095D01*
X219938095Y-14142857D01*
X219985714Y-14047619D01*
X220033333Y-14000000D01*
X220128571Y-13952381D01*
X220366667Y-13952381D01*
X220509524Y-14000000D01*
X220842857Y-13952381D02*
X221080952Y-14952381D01*
X221271429Y-14238095D01*
X221461905Y-14952381D01*
X221700000Y-13952381D01*
X221842857Y-15047619D02*
X222604762Y-15047619D01*
X222842857Y-14952381D02*
X222842857Y-13952381D01*
X223223810Y-13952381D01*
X223319048Y-14000000D01*
X223366667Y-14047619D01*
X223414286Y-14142857D01*
X223414286Y-14285714D01*
X223366667Y-14380952D01*
X223319048Y-14428571D01*
X223223810Y-14476190D01*
X222842857Y-14476190D01*
X223842857Y-13952381D02*
X223842857Y-14761905D01*
X223890476Y-14857143D01*
X223938095Y-14904762D01*
X224033333Y-14952381D01*
X224223810Y-14952381D01*
X224319048Y-14904762D01*
X224366667Y-14857143D01*
X224414286Y-14761905D01*
X224414286Y-13952381D01*
X224842857Y-14904762D02*
X224985714Y-14952381D01*
X225223810Y-14952381D01*
X225319048Y-14904762D01*
X225366667Y-14857143D01*
X225414286Y-14761905D01*
X225414286Y-14666667D01*
X225366667Y-14571429D01*
X225319048Y-14523810D01*
X225223810Y-14476190D01*
X225033333Y-14428571D01*
X224938095Y-14380952D01*
X224890476Y-14333333D01*
X224842857Y-14238095D01*
X224842857Y-14142857D01*
X224890476Y-14047619D01*
X224938095Y-14000000D01*
X225033333Y-13952381D01*
X225271429Y-13952381D01*
X225414286Y-14000000D01*
X225842857Y-14952381D02*
X225842857Y-13952381D01*
X225842857Y-14428571D02*
X226414286Y-14428571D01*
X226414286Y-14952381D02*
X226414286Y-13952381D01*
X201438095Y-14904762D02*
X201580952Y-14952381D01*
X201819048Y-14952381D01*
X201914286Y-14904762D01*
X201961905Y-14857143D01*
X202009524Y-14761905D01*
X202009524Y-14666667D01*
X201961905Y-14571429D01*
X201914286Y-14523810D01*
X201819048Y-14476190D01*
X201628571Y-14428571D01*
X201533333Y-14380952D01*
X201485714Y-14333333D01*
X201438095Y-14238095D01*
X201438095Y-14142857D01*
X201485714Y-14047619D01*
X201533333Y-14000000D01*
X201628571Y-13952381D01*
X201866667Y-13952381D01*
X202009524Y-14000000D01*
X202342857Y-13952381D02*
X202580952Y-14952381D01*
X202771429Y-14238095D01*
X202961905Y-14952381D01*
X203200000Y-13952381D01*
X203342857Y-15047619D02*
X204104762Y-15047619D01*
X204342857Y-14952381D02*
X204342857Y-13952381D01*
X204723810Y-13952381D01*
X204819048Y-14000000D01*
X204866667Y-14047619D01*
X204914286Y-14142857D01*
X204914286Y-14285714D01*
X204866667Y-14380952D01*
X204819048Y-14428571D01*
X204723810Y-14476190D01*
X204342857Y-14476190D01*
X205342857Y-13952381D02*
X205342857Y-14761905D01*
X205390476Y-14857143D01*
X205438095Y-14904762D01*
X205533333Y-14952381D01*
X205723810Y-14952381D01*
X205819048Y-14904762D01*
X205866667Y-14857143D01*
X205914286Y-14761905D01*
X205914286Y-13952381D01*
X206342857Y-14904762D02*
X206485714Y-14952381D01*
X206723810Y-14952381D01*
X206819048Y-14904762D01*
X206866667Y-14857143D01*
X206914286Y-14761905D01*
X206914286Y-14666667D01*
X206866667Y-14571429D01*
X206819048Y-14523810D01*
X206723810Y-14476190D01*
X206533333Y-14428571D01*
X206438095Y-14380952D01*
X206390476Y-14333333D01*
X206342857Y-14238095D01*
X206342857Y-14142857D01*
X206390476Y-14047619D01*
X206438095Y-14000000D01*
X206533333Y-13952381D01*
X206771429Y-13952381D01*
X206914286Y-14000000D01*
X207342857Y-14952381D02*
X207342857Y-13952381D01*
X207342857Y-14428571D02*
X207914286Y-14428571D01*
X207914286Y-14952381D02*
X207914286Y-13952381D01*
X182938095Y-14904762D02*
X183080952Y-14952381D01*
X183319048Y-14952381D01*
X183414286Y-14904762D01*
X183461905Y-14857143D01*
X183509524Y-14761905D01*
X183509524Y-14666667D01*
X183461905Y-14571429D01*
X183414286Y-14523810D01*
X183319048Y-14476190D01*
X183128571Y-14428571D01*
X183033333Y-14380952D01*
X182985714Y-14333333D01*
X182938095Y-14238095D01*
X182938095Y-14142857D01*
X182985714Y-14047619D01*
X183033333Y-14000000D01*
X183128571Y-13952381D01*
X183366667Y-13952381D01*
X183509524Y-14000000D01*
X183842857Y-13952381D02*
X184080952Y-14952381D01*
X184271429Y-14238095D01*
X184461905Y-14952381D01*
X184700000Y-13952381D01*
X184842857Y-15047619D02*
X185604762Y-15047619D01*
X185842857Y-14952381D02*
X185842857Y-13952381D01*
X186223810Y-13952381D01*
X186319048Y-14000000D01*
X186366667Y-14047619D01*
X186414286Y-14142857D01*
X186414286Y-14285714D01*
X186366667Y-14380952D01*
X186319048Y-14428571D01*
X186223810Y-14476190D01*
X185842857Y-14476190D01*
X186842857Y-13952381D02*
X186842857Y-14761905D01*
X186890476Y-14857143D01*
X186938095Y-14904762D01*
X187033333Y-14952381D01*
X187223810Y-14952381D01*
X187319048Y-14904762D01*
X187366667Y-14857143D01*
X187414286Y-14761905D01*
X187414286Y-13952381D01*
X187842857Y-14904762D02*
X187985714Y-14952381D01*
X188223810Y-14952381D01*
X188319048Y-14904762D01*
X188366667Y-14857143D01*
X188414286Y-14761905D01*
X188414286Y-14666667D01*
X188366667Y-14571429D01*
X188319048Y-14523810D01*
X188223810Y-14476190D01*
X188033333Y-14428571D01*
X187938095Y-14380952D01*
X187890476Y-14333333D01*
X187842857Y-14238095D01*
X187842857Y-14142857D01*
X187890476Y-14047619D01*
X187938095Y-14000000D01*
X188033333Y-13952381D01*
X188271429Y-13952381D01*
X188414286Y-14000000D01*
X188842857Y-14952381D02*
X188842857Y-13952381D01*
X188842857Y-14428571D02*
X189414286Y-14428571D01*
X189414286Y-14952381D02*
X189414286Y-13952381D01*
X164438095Y-14904762D02*
X164580952Y-14952381D01*
X164819048Y-14952381D01*
X164914286Y-14904762D01*
X164961905Y-14857143D01*
X165009524Y-14761905D01*
X165009524Y-14666667D01*
X164961905Y-14571429D01*
X164914286Y-14523810D01*
X164819048Y-14476190D01*
X164628571Y-14428571D01*
X164533333Y-14380952D01*
X164485714Y-14333333D01*
X164438095Y-14238095D01*
X164438095Y-14142857D01*
X164485714Y-14047619D01*
X164533333Y-14000000D01*
X164628571Y-13952381D01*
X164866667Y-13952381D01*
X165009524Y-14000000D01*
X165342857Y-13952381D02*
X165580952Y-14952381D01*
X165771429Y-14238095D01*
X165961905Y-14952381D01*
X166200000Y-13952381D01*
X166342857Y-15047619D02*
X167104762Y-15047619D01*
X167342857Y-14952381D02*
X167342857Y-13952381D01*
X167723810Y-13952381D01*
X167819048Y-14000000D01*
X167866667Y-14047619D01*
X167914286Y-14142857D01*
X167914286Y-14285714D01*
X167866667Y-14380952D01*
X167819048Y-14428571D01*
X167723810Y-14476190D01*
X167342857Y-14476190D01*
X168342857Y-13952381D02*
X168342857Y-14761905D01*
X168390476Y-14857143D01*
X168438095Y-14904762D01*
X168533333Y-14952381D01*
X168723810Y-14952381D01*
X168819048Y-14904762D01*
X168866667Y-14857143D01*
X168914286Y-14761905D01*
X168914286Y-13952381D01*
X169342857Y-14904762D02*
X169485714Y-14952381D01*
X169723810Y-14952381D01*
X169819048Y-14904762D01*
X169866667Y-14857143D01*
X169914286Y-14761905D01*
X169914286Y-14666667D01*
X169866667Y-14571429D01*
X169819048Y-14523810D01*
X169723810Y-14476190D01*
X169533333Y-14428571D01*
X169438095Y-14380952D01*
X169390476Y-14333333D01*
X169342857Y-14238095D01*
X169342857Y-14142857D01*
X169390476Y-14047619D01*
X169438095Y-14000000D01*
X169533333Y-13952381D01*
X169771429Y-13952381D01*
X169914286Y-14000000D01*
X170342857Y-14952381D02*
X170342857Y-13952381D01*
X170342857Y-14428571D02*
X170914286Y-14428571D01*
X170914286Y-14952381D02*
X170914286Y-13952381D01*
X145938095Y-14904762D02*
X146080952Y-14952381D01*
X146319048Y-14952381D01*
X146414286Y-14904762D01*
X146461905Y-14857143D01*
X146509524Y-14761905D01*
X146509524Y-14666667D01*
X146461905Y-14571429D01*
X146414286Y-14523810D01*
X146319048Y-14476190D01*
X146128571Y-14428571D01*
X146033333Y-14380952D01*
X145985714Y-14333333D01*
X145938095Y-14238095D01*
X145938095Y-14142857D01*
X145985714Y-14047619D01*
X146033333Y-14000000D01*
X146128571Y-13952381D01*
X146366667Y-13952381D01*
X146509524Y-14000000D01*
X146842857Y-13952381D02*
X147080952Y-14952381D01*
X147271429Y-14238095D01*
X147461905Y-14952381D01*
X147700000Y-13952381D01*
X147842857Y-15047619D02*
X148604762Y-15047619D01*
X148842857Y-14952381D02*
X148842857Y-13952381D01*
X149223810Y-13952381D01*
X149319048Y-14000000D01*
X149366667Y-14047619D01*
X149414286Y-14142857D01*
X149414286Y-14285714D01*
X149366667Y-14380952D01*
X149319048Y-14428571D01*
X149223810Y-14476190D01*
X148842857Y-14476190D01*
X149842857Y-13952381D02*
X149842857Y-14761905D01*
X149890476Y-14857143D01*
X149938095Y-14904762D01*
X150033333Y-14952381D01*
X150223810Y-14952381D01*
X150319048Y-14904762D01*
X150366667Y-14857143D01*
X150414286Y-14761905D01*
X150414286Y-13952381D01*
X150842857Y-14904762D02*
X150985714Y-14952381D01*
X151223810Y-14952381D01*
X151319048Y-14904762D01*
X151366667Y-14857143D01*
X151414286Y-14761905D01*
X151414286Y-14666667D01*
X151366667Y-14571429D01*
X151319048Y-14523810D01*
X151223810Y-14476190D01*
X151033333Y-14428571D01*
X150938095Y-14380952D01*
X150890476Y-14333333D01*
X150842857Y-14238095D01*
X150842857Y-14142857D01*
X150890476Y-14047619D01*
X150938095Y-14000000D01*
X151033333Y-13952381D01*
X151271429Y-13952381D01*
X151414286Y-14000000D01*
X151842857Y-14952381D02*
X151842857Y-13952381D01*
X151842857Y-14428571D02*
X152414286Y-14428571D01*
X152414286Y-14952381D02*
X152414286Y-13952381D01*
X127438095Y-14904762D02*
X127580952Y-14952381D01*
X127819048Y-14952381D01*
X127914286Y-14904762D01*
X127961905Y-14857143D01*
X128009524Y-14761905D01*
X128009524Y-14666667D01*
X127961905Y-14571429D01*
X127914286Y-14523810D01*
X127819048Y-14476190D01*
X127628571Y-14428571D01*
X127533333Y-14380952D01*
X127485714Y-14333333D01*
X127438095Y-14238095D01*
X127438095Y-14142857D01*
X127485714Y-14047619D01*
X127533333Y-14000000D01*
X127628571Y-13952381D01*
X127866667Y-13952381D01*
X128009524Y-14000000D01*
X128342857Y-13952381D02*
X128580952Y-14952381D01*
X128771429Y-14238095D01*
X128961905Y-14952381D01*
X129200000Y-13952381D01*
X129342857Y-15047619D02*
X130104762Y-15047619D01*
X130342857Y-14952381D02*
X130342857Y-13952381D01*
X130723810Y-13952381D01*
X130819048Y-14000000D01*
X130866667Y-14047619D01*
X130914286Y-14142857D01*
X130914286Y-14285714D01*
X130866667Y-14380952D01*
X130819048Y-14428571D01*
X130723810Y-14476190D01*
X130342857Y-14476190D01*
X131342857Y-13952381D02*
X131342857Y-14761905D01*
X131390476Y-14857143D01*
X131438095Y-14904762D01*
X131533333Y-14952381D01*
X131723810Y-14952381D01*
X131819048Y-14904762D01*
X131866667Y-14857143D01*
X131914286Y-14761905D01*
X131914286Y-13952381D01*
X132342857Y-14904762D02*
X132485714Y-14952381D01*
X132723810Y-14952381D01*
X132819048Y-14904762D01*
X132866667Y-14857143D01*
X132914286Y-14761905D01*
X132914286Y-14666667D01*
X132866667Y-14571429D01*
X132819048Y-14523810D01*
X132723810Y-14476190D01*
X132533333Y-14428571D01*
X132438095Y-14380952D01*
X132390476Y-14333333D01*
X132342857Y-14238095D01*
X132342857Y-14142857D01*
X132390476Y-14047619D01*
X132438095Y-14000000D01*
X132533333Y-13952381D01*
X132771429Y-13952381D01*
X132914286Y-14000000D01*
X133342857Y-14952381D02*
X133342857Y-13952381D01*
X133342857Y-14428571D02*
X133914286Y-14428571D01*
X133914286Y-14952381D02*
X133914286Y-13952381D01*
X59738095Y-14904762D02*
X59880952Y-14952381D01*
X60119048Y-14952381D01*
X60214286Y-14904762D01*
X60261905Y-14857143D01*
X60309524Y-14761905D01*
X60309524Y-14666667D01*
X60261905Y-14571429D01*
X60214286Y-14523810D01*
X60119048Y-14476190D01*
X59928571Y-14428571D01*
X59833333Y-14380952D01*
X59785714Y-14333333D01*
X59738095Y-14238095D01*
X59738095Y-14142857D01*
X59785714Y-14047619D01*
X59833333Y-14000000D01*
X59928571Y-13952381D01*
X60166667Y-13952381D01*
X60309524Y-14000000D01*
X60642857Y-13952381D02*
X60880952Y-14952381D01*
X61071429Y-14238095D01*
X61261905Y-14952381D01*
X61500000Y-13952381D01*
X61642857Y-15047619D02*
X62404762Y-15047619D01*
X62642857Y-14952381D02*
X62642857Y-13952381D01*
X63023810Y-13952381D01*
X63119048Y-14000000D01*
X63166667Y-14047619D01*
X63214286Y-14142857D01*
X63214286Y-14285714D01*
X63166667Y-14380952D01*
X63119048Y-14428571D01*
X63023810Y-14476190D01*
X62642857Y-14476190D01*
X63642857Y-13952381D02*
X63642857Y-14761905D01*
X63690476Y-14857143D01*
X63738095Y-14904762D01*
X63833333Y-14952381D01*
X64023810Y-14952381D01*
X64119048Y-14904762D01*
X64166667Y-14857143D01*
X64214286Y-14761905D01*
X64214286Y-13952381D01*
X64642857Y-14904762D02*
X64785714Y-14952381D01*
X65023810Y-14952381D01*
X65119048Y-14904762D01*
X65166667Y-14857143D01*
X65214286Y-14761905D01*
X65214286Y-14666667D01*
X65166667Y-14571429D01*
X65119048Y-14523810D01*
X65023810Y-14476190D01*
X64833333Y-14428571D01*
X64738095Y-14380952D01*
X64690476Y-14333333D01*
X64642857Y-14238095D01*
X64642857Y-14142857D01*
X64690476Y-14047619D01*
X64738095Y-14000000D01*
X64833333Y-13952381D01*
X65071429Y-13952381D01*
X65214286Y-14000000D01*
X65642857Y-14952381D02*
X65642857Y-13952381D01*
X65642857Y-14428571D02*
X66214286Y-14428571D01*
X66214286Y-14952381D02*
X66214286Y-13952381D01*
X41238095Y-14904762D02*
X41380952Y-14952381D01*
X41619048Y-14952381D01*
X41714286Y-14904762D01*
X41761905Y-14857143D01*
X41809524Y-14761905D01*
X41809524Y-14666667D01*
X41761905Y-14571429D01*
X41714286Y-14523810D01*
X41619048Y-14476190D01*
X41428571Y-14428571D01*
X41333333Y-14380952D01*
X41285714Y-14333333D01*
X41238095Y-14238095D01*
X41238095Y-14142857D01*
X41285714Y-14047619D01*
X41333333Y-14000000D01*
X41428571Y-13952381D01*
X41666667Y-13952381D01*
X41809524Y-14000000D01*
X42142857Y-13952381D02*
X42380952Y-14952381D01*
X42571429Y-14238095D01*
X42761905Y-14952381D01*
X43000000Y-13952381D01*
X43142857Y-15047619D02*
X43904762Y-15047619D01*
X44142857Y-14952381D02*
X44142857Y-13952381D01*
X44523810Y-13952381D01*
X44619048Y-14000000D01*
X44666667Y-14047619D01*
X44714286Y-14142857D01*
X44714286Y-14285714D01*
X44666667Y-14380952D01*
X44619048Y-14428571D01*
X44523810Y-14476190D01*
X44142857Y-14476190D01*
X45142857Y-13952381D02*
X45142857Y-14761905D01*
X45190476Y-14857143D01*
X45238095Y-14904762D01*
X45333333Y-14952381D01*
X45523810Y-14952381D01*
X45619048Y-14904762D01*
X45666667Y-14857143D01*
X45714286Y-14761905D01*
X45714286Y-13952381D01*
X46142857Y-14904762D02*
X46285714Y-14952381D01*
X46523810Y-14952381D01*
X46619048Y-14904762D01*
X46666667Y-14857143D01*
X46714286Y-14761905D01*
X46714286Y-14666667D01*
X46666667Y-14571429D01*
X46619048Y-14523810D01*
X46523810Y-14476190D01*
X46333333Y-14428571D01*
X46238095Y-14380952D01*
X46190476Y-14333333D01*
X46142857Y-14238095D01*
X46142857Y-14142857D01*
X46190476Y-14047619D01*
X46238095Y-14000000D01*
X46333333Y-13952381D01*
X46571429Y-13952381D01*
X46714286Y-14000000D01*
X47142857Y-14952381D02*
X47142857Y-13952381D01*
X47142857Y-14428571D02*
X47714286Y-14428571D01*
X47714286Y-14952381D02*
X47714286Y-13952381D01*
X22738095Y-14904762D02*
X22880952Y-14952381D01*
X23119048Y-14952381D01*
X23214286Y-14904762D01*
X23261905Y-14857143D01*
X23309524Y-14761905D01*
X23309524Y-14666667D01*
X23261905Y-14571429D01*
X23214286Y-14523810D01*
X23119048Y-14476190D01*
X22928571Y-14428571D01*
X22833333Y-14380952D01*
X22785714Y-14333333D01*
X22738095Y-14238095D01*
X22738095Y-14142857D01*
X22785714Y-14047619D01*
X22833333Y-14000000D01*
X22928571Y-13952381D01*
X23166667Y-13952381D01*
X23309524Y-14000000D01*
X23642857Y-13952381D02*
X23880952Y-14952381D01*
X24071429Y-14238095D01*
X24261905Y-14952381D01*
X24500000Y-13952381D01*
X24642857Y-15047619D02*
X25404762Y-15047619D01*
X25642857Y-14952381D02*
X25642857Y-13952381D01*
X26023810Y-13952381D01*
X26119048Y-14000000D01*
X26166667Y-14047619D01*
X26214286Y-14142857D01*
X26214286Y-14285714D01*
X26166667Y-14380952D01*
X26119048Y-14428571D01*
X26023810Y-14476190D01*
X25642857Y-14476190D01*
X26642857Y-13952381D02*
X26642857Y-14761905D01*
X26690476Y-14857143D01*
X26738095Y-14904762D01*
X26833333Y-14952381D01*
X27023810Y-14952381D01*
X27119048Y-14904762D01*
X27166667Y-14857143D01*
X27214286Y-14761905D01*
X27214286Y-13952381D01*
X27642857Y-14904762D02*
X27785714Y-14952381D01*
X28023810Y-14952381D01*
X28119048Y-14904762D01*
X28166667Y-14857143D01*
X28214286Y-14761905D01*
X28214286Y-14666667D01*
X28166667Y-14571429D01*
X28119048Y-14523810D01*
X28023810Y-14476190D01*
X27833333Y-14428571D01*
X27738095Y-14380952D01*
X27690476Y-14333333D01*
X27642857Y-14238095D01*
X27642857Y-14142857D01*
X27690476Y-14047619D01*
X27738095Y-14000000D01*
X27833333Y-13952381D01*
X28071429Y-13952381D01*
X28214286Y-14000000D01*
X28642857Y-14952381D02*
X28642857Y-13952381D01*
X28642857Y-14428571D02*
X29214286Y-14428571D01*
X29214286Y-14952381D02*
X29214286Y-13952381D01*
X4238095Y-14904762D02*
X4380952Y-14952381D01*
X4619048Y-14952381D01*
X4714286Y-14904762D01*
X4761905Y-14857143D01*
X4809524Y-14761905D01*
X4809524Y-14666667D01*
X4761905Y-14571429D01*
X4714286Y-14523810D01*
X4619048Y-14476190D01*
X4428571Y-14428571D01*
X4333333Y-14380952D01*
X4285714Y-14333333D01*
X4238095Y-14238095D01*
X4238095Y-14142857D01*
X4285714Y-14047619D01*
X4333333Y-14000000D01*
X4428571Y-13952381D01*
X4666667Y-13952381D01*
X4809524Y-14000000D01*
X5142857Y-13952381D02*
X5380952Y-14952381D01*
X5571429Y-14238095D01*
X5761905Y-14952381D01*
X6000000Y-13952381D01*
X6142857Y-15047619D02*
X6904762Y-15047619D01*
X7142857Y-14952381D02*
X7142857Y-13952381D01*
X7523810Y-13952381D01*
X7619048Y-14000000D01*
X7666667Y-14047619D01*
X7714286Y-14142857D01*
X7714286Y-14285714D01*
X7666667Y-14380952D01*
X7619048Y-14428571D01*
X7523810Y-14476190D01*
X7142857Y-14476190D01*
X8142857Y-13952381D02*
X8142857Y-14761905D01*
X8190476Y-14857143D01*
X8238095Y-14904762D01*
X8333333Y-14952381D01*
X8523810Y-14952381D01*
X8619048Y-14904762D01*
X8666667Y-14857143D01*
X8714286Y-14761905D01*
X8714286Y-13952381D01*
X9142857Y-14904762D02*
X9285714Y-14952381D01*
X9523810Y-14952381D01*
X9619048Y-14904762D01*
X9666667Y-14857143D01*
X9714286Y-14761905D01*
X9714286Y-14666667D01*
X9666667Y-14571429D01*
X9619048Y-14523810D01*
X9523810Y-14476190D01*
X9333333Y-14428571D01*
X9238095Y-14380952D01*
X9190476Y-14333333D01*
X9142857Y-14238095D01*
X9142857Y-14142857D01*
X9190476Y-14047619D01*
X9238095Y-14000000D01*
X9333333Y-13952381D01*
X9571429Y-13952381D01*
X9714286Y-14000000D01*
X10142857Y-14952381D02*
X10142857Y-13952381D01*
X10142857Y-14428571D02*
X10714286Y-14428571D01*
X10714286Y-14952381D02*
X10714286Y-13952381D01*
X219938095Y895238D02*
X220080952Y847619D01*
X220319048Y847619D01*
X220414286Y895238D01*
X220461905Y942857D01*
X220509524Y1038095D01*
X220509524Y1133333D01*
X220461905Y1228571D01*
X220414286Y1276190D01*
X220319048Y1323810D01*
X220128571Y1371429D01*
X220033333Y1419048D01*
X219985714Y1466667D01*
X219938095Y1561905D01*
X219938095Y1657143D01*
X219985714Y1752381D01*
X220033333Y1800000D01*
X220128571Y1847619D01*
X220366667Y1847619D01*
X220509524Y1800000D01*
X220842857Y1847619D02*
X221080952Y847619D01*
X221271429Y1561905D01*
X221461905Y847619D01*
X221700000Y1847619D01*
X221842857Y752381D02*
X222604762Y752381D01*
X222842857Y847619D02*
X222842857Y1847619D01*
X223223810Y1847619D01*
X223319048Y1800000D01*
X223366667Y1752381D01*
X223414286Y1657143D01*
X223414286Y1514286D01*
X223366667Y1419048D01*
X223319048Y1371429D01*
X223223810Y1323810D01*
X222842857Y1323810D01*
X223842857Y1847619D02*
X223842857Y1038095D01*
X223890476Y942857D01*
X223938095Y895238D01*
X224033333Y847619D01*
X224223810Y847619D01*
X224319048Y895238D01*
X224366667Y942857D01*
X224414286Y1038095D01*
X224414286Y1847619D01*
X224842857Y895238D02*
X224985714Y847619D01*
X225223810Y847619D01*
X225319048Y895238D01*
X225366667Y942857D01*
X225414286Y1038095D01*
X225414286Y1133333D01*
X225366667Y1228571D01*
X225319048Y1276190D01*
X225223810Y1323810D01*
X225033333Y1371429D01*
X224938095Y1419048D01*
X224890476Y1466667D01*
X224842857Y1561905D01*
X224842857Y1657143D01*
X224890476Y1752381D01*
X224938095Y1800000D01*
X225033333Y1847619D01*
X225271429Y1847619D01*
X225414286Y1800000D01*
X225842857Y847619D02*
X225842857Y1847619D01*
X225842857Y1371429D02*
X226414286Y1371429D01*
X226414286Y847619D02*
X226414286Y1847619D01*
X201438095Y895238D02*
X201580952Y847619D01*
X201819048Y847619D01*
X201914286Y895238D01*
X201961905Y942857D01*
X202009524Y1038095D01*
X202009524Y1133333D01*
X201961905Y1228571D01*
X201914286Y1276190D01*
X201819048Y1323810D01*
X201628571Y1371429D01*
X201533333Y1419048D01*
X201485714Y1466667D01*
X201438095Y1561905D01*
X201438095Y1657143D01*
X201485714Y1752381D01*
X201533333Y1800000D01*
X201628571Y1847619D01*
X201866667Y1847619D01*
X202009524Y1800000D01*
X202342857Y1847619D02*
X202580952Y847619D01*
X202771429Y1561905D01*
X202961905Y847619D01*
X203200000Y1847619D01*
X203342857Y752381D02*
X204104762Y752381D01*
X204342857Y847619D02*
X204342857Y1847619D01*
X204723810Y1847619D01*
X204819048Y1800000D01*
X204866667Y1752381D01*
X204914286Y1657143D01*
X204914286Y1514286D01*
X204866667Y1419048D01*
X204819048Y1371429D01*
X204723810Y1323810D01*
X204342857Y1323810D01*
X205342857Y1847619D02*
X205342857Y1038095D01*
X205390476Y942857D01*
X205438095Y895238D01*
X205533333Y847619D01*
X205723810Y847619D01*
X205819048Y895238D01*
X205866667Y942857D01*
X205914286Y1038095D01*
X205914286Y1847619D01*
X206342857Y895238D02*
X206485714Y847619D01*
X206723810Y847619D01*
X206819048Y895238D01*
X206866667Y942857D01*
X206914286Y1038095D01*
X206914286Y1133333D01*
X206866667Y1228571D01*
X206819048Y1276190D01*
X206723810Y1323810D01*
X206533333Y1371429D01*
X206438095Y1419048D01*
X206390476Y1466667D01*
X206342857Y1561905D01*
X206342857Y1657143D01*
X206390476Y1752381D01*
X206438095Y1800000D01*
X206533333Y1847619D01*
X206771429Y1847619D01*
X206914286Y1800000D01*
X207342857Y847619D02*
X207342857Y1847619D01*
X207342857Y1371429D02*
X207914286Y1371429D01*
X207914286Y847619D02*
X207914286Y1847619D01*
X182938095Y895238D02*
X183080952Y847619D01*
X183319048Y847619D01*
X183414286Y895238D01*
X183461905Y942857D01*
X183509524Y1038095D01*
X183509524Y1133333D01*
X183461905Y1228571D01*
X183414286Y1276190D01*
X183319048Y1323810D01*
X183128571Y1371429D01*
X183033333Y1419048D01*
X182985714Y1466667D01*
X182938095Y1561905D01*
X182938095Y1657143D01*
X182985714Y1752381D01*
X183033333Y1800000D01*
X183128571Y1847619D01*
X183366667Y1847619D01*
X183509524Y1800000D01*
X183842857Y1847619D02*
X184080952Y847619D01*
X184271429Y1561905D01*
X184461905Y847619D01*
X184700000Y1847619D01*
X184842857Y752381D02*
X185604762Y752381D01*
X185842857Y847619D02*
X185842857Y1847619D01*
X186223810Y1847619D01*
X186319048Y1800000D01*
X186366667Y1752381D01*
X186414286Y1657143D01*
X186414286Y1514286D01*
X186366667Y1419048D01*
X186319048Y1371429D01*
X186223810Y1323810D01*
X185842857Y1323810D01*
X186842857Y1847619D02*
X186842857Y1038095D01*
X186890476Y942857D01*
X186938095Y895238D01*
X187033333Y847619D01*
X187223810Y847619D01*
X187319048Y895238D01*
X187366667Y942857D01*
X187414286Y1038095D01*
X187414286Y1847619D01*
X187842857Y895238D02*
X187985714Y847619D01*
X188223810Y847619D01*
X188319048Y895238D01*
X188366667Y942857D01*
X188414286Y1038095D01*
X188414286Y1133333D01*
X188366667Y1228571D01*
X188319048Y1276190D01*
X188223810Y1323810D01*
X188033333Y1371429D01*
X187938095Y1419048D01*
X187890476Y1466667D01*
X187842857Y1561905D01*
X187842857Y1657143D01*
X187890476Y1752381D01*
X187938095Y1800000D01*
X188033333Y1847619D01*
X188271429Y1847619D01*
X188414286Y1800000D01*
X188842857Y847619D02*
X188842857Y1847619D01*
X188842857Y1371429D02*
X189414286Y1371429D01*
X189414286Y847619D02*
X189414286Y1847619D01*
X164438095Y895238D02*
X164580952Y847619D01*
X164819048Y847619D01*
X164914286Y895238D01*
X164961905Y942857D01*
X165009524Y1038095D01*
X165009524Y1133333D01*
X164961905Y1228571D01*
X164914286Y1276190D01*
X164819048Y1323810D01*
X164628571Y1371429D01*
X164533333Y1419048D01*
X164485714Y1466667D01*
X164438095Y1561905D01*
X164438095Y1657143D01*
X164485714Y1752381D01*
X164533333Y1800000D01*
X164628571Y1847619D01*
X164866667Y1847619D01*
X165009524Y1800000D01*
X165342857Y1847619D02*
X165580952Y847619D01*
X165771429Y1561905D01*
X165961905Y847619D01*
X166200000Y1847619D01*
X166342857Y752381D02*
X167104762Y752381D01*
X167342857Y847619D02*
X167342857Y1847619D01*
X167723810Y1847619D01*
X167819048Y1800000D01*
X167866667Y1752381D01*
X167914286Y1657143D01*
X167914286Y1514286D01*
X167866667Y1419048D01*
X167819048Y1371429D01*
X167723810Y1323810D01*
X167342857Y1323810D01*
X168342857Y1847619D02*
X168342857Y1038095D01*
X168390476Y942857D01*
X168438095Y895238D01*
X168533333Y847619D01*
X168723810Y847619D01*
X168819048Y895238D01*
X168866667Y942857D01*
X168914286Y1038095D01*
X168914286Y1847619D01*
X169342857Y895238D02*
X169485714Y847619D01*
X169723810Y847619D01*
X169819048Y895238D01*
X169866667Y942857D01*
X169914286Y1038095D01*
X169914286Y1133333D01*
X169866667Y1228571D01*
X169819048Y1276190D01*
X169723810Y1323810D01*
X169533333Y1371429D01*
X169438095Y1419048D01*
X169390476Y1466667D01*
X169342857Y1561905D01*
X169342857Y1657143D01*
X169390476Y1752381D01*
X169438095Y1800000D01*
X169533333Y1847619D01*
X169771429Y1847619D01*
X169914286Y1800000D01*
X170342857Y847619D02*
X170342857Y1847619D01*
X170342857Y1371429D02*
X170914286Y1371429D01*
X170914286Y847619D02*
X170914286Y1847619D01*
X145938095Y895238D02*
X146080952Y847619D01*
X146319048Y847619D01*
X146414286Y895238D01*
X146461905Y942857D01*
X146509524Y1038095D01*
X146509524Y1133333D01*
X146461905Y1228571D01*
X146414286Y1276190D01*
X146319048Y1323810D01*
X146128571Y1371429D01*
X146033333Y1419048D01*
X145985714Y1466667D01*
X145938095Y1561905D01*
X145938095Y1657143D01*
X145985714Y1752381D01*
X146033333Y1800000D01*
X146128571Y1847619D01*
X146366667Y1847619D01*
X146509524Y1800000D01*
X146842857Y1847619D02*
X147080952Y847619D01*
X147271429Y1561905D01*
X147461905Y847619D01*
X147700000Y1847619D01*
X147842857Y752381D02*
X148604762Y752381D01*
X148842857Y847619D02*
X148842857Y1847619D01*
X149223810Y1847619D01*
X149319048Y1800000D01*
X149366667Y1752381D01*
X149414286Y1657143D01*
X149414286Y1514286D01*
X149366667Y1419048D01*
X149319048Y1371429D01*
X149223810Y1323810D01*
X148842857Y1323810D01*
X149842857Y1847619D02*
X149842857Y1038095D01*
X149890476Y942857D01*
X149938095Y895238D01*
X150033333Y847619D01*
X150223810Y847619D01*
X150319048Y895238D01*
X150366667Y942857D01*
X150414286Y1038095D01*
X150414286Y1847619D01*
X150842857Y895238D02*
X150985714Y847619D01*
X151223810Y847619D01*
X151319048Y895238D01*
X151366667Y942857D01*
X151414286Y1038095D01*
X151414286Y1133333D01*
X151366667Y1228571D01*
X151319048Y1276190D01*
X151223810Y1323810D01*
X151033333Y1371429D01*
X150938095Y1419048D01*
X150890476Y1466667D01*
X150842857Y1561905D01*
X150842857Y1657143D01*
X150890476Y1752381D01*
X150938095Y1800000D01*
X151033333Y1847619D01*
X151271429Y1847619D01*
X151414286Y1800000D01*
X151842857Y847619D02*
X151842857Y1847619D01*
X151842857Y1371429D02*
X152414286Y1371429D01*
X152414286Y847619D02*
X152414286Y1847619D01*
X59738095Y895238D02*
X59880952Y847619D01*
X60119048Y847619D01*
X60214286Y895238D01*
X60261905Y942857D01*
X60309524Y1038095D01*
X60309524Y1133333D01*
X60261905Y1228571D01*
X60214286Y1276190D01*
X60119048Y1323810D01*
X59928571Y1371429D01*
X59833333Y1419048D01*
X59785714Y1466667D01*
X59738095Y1561905D01*
X59738095Y1657143D01*
X59785714Y1752381D01*
X59833333Y1800000D01*
X59928571Y1847619D01*
X60166667Y1847619D01*
X60309524Y1800000D01*
X60642857Y1847619D02*
X60880952Y847619D01*
X61071429Y1561905D01*
X61261905Y847619D01*
X61500000Y1847619D01*
X61642857Y752381D02*
X62404762Y752381D01*
X62642857Y847619D02*
X62642857Y1847619D01*
X63023810Y1847619D01*
X63119048Y1800000D01*
X63166667Y1752381D01*
X63214286Y1657143D01*
X63214286Y1514286D01*
X63166667Y1419048D01*
X63119048Y1371429D01*
X63023810Y1323810D01*
X62642857Y1323810D01*
X63642857Y1847619D02*
X63642857Y1038095D01*
X63690476Y942857D01*
X63738095Y895238D01*
X63833333Y847619D01*
X64023810Y847619D01*
X64119048Y895238D01*
X64166667Y942857D01*
X64214286Y1038095D01*
X64214286Y1847619D01*
X64642857Y895238D02*
X64785714Y847619D01*
X65023810Y847619D01*
X65119048Y895238D01*
X65166667Y942857D01*
X65214286Y1038095D01*
X65214286Y1133333D01*
X65166667Y1228571D01*
X65119048Y1276190D01*
X65023810Y1323810D01*
X64833333Y1371429D01*
X64738095Y1419048D01*
X64690476Y1466667D01*
X64642857Y1561905D01*
X64642857Y1657143D01*
X64690476Y1752381D01*
X64738095Y1800000D01*
X64833333Y1847619D01*
X65071429Y1847619D01*
X65214286Y1800000D01*
X65642857Y847619D02*
X65642857Y1847619D01*
X65642857Y1371429D02*
X66214286Y1371429D01*
X66214286Y847619D02*
X66214286Y1847619D01*
X22738095Y895238D02*
X22880952Y847619D01*
X23119048Y847619D01*
X23214286Y895238D01*
X23261905Y942857D01*
X23309524Y1038095D01*
X23309524Y1133333D01*
X23261905Y1228571D01*
X23214286Y1276190D01*
X23119048Y1323810D01*
X22928571Y1371429D01*
X22833333Y1419048D01*
X22785714Y1466667D01*
X22738095Y1561905D01*
X22738095Y1657143D01*
X22785714Y1752381D01*
X22833333Y1800000D01*
X22928571Y1847619D01*
X23166667Y1847619D01*
X23309524Y1800000D01*
X23642857Y1847619D02*
X23880952Y847619D01*
X24071429Y1561905D01*
X24261905Y847619D01*
X24500000Y1847619D01*
X24642857Y752381D02*
X25404762Y752381D01*
X25642857Y847619D02*
X25642857Y1847619D01*
X26023810Y1847619D01*
X26119048Y1800000D01*
X26166667Y1752381D01*
X26214286Y1657143D01*
X26214286Y1514286D01*
X26166667Y1419048D01*
X26119048Y1371429D01*
X26023810Y1323810D01*
X25642857Y1323810D01*
X26642857Y1847619D02*
X26642857Y1038095D01*
X26690476Y942857D01*
X26738095Y895238D01*
X26833333Y847619D01*
X27023810Y847619D01*
X27119048Y895238D01*
X27166667Y942857D01*
X27214286Y1038095D01*
X27214286Y1847619D01*
X27642857Y895238D02*
X27785714Y847619D01*
X28023810Y847619D01*
X28119048Y895238D01*
X28166667Y942857D01*
X28214286Y1038095D01*
X28214286Y1133333D01*
X28166667Y1228571D01*
X28119048Y1276190D01*
X28023810Y1323810D01*
X27833333Y1371429D01*
X27738095Y1419048D01*
X27690476Y1466667D01*
X27642857Y1561905D01*
X27642857Y1657143D01*
X27690476Y1752381D01*
X27738095Y1800000D01*
X27833333Y1847619D01*
X28071429Y1847619D01*
X28214286Y1800000D01*
X28642857Y847619D02*
X28642857Y1847619D01*
X28642857Y1371429D02*
X29214286Y1371429D01*
X29214286Y847619D02*
X29214286Y1847619D01*
M02*
