M48
;DRILL file {KiCad 4.0.5} date Saturday, July 01, 2017 'AMt' 12:52:17 AM
;FORMAT={-:-/ absolute / metric / decimal}
FMAT,2
METRIC,TZ
T1C0.400
T2C0.650
T3C0.825
T4C0.900
T5C1.016
T6C1.500
T7C1.600
%
G90
G05
M71
T1
X48.58Y1.16
X51.6Y-2.16
X55.57Y-0.08
X56.53Y-10.25
X61.71Y-12.46
X61.88Y1.34
X62.45Y-8.81
X62.83Y-11.22
X63.09Y-16.67
X64.294Y-12.584
X64.3Y-3.77
X68.06Y-16.73
X68.28Y-10.69
X69.01Y-3.27
X69.057Y-16.843
X69.1Y-8.02
X69.7Y-2.71
X69.9Y-21.69
X71.62Y-28.375
X71.623Y-18.39
X71.64Y-27.125
X73.3Y-23.08
X74.53Y-21.69
X75.12Y-7.18
X76.66Y-2.33
X76.99Y-8.91
X77.41Y-10.13
X81.37Y-11.3
X81.8Y-3.3
X82.083Y-18.983
X82.45Y-9.2
X85.46Y-12.875
X87.01Y-45.59
X92.82Y-44.94
X93.47Y-0.8
X96.69Y-49.01
X96.91Y-47.71
X104.55Y-36.23
X104.61Y-37.21
X104.617Y-38.087
X148.93Y-48.77
X149.7Y-47.96
X150.55Y-47.13
X151.325Y-46.36
X153.7Y-47.16
X153.7Y-47.96
X153.7Y-48.76
X153.729Y-46.361
T4
X99.71Y-48.335
X99.71Y-50.875
X99.71Y-53.415
X99.71Y-55.955
X99.71Y-58.495
X102.25Y-49.605
X102.25Y-52.145
X102.25Y-54.685
X102.25Y-57.225
X102.25Y-59.765
X128.95Y-48.335
X128.95Y-50.875
X128.95Y-53.415
X128.95Y-55.955
X128.95Y-58.495
X131.49Y-49.605
X131.49Y-52.145
X131.49Y-54.685
X131.49Y-57.225
X131.49Y-59.765
T5
X69.64Y3.71
X69.64Y1.17
X72.18Y3.71
X72.18Y1.17
X74.72Y3.71
X74.72Y1.17
T6
X5.25Y-2.4
X5.25Y-18.2
X5.25Y-34.
X10.25Y-1.9
X10.25Y-17.7
X10.25Y-33.5
X23.75Y-2.4
X23.75Y-18.2
X23.75Y-34.
X28.75Y-1.9
X28.75Y-17.7
X28.75Y-33.5
X42.25Y-2.4
X42.25Y-18.2
X42.25Y-34.
X47.25Y-1.9
X47.25Y-17.7
X47.25Y-33.5
X60.75Y-2.4
X60.75Y-18.2
X60.75Y-34.
X65.75Y-1.9
X65.75Y-17.7
X65.75Y-33.5
X70.083Y-58.8
X75.083Y-58.3
X79.25Y-2.4
X79.25Y-18.2
X79.25Y-34.
X84.25Y-1.9
X84.25Y-17.7
X84.25Y-33.5
X88.583Y-58.8
X93.583Y-58.3
X97.75Y-2.4
X97.75Y-18.2
X97.75Y-34.
X102.75Y-1.9
X102.75Y-17.7
X102.75Y-33.5
X128.45Y-2.4
X128.45Y-18.2
X128.45Y-34.
X133.45Y-1.9
X133.45Y-17.7
X133.45Y-33.5
X137.617Y-58.8
X142.617Y-58.3
X146.95Y-2.4
X146.95Y-18.2
X146.95Y-34.
X151.95Y-1.9
X151.95Y-17.7
X151.95Y-33.5
X156.117Y-58.8
X161.117Y-58.3
X165.45Y-2.4
X165.45Y-18.2
X165.45Y-34.
X170.45Y-1.9
X170.45Y-17.7
X170.45Y-33.5
X183.95Y-2.4
X183.95Y-18.2
X183.95Y-34.
X188.95Y-1.9
X188.95Y-17.7
X188.95Y-33.5
X202.45Y-2.4
X202.45Y-18.2
X202.45Y-34.
X207.45Y-1.9
X207.45Y-17.7
X207.45Y-33.5
X220.95Y-2.4
X220.95Y-18.2
X220.95Y-34.
X225.95Y-1.9
X225.95Y-17.7
X225.95Y-33.5
T7
X105.55Y-46.275
X105.55Y-61.825
X125.65Y-46.275
X125.65Y-61.825
T2
X52.185Y1.35G85X52.185Y1.15
G05
X57.035Y1.35G85X57.035Y1.15
G05
T3
X51.097Y4.587G85X51.097Y3.912
G05
X58.122Y4.587G85X58.122Y3.912
G05
T0
M30
