G04 #@! TF.FileFunction,Paste,Bot*
%FSLAX46Y46*%
G04 Gerber Fmt 4.6, Leading zero omitted, Abs format (unit mm)*
G04 Created by KiCad (PCBNEW 4.0.5) date Saturday, July 01, 2017 'AMt' 12:52:34 AM*
%MOMM*%
%LPD*%
G01*
G04 APERTURE LIST*
%ADD10C,0.100000*%
%ADD11R,1.000000X0.400000*%
%ADD12R,1.150000X1.400000*%
%ADD13R,1.300000X1.550000*%
%ADD14R,0.800000X0.750000*%
%ADD15R,1.699260X1.300480*%
%ADD16R,0.500000X0.900000*%
%ADD17R,0.600000X0.500000*%
%ADD18R,0.500000X0.600000*%
%ADD19R,1.500000X3.200000*%
%ADD20R,0.900000X0.500000*%
%ADD21R,0.400000X1.350000*%
%ADD22R,1.800000X1.900000*%
G04 APERTURE END LIST*
D10*
D11*
X55400000Y-3100000D03*
X53100000Y-3100000D03*
X55400000Y-2150000D03*
X53100000Y-2150000D03*
X55400000Y-1200000D03*
X53100000Y-1200000D03*
D12*
X85000000Y-7150000D03*
X83400000Y-7150000D03*
X83400000Y-4950000D03*
X85000000Y-4950000D03*
D13*
X88970000Y3515000D03*
X93470000Y3515000D03*
X88970000Y-4435000D03*
X93470000Y-4435000D03*
D14*
X59950000Y-8800000D03*
X61450000Y-8800000D03*
X62000000Y-4850000D03*
X63500000Y-4850000D03*
X65090000Y-4850000D03*
X66590000Y-4850000D03*
D15*
X5100000Y-12050060D03*
X5100000Y-8549940D03*
X19500000Y-12050060D03*
X19500000Y-8549940D03*
X38000000Y-12050060D03*
X38000000Y-8549940D03*
X55100000Y-13750060D03*
X55100000Y-10249940D03*
X88400000Y-11950060D03*
X88400000Y-8449940D03*
X93500000Y-11950060D03*
X93500000Y-8449940D03*
X124300000Y-11900000D03*
X124300000Y-8399880D03*
X142800000Y-11950060D03*
X142800000Y-8449940D03*
X161300000Y-11950060D03*
X161300000Y-8449940D03*
X179800000Y-11850060D03*
X179800000Y-8349940D03*
X198200000Y-11950060D03*
X198200000Y-8449940D03*
X216800000Y-11950060D03*
X216800000Y-8449940D03*
X5100000Y-27750060D03*
X5100000Y-24249940D03*
X19600000Y-27750060D03*
X19600000Y-24249940D03*
X38100000Y-27650060D03*
X38100000Y-24149940D03*
X56600000Y-27750060D03*
X56600000Y-24249940D03*
X75100000Y-27750060D03*
X75100000Y-24249940D03*
X93600000Y-27650060D03*
X93600000Y-24149940D03*
X124300000Y-27650060D03*
X124300000Y-24149940D03*
X142800000Y-27650060D03*
X142800000Y-24149940D03*
X161380000Y-27650000D03*
X161380000Y-24149880D03*
X179800000Y-27650060D03*
X179800000Y-24149940D03*
X198300000Y-27650060D03*
X198300000Y-24149940D03*
X216800000Y-27650060D03*
X216800000Y-24149940D03*
X5200000Y-43450060D03*
X5200000Y-39949940D03*
X19600000Y-43450060D03*
X19600000Y-39949940D03*
X38100000Y-43550060D03*
X38100000Y-40049940D03*
X56600000Y-43450060D03*
X56600000Y-39949940D03*
X75100000Y-43450060D03*
X75100000Y-39949940D03*
X93600000Y-40350060D03*
X93600000Y-36849940D03*
X124300000Y-37450060D03*
X124300000Y-33949940D03*
X142800000Y-37450060D03*
X142800000Y-33949940D03*
X161300000Y-37450060D03*
X161300000Y-33949940D03*
X179800000Y-37450060D03*
X179800000Y-33949940D03*
X198300000Y-37450060D03*
X198300000Y-33949940D03*
X216800000Y-37450060D03*
X216800000Y-33949940D03*
X67000000Y-46349940D03*
X67000000Y-49850060D03*
X85500000Y-46249940D03*
X85500000Y-49750060D03*
X137620000Y-52099880D03*
X137620000Y-55600000D03*
X156110000Y-52089940D03*
X156110000Y-55590060D03*
D10*
G36*
X58084975Y-4838579D02*
X57448579Y-5474975D01*
X57095025Y-5121421D01*
X57731421Y-4485025D01*
X58084975Y-4838579D01*
X58084975Y-4838579D01*
G37*
G36*
X57024315Y-3777919D02*
X56387919Y-4414315D01*
X56034365Y-4060761D01*
X56670761Y-3424365D01*
X57024315Y-3777919D01*
X57024315Y-3777919D01*
G37*
G36*
X54808975Y-5899711D02*
X55258975Y-5120289D01*
X55691987Y-5370289D01*
X55241987Y-6149711D01*
X54808975Y-5899711D01*
X54808975Y-5899711D01*
G37*
G36*
X56108013Y-6649711D02*
X56558013Y-5870289D01*
X56991025Y-6120289D01*
X56541025Y-6899711D01*
X56108013Y-6649711D01*
X56108013Y-6649711D01*
G37*
G36*
X64816280Y-8562042D02*
X65205188Y-8173134D01*
X66265848Y-9233794D01*
X65876940Y-9622702D01*
X64816280Y-8562042D01*
X64816280Y-8562042D01*
G37*
G36*
X65381966Y-7996357D02*
X65770874Y-7607449D01*
X66831534Y-8668109D01*
X66442626Y-9057017D01*
X65381966Y-7996357D01*
X65381966Y-7996357D01*
G37*
G36*
X65947651Y-7430672D02*
X66336559Y-7041764D01*
X67397219Y-8102424D01*
X67008311Y-8491332D01*
X65947651Y-7430672D01*
X65947651Y-7430672D01*
G37*
G36*
X66513336Y-6864986D02*
X66902244Y-6476078D01*
X67962904Y-7536738D01*
X67573996Y-7925646D01*
X66513336Y-6864986D01*
X66513336Y-6864986D01*
G37*
G36*
X67079022Y-6299301D02*
X67467930Y-5910393D01*
X68528590Y-6971053D01*
X68139682Y-7359961D01*
X67079022Y-6299301D01*
X67079022Y-6299301D01*
G37*
G36*
X67644707Y-5733615D02*
X68033615Y-5344707D01*
X69094275Y-6405367D01*
X68705367Y-6794275D01*
X67644707Y-5733615D01*
X67644707Y-5733615D01*
G37*
G36*
X68210393Y-5167930D02*
X68599301Y-4779022D01*
X69659961Y-5839682D01*
X69271053Y-6228590D01*
X68210393Y-5167930D01*
X68210393Y-5167930D01*
G37*
G36*
X68776078Y-4602244D02*
X69164986Y-4213336D01*
X70225646Y-5273996D01*
X69836738Y-5662904D01*
X68776078Y-4602244D01*
X68776078Y-4602244D01*
G37*
G36*
X69341764Y-4036559D02*
X69730672Y-3647651D01*
X70791332Y-4708311D01*
X70402424Y-5097219D01*
X69341764Y-4036559D01*
X69341764Y-4036559D01*
G37*
G36*
X69907449Y-3470874D02*
X70296357Y-3081966D01*
X71357017Y-4142626D01*
X70968109Y-4531534D01*
X69907449Y-3470874D01*
X69907449Y-3470874D01*
G37*
G36*
X70473134Y-2905188D02*
X70862042Y-2516280D01*
X71922702Y-3576940D01*
X71533794Y-3965848D01*
X70473134Y-2905188D01*
X70473134Y-2905188D01*
G37*
G36*
X73937958Y-2516280D02*
X74326866Y-2905188D01*
X73266206Y-3965848D01*
X72877298Y-3576940D01*
X73937958Y-2516280D01*
X73937958Y-2516280D01*
G37*
G36*
X74503643Y-3081966D02*
X74892551Y-3470874D01*
X73831891Y-4531534D01*
X73442983Y-4142626D01*
X74503643Y-3081966D01*
X74503643Y-3081966D01*
G37*
G36*
X75069328Y-3647651D02*
X75458236Y-4036559D01*
X74397576Y-5097219D01*
X74008668Y-4708311D01*
X75069328Y-3647651D01*
X75069328Y-3647651D01*
G37*
G36*
X75635014Y-4213336D02*
X76023922Y-4602244D01*
X74963262Y-5662904D01*
X74574354Y-5273996D01*
X75635014Y-4213336D01*
X75635014Y-4213336D01*
G37*
G36*
X76200699Y-4779022D02*
X76589607Y-5167930D01*
X75528947Y-6228590D01*
X75140039Y-5839682D01*
X76200699Y-4779022D01*
X76200699Y-4779022D01*
G37*
G36*
X76766385Y-5344707D02*
X77155293Y-5733615D01*
X76094633Y-6794275D01*
X75705725Y-6405367D01*
X76766385Y-5344707D01*
X76766385Y-5344707D01*
G37*
G36*
X77332070Y-5910393D02*
X77720978Y-6299301D01*
X76660318Y-7359961D01*
X76271410Y-6971053D01*
X77332070Y-5910393D01*
X77332070Y-5910393D01*
G37*
G36*
X77897756Y-6476078D02*
X78286664Y-6864986D01*
X77226004Y-7925646D01*
X76837096Y-7536738D01*
X77897756Y-6476078D01*
X77897756Y-6476078D01*
G37*
G36*
X78463441Y-7041764D02*
X78852349Y-7430672D01*
X77791689Y-8491332D01*
X77402781Y-8102424D01*
X78463441Y-7041764D01*
X78463441Y-7041764D01*
G37*
G36*
X79029126Y-7607449D02*
X79418034Y-7996357D01*
X78357374Y-9057017D01*
X77968466Y-8668109D01*
X79029126Y-7607449D01*
X79029126Y-7607449D01*
G37*
G36*
X79594812Y-8173134D02*
X79983720Y-8562042D01*
X78923060Y-9622702D01*
X78534152Y-9233794D01*
X79594812Y-8173134D01*
X79594812Y-8173134D01*
G37*
G36*
X78534152Y-10966206D02*
X78923060Y-10577298D01*
X79983720Y-11637958D01*
X79594812Y-12026866D01*
X78534152Y-10966206D01*
X78534152Y-10966206D01*
G37*
G36*
X77968466Y-11531891D02*
X78357374Y-11142983D01*
X79418034Y-12203643D01*
X79029126Y-12592551D01*
X77968466Y-11531891D01*
X77968466Y-11531891D01*
G37*
G36*
X77402781Y-12097576D02*
X77791689Y-11708668D01*
X78852349Y-12769328D01*
X78463441Y-13158236D01*
X77402781Y-12097576D01*
X77402781Y-12097576D01*
G37*
G36*
X76837096Y-12663262D02*
X77226004Y-12274354D01*
X78286664Y-13335014D01*
X77897756Y-13723922D01*
X76837096Y-12663262D01*
X76837096Y-12663262D01*
G37*
G36*
X76271410Y-13228947D02*
X76660318Y-12840039D01*
X77720978Y-13900699D01*
X77332070Y-14289607D01*
X76271410Y-13228947D01*
X76271410Y-13228947D01*
G37*
G36*
X75705725Y-13794633D02*
X76094633Y-13405725D01*
X77155293Y-14466385D01*
X76766385Y-14855293D01*
X75705725Y-13794633D01*
X75705725Y-13794633D01*
G37*
G36*
X75140039Y-14360318D02*
X75528947Y-13971410D01*
X76589607Y-15032070D01*
X76200699Y-15420978D01*
X75140039Y-14360318D01*
X75140039Y-14360318D01*
G37*
G36*
X74574354Y-14926004D02*
X74963262Y-14537096D01*
X76023922Y-15597756D01*
X75635014Y-15986664D01*
X74574354Y-14926004D01*
X74574354Y-14926004D01*
G37*
G36*
X74008668Y-15491689D02*
X74397576Y-15102781D01*
X75458236Y-16163441D01*
X75069328Y-16552349D01*
X74008668Y-15491689D01*
X74008668Y-15491689D01*
G37*
G36*
X73442983Y-16057374D02*
X73831891Y-15668466D01*
X74892551Y-16729126D01*
X74503643Y-17118034D01*
X73442983Y-16057374D01*
X73442983Y-16057374D01*
G37*
G36*
X72877298Y-16623060D02*
X73266206Y-16234152D01*
X74326866Y-17294812D01*
X73937958Y-17683720D01*
X72877298Y-16623060D01*
X72877298Y-16623060D01*
G37*
G36*
X71533794Y-16234152D02*
X71922702Y-16623060D01*
X70862042Y-17683720D01*
X70473134Y-17294812D01*
X71533794Y-16234152D01*
X71533794Y-16234152D01*
G37*
G36*
X70968109Y-15668466D02*
X71357017Y-16057374D01*
X70296357Y-17118034D01*
X69907449Y-16729126D01*
X70968109Y-15668466D01*
X70968109Y-15668466D01*
G37*
G36*
X70402424Y-15102781D02*
X70791332Y-15491689D01*
X69730672Y-16552349D01*
X69341764Y-16163441D01*
X70402424Y-15102781D01*
X70402424Y-15102781D01*
G37*
G36*
X69836738Y-14537096D02*
X70225646Y-14926004D01*
X69164986Y-15986664D01*
X68776078Y-15597756D01*
X69836738Y-14537096D01*
X69836738Y-14537096D01*
G37*
G36*
X69271053Y-13971410D02*
X69659961Y-14360318D01*
X68599301Y-15420978D01*
X68210393Y-15032070D01*
X69271053Y-13971410D01*
X69271053Y-13971410D01*
G37*
G36*
X68705367Y-13405725D02*
X69094275Y-13794633D01*
X68033615Y-14855293D01*
X67644707Y-14466385D01*
X68705367Y-13405725D01*
X68705367Y-13405725D01*
G37*
G36*
X68139682Y-12840039D02*
X68528590Y-13228947D01*
X67467930Y-14289607D01*
X67079022Y-13900699D01*
X68139682Y-12840039D01*
X68139682Y-12840039D01*
G37*
G36*
X67573996Y-12274354D02*
X67962904Y-12663262D01*
X66902244Y-13723922D01*
X66513336Y-13335014D01*
X67573996Y-12274354D01*
X67573996Y-12274354D01*
G37*
G36*
X67008311Y-11708668D02*
X67397219Y-12097576D01*
X66336559Y-13158236D01*
X65947651Y-12769328D01*
X67008311Y-11708668D01*
X67008311Y-11708668D01*
G37*
G36*
X66442626Y-11142983D02*
X66831534Y-11531891D01*
X65770874Y-12592551D01*
X65381966Y-12203643D01*
X66442626Y-11142983D01*
X66442626Y-11142983D01*
G37*
G36*
X65876940Y-10577298D02*
X66265848Y-10966206D01*
X65205188Y-12026866D01*
X64816280Y-11637958D01*
X65876940Y-10577298D01*
X65876940Y-10577298D01*
G37*
D16*
X72450000Y-21700000D03*
X70950000Y-21700000D03*
D17*
X83700000Y-9450000D03*
X84800000Y-9450000D03*
D18*
X81350000Y-4600000D03*
X81350000Y-5700000D03*
D19*
X46000000Y-6600000D03*
X50200000Y-6600000D03*
D20*
X77260000Y1410000D03*
X77260000Y-90000D03*
D21*
X54610000Y1575000D03*
X53960000Y1575000D03*
X55260000Y1575000D03*
X53310000Y1575000D03*
X55910000Y1575000D03*
D22*
X53460000Y4250000D03*
X55760000Y4250000D03*
M02*
