G04 #@! TF.FileFunction,Copper,L1,Top,Signal*
%FSLAX46Y46*%
G04 Gerber Fmt 4.6, Leading zero omitted, Abs format (unit mm)*
G04 Created by KiCad (PCBNEW 4.0.5) date Saturday, July 01, 2017 'AMt' 12:52:34 AM*
%MOMM*%
%LPD*%
G01*
G04 APERTURE LIST*
%ADD10C,0.100000*%
%ADD11O,3.000000X3.000000*%
%ADD12C,3.000000*%
%ADD13C,1.524000*%
%ADD14R,1.727200X1.727200*%
%ADD15O,1.727200X1.727200*%
%ADD16O,1.050000X1.250000*%
%ADD17R,2.100000X1.900000*%
%ADD18C,0.600000*%
%ADD19C,0.250000*%
%ADD20C,0.254000*%
G04 APERTURE END LIST*
D10*
D11*
X79250000Y-18700000D03*
D12*
X84250000Y-17700000D03*
D13*
X131490000Y-59765000D03*
D12*
X125650000Y-61825000D03*
X125650000Y-46275000D03*
D13*
X128950000Y-58495000D03*
X131490000Y-57225000D03*
X131490000Y-54685000D03*
X131490000Y-52145000D03*
X131490000Y-49605000D03*
X128950000Y-55955000D03*
X128950000Y-53415000D03*
X128950000Y-50875000D03*
X128950000Y-48335000D03*
D12*
X128450000Y-2400000D03*
X133450000Y-1900000D03*
X97750000Y-18200000D03*
X102750000Y-17700000D03*
X79250000Y-2400000D03*
X84250000Y-1900000D03*
D13*
X99710000Y-48335000D03*
D12*
X105550000Y-46275000D03*
X105550000Y-61825000D03*
D13*
X102250000Y-49605000D03*
X99710000Y-50875000D03*
X99710000Y-53415000D03*
X99710000Y-55955000D03*
X99710000Y-58495000D03*
X102250000Y-52145000D03*
X102250000Y-54685000D03*
X102250000Y-57225000D03*
X102250000Y-59765000D03*
D12*
X70083330Y-58800000D03*
X75083330Y-58300000D03*
X42250000Y-2400000D03*
X47250000Y-1900000D03*
X97750000Y-2400000D03*
X102750000Y-1900000D03*
D14*
X69640000Y3710000D03*
D15*
X69640000Y1170000D03*
X72180000Y3710000D03*
X72180000Y1170000D03*
X74720000Y3710000D03*
X74720000Y1170000D03*
D12*
X5250000Y-2400000D03*
X10250000Y-1900000D03*
X156116667Y-58800000D03*
X161116667Y-58300000D03*
X137616667Y-58800000D03*
X142616667Y-58300000D03*
X88583330Y-58800000D03*
X93583330Y-58300000D03*
X220950000Y-34000000D03*
X225950000Y-33500000D03*
X202450000Y-34000000D03*
X207450000Y-33500000D03*
X183950000Y-34000000D03*
X188950000Y-33500000D03*
X165450000Y-34000000D03*
X170450000Y-33500000D03*
X146950000Y-34000000D03*
X151950000Y-33500000D03*
X128450000Y-34000000D03*
X133450000Y-33500000D03*
X97750000Y-34000000D03*
X102750000Y-33500000D03*
X79250000Y-34000000D03*
X84250000Y-33500000D03*
X60750000Y-34000000D03*
X65750000Y-33500000D03*
X42250000Y-34000000D03*
X47250000Y-33500000D03*
X23750000Y-34000000D03*
X28750000Y-33500000D03*
X5250000Y-34000000D03*
X10250000Y-33500000D03*
X220950000Y-18200000D03*
X225950000Y-17700000D03*
X202450000Y-18200000D03*
X207450000Y-17700000D03*
X183950000Y-18200000D03*
X188950000Y-17700000D03*
X165450000Y-18200000D03*
X170450000Y-17700000D03*
X146950000Y-18200000D03*
X151950000Y-17700000D03*
X128450000Y-18200000D03*
X133450000Y-17700000D03*
X60750000Y-18200000D03*
X65750000Y-17700000D03*
X42250000Y-18200000D03*
X47250000Y-17700000D03*
X23750000Y-18200000D03*
X28750000Y-17700000D03*
X5250000Y-18200000D03*
X10250000Y-17700000D03*
X220950000Y-2400000D03*
X225950000Y-1900000D03*
X202450000Y-2400000D03*
X207450000Y-1900000D03*
X183950000Y-2400000D03*
X188950000Y-1900000D03*
X165450000Y-2400000D03*
X170450000Y-1900000D03*
X146950000Y-2400000D03*
X151950000Y-1900000D03*
X60750000Y-2400000D03*
X65750000Y-1900000D03*
X23750000Y-2400000D03*
X28750000Y-1900000D03*
D16*
X52185000Y1250000D03*
X57035000Y1250000D03*
D17*
X50960000Y4250000D03*
X58260000Y4250000D03*
D18*
X93470000Y-800000D03*
X82450000Y-9200000D03*
X81800000Y-3300000D03*
X69100000Y-8020000D03*
X55570000Y-80000D03*
X68280000Y-10690000D03*
X69900000Y-21690000D03*
X62450000Y-8810000D03*
X76660000Y-2330000D03*
X81370000Y-11300000D03*
X64300000Y-3770000D03*
X51600000Y-2160000D03*
X48580000Y1160000D03*
X61880000Y1340000D03*
X62830000Y-11220000D03*
X64294250Y-12584250D03*
X75120000Y-7180000D03*
X77410000Y-10130000D03*
X61710000Y-12460000D03*
X63090000Y-16670000D03*
X92820000Y-44940000D03*
X56530000Y-10250000D03*
X71620000Y-28375070D03*
X71640000Y-27125050D03*
X71622702Y-18390000D03*
X76990000Y-8910000D03*
X85460000Y-12874936D03*
X87010000Y-45590000D03*
X68060000Y-16730000D03*
X96910000Y-47709990D03*
X96690000Y-49010000D03*
X69056949Y-16843051D03*
X82083051Y-18983051D03*
X151324990Y-46360000D03*
X153728553Y-46360502D03*
X150550000Y-47130000D03*
X153700000Y-47159994D03*
X149700000Y-47960000D03*
X153700000Y-47959997D03*
X148930000Y-48770000D03*
X153700000Y-48760000D03*
X104616949Y-38086949D03*
X104610000Y-37210000D03*
X104550000Y-36230000D03*
X69010000Y-3270000D03*
X69700000Y-2710000D03*
X73300359Y-23080000D03*
X74530000Y-21690000D03*
D19*
X380100000Y-208850000D02*
X379800001Y-208550001D01*
X379800001Y-208550001D02*
X379800001Y-185478763D01*
X390016667Y-211966667D02*
X390016667Y-228600000D01*
X382737001Y-187112999D02*
X382737001Y-180550000D01*
X381850000Y-188000000D02*
X382737001Y-187112999D01*
X381850000Y-203800000D02*
X381850000Y-188000000D01*
X390016667Y-211966667D02*
X381850000Y-203800000D01*
X408516667Y-211966667D02*
X408516667Y-228600000D01*
X400350000Y-188000000D02*
X400350000Y-172200000D01*
X400350000Y-203800000D02*
X400350000Y-188000000D01*
X408516667Y-211966667D02*
X400350000Y-203800000D01*
X418850000Y-188000000D02*
X401224999Y-170374999D01*
X401224999Y-170374999D02*
X393825001Y-170374999D01*
X418850000Y-188000000D02*
X418850000Y-172200000D01*
X418850000Y-203800000D02*
X418850000Y-188000000D01*
X437350000Y-172200000D02*
X437350000Y-174321320D01*
X437350000Y-174321320D02*
X437350000Y-188000000D01*
X437350000Y-203800000D02*
X437350000Y-201678680D01*
X437350000Y-201678680D02*
X437350000Y-188000000D01*
X455850000Y-172200000D02*
X453574990Y-169924990D01*
X455850000Y-188000000D02*
X455850000Y-185878680D01*
X455850000Y-185878680D02*
X455850000Y-172200000D01*
X455850000Y-203800000D02*
X455850000Y-188000000D01*
X474350000Y-188000000D02*
X474350000Y-172200000D01*
X474350000Y-203800000D02*
X474350000Y-201678680D01*
X474350000Y-201678680D02*
X474350000Y-188000000D01*
X55570000Y-80000D02*
X55570000Y344264D01*
X55570000Y344264D02*
X55930000Y704264D01*
X55270001Y219999D02*
X55270001Y800001D01*
X55570000Y-80000D02*
X55270001Y219999D01*
X55270001Y219999D02*
X54350001Y219999D01*
X55570000Y-660000D02*
X55360000Y-870000D01*
X55570000Y-504264D02*
X55570000Y-660000D01*
X55570000Y-504264D02*
X56515736Y-504264D01*
X55570000Y-504264D02*
X54604264Y-504264D01*
X55570000Y-80000D02*
X55570000Y-504264D01*
X55570000Y-504264D02*
X55995736Y-930000D01*
X55570000Y-80000D02*
X54480000Y-80000D01*
X55994264Y-80000D02*
X55570000Y-80000D01*
X57007095Y-80000D02*
X55994264Y-80000D01*
X67660000Y-10008293D02*
X67660000Y-10070000D01*
X67660000Y-10070000D02*
X68280000Y-10690000D01*
X67660000Y-10008293D02*
X66780578Y-9128871D01*
X66780578Y-9128871D02*
X66780578Y-5859422D01*
X76660000Y-2330000D02*
X73130578Y-5859422D01*
X73130578Y-5859422D02*
X66780578Y-5859422D01*
X52500000Y-710000D02*
X50450000Y-710000D01*
X50450000Y-710000D02*
X48580000Y1160000D01*
X53570000Y-1780000D02*
X52500000Y-710000D01*
X57160000Y-1780000D02*
X53570000Y-1780000D01*
X59240000Y300000D02*
X57160000Y-1780000D01*
X60840000Y300000D02*
X59240000Y300000D01*
X61880000Y1340000D02*
X60840000Y300000D01*
X64294250Y-12584250D02*
X64194250Y-12584250D01*
X64194250Y-12584250D02*
X62830000Y-11220000D01*
X77410000Y-10130000D02*
X77709999Y-9830001D01*
X77709999Y-9830001D02*
X77709999Y-8704997D01*
X77709999Y-8704997D02*
X76185002Y-7180000D01*
X76185002Y-7180000D02*
X75120000Y-7180000D01*
X63090000Y-16670000D02*
X63090000Y-13840000D01*
X63090000Y-13840000D02*
X61710000Y-12460000D01*
X92820000Y-44940000D02*
X96215000Y-48335000D01*
X96215000Y-48335000D02*
X99710000Y-48335000D01*
X56530000Y-10250000D02*
X60750000Y-6030000D01*
X60750000Y-6030000D02*
X60750000Y-2400000D01*
X71640000Y-27125050D02*
X71640000Y-28355070D01*
X71640000Y-28355070D02*
X71620000Y-28375070D01*
X76990000Y-8910000D02*
X74954998Y-8910000D01*
X74954998Y-8910000D02*
X70994999Y-12869999D01*
X70994999Y-12869999D02*
X70994999Y-17762297D01*
X70994999Y-17762297D02*
X71622702Y-18390000D01*
X131485000Y-54690000D02*
X131490000Y-54685000D01*
X87010000Y-45590000D02*
X87010000Y-14424936D01*
X87010000Y-14424936D02*
X85460000Y-12874936D01*
X10250000Y-17700000D02*
X10250000Y-19821320D01*
X10250000Y-19821320D02*
X10250000Y-33500000D01*
X10250000Y-1900000D02*
X10250000Y-17700000D01*
X28750000Y-17700000D02*
X28750000Y-1900000D01*
X28750000Y-33500000D02*
X28750000Y-31378680D01*
X28750000Y-31378680D02*
X28750000Y-17700000D01*
X47250000Y-17700000D02*
X47250000Y-19821320D01*
X47250000Y-19821320D02*
X47250000Y-33500000D01*
X47250000Y-1900000D02*
X47250000Y-17700000D01*
X65750000Y-1900000D02*
X65750000Y-4021320D01*
X65750000Y-4021320D02*
X65750000Y-17700000D01*
X65750000Y-33500000D02*
X65750000Y-17700000D01*
X84250000Y-17700000D02*
X81130000Y-20820000D01*
X81130000Y-20820000D02*
X72150000Y-20820000D01*
X72150000Y-20820000D02*
X68060000Y-16730000D01*
X75083330Y-58300000D02*
X84250000Y-49133330D01*
X84250000Y-49133330D02*
X84250000Y-33500000D01*
X84250000Y-17700000D02*
X84250000Y-19821320D01*
X84250000Y-19821320D02*
X84250000Y-33500000D01*
X84250000Y-1900000D02*
X84250000Y-17700000D01*
X74890000Y-20025001D02*
X72238899Y-20025001D01*
X82083051Y-18558787D02*
X80399263Y-16874999D01*
X80399263Y-16874999D02*
X78040002Y-16874999D01*
X82083051Y-18983051D02*
X82083051Y-18558787D01*
X78040002Y-16874999D02*
X74890000Y-20025001D01*
X96910000Y-47709990D02*
X96910000Y-47285726D01*
X96910000Y-47285726D02*
X100712989Y-43482737D01*
X100712989Y-43482737D02*
X100712989Y-35537011D01*
X100712989Y-35537011D02*
X101250001Y-34999999D01*
X101250001Y-34999999D02*
X102750000Y-33500000D01*
X93583330Y-58300000D02*
X93583330Y-52116670D01*
X93583330Y-52116670D02*
X96690000Y-49010000D01*
X72238899Y-20025001D02*
X69056949Y-16843051D01*
X102750000Y-1900000D02*
X102750000Y-17700000D01*
X102750000Y-33500000D02*
X102750000Y-31378680D01*
X102750000Y-31378680D02*
X102750000Y-17700000D01*
X133450000Y-33500000D02*
X133450000Y-41176002D01*
X133450000Y-41176002D02*
X127862999Y-46763003D01*
X127862999Y-46763003D02*
X127862999Y-48856761D01*
X127862999Y-48856761D02*
X128611238Y-49605000D01*
X128611238Y-49605000D02*
X130412370Y-49605000D01*
X130412370Y-49605000D02*
X131490000Y-49605000D01*
X142616667Y-58300000D02*
X141116668Y-56800001D01*
X127862999Y-56476761D02*
X127862999Y-50353239D01*
X127862999Y-50353239D02*
X128611238Y-49605000D01*
X141116668Y-56800001D02*
X133523761Y-56800001D01*
X133523761Y-56800001D02*
X132011761Y-58312001D01*
X129105763Y-57042001D02*
X128428239Y-57042001D01*
X128428239Y-57042001D02*
X127862999Y-56476761D01*
X132011761Y-58312001D02*
X130375763Y-58312001D01*
X130375763Y-58312001D02*
X129105763Y-57042001D01*
X133450000Y-17700000D02*
X133450000Y-19821320D01*
X133450000Y-19821320D02*
X133450000Y-33500000D01*
X133450000Y-1900000D02*
X133450000Y-4021320D01*
X133450000Y-4021320D02*
X133450000Y-17700000D01*
X151950000Y-33500000D02*
X151950000Y-49133333D01*
X151950000Y-49133333D02*
X161116667Y-58300000D01*
X161116667Y-58300000D02*
X158564666Y-60852001D01*
X128950000Y-59572630D02*
X128950000Y-58495000D01*
X158564666Y-60852001D02*
X130229371Y-60852001D01*
X130229371Y-60852001D02*
X128950000Y-59572630D01*
X151950000Y-17700000D02*
X151950000Y-33500000D01*
X151950000Y-1900000D02*
X151950000Y-4021320D01*
X151950000Y-4021320D02*
X151950000Y-17700000D01*
X151324990Y-46360000D02*
X151324990Y-48572832D01*
X151324990Y-48572832D02*
X143942822Y-55955000D01*
X143942822Y-55955000D02*
X130027630Y-55955000D01*
X130027630Y-55955000D02*
X128950000Y-55955000D01*
X170450000Y-33500000D02*
X157589498Y-46360502D01*
X157589498Y-46360502D02*
X153728553Y-46360502D01*
X170450000Y-17700000D02*
X170450000Y-33500000D01*
X170450000Y-1900000D02*
X170450000Y-17700000D01*
X150550000Y-47130000D02*
X150550000Y-48711412D01*
X145846412Y-53415000D02*
X130027630Y-53415000D01*
X150550000Y-48711412D02*
X145846412Y-53415000D01*
X130027630Y-53415000D02*
X128950000Y-53415000D01*
X188950000Y-33500000D02*
X175290006Y-47159994D01*
X175290006Y-47159994D02*
X153700000Y-47159994D01*
X188950000Y-17700000D02*
X188950000Y-33500000D01*
X188950000Y-1900000D02*
X188950000Y-4021320D01*
X188950000Y-4021320D02*
X188950000Y-17700000D01*
X149700000Y-47960000D02*
X149700000Y-48925002D01*
X149700000Y-48925002D02*
X147750002Y-50875000D01*
X130027630Y-50875000D02*
X128950000Y-50875000D01*
X147750002Y-50875000D02*
X130027630Y-50875000D01*
X207450000Y-33500000D02*
X192990003Y-47959997D01*
X192990003Y-47959997D02*
X153700000Y-47959997D01*
X207450000Y-17700000D02*
X207450000Y-19821320D01*
X207450000Y-19821320D02*
X207450000Y-33500000D01*
X207450000Y-1900000D02*
X207450000Y-4021320D01*
X207450000Y-4021320D02*
X207450000Y-17700000D01*
X148930000Y-48770000D02*
X148505736Y-48770000D01*
X148505736Y-48770000D02*
X148070736Y-48335000D01*
X148070736Y-48335000D02*
X130027630Y-48335000D01*
X130027630Y-48335000D02*
X128950000Y-48335000D01*
X225950000Y-33500000D02*
X210690000Y-48760000D01*
X210690000Y-48760000D02*
X203488998Y-48760000D01*
X203488998Y-48760000D02*
X153700000Y-48760000D01*
X225950000Y-17700000D02*
X225950000Y-33500000D01*
X225950000Y-1900000D02*
X225950000Y-17700000D01*
X104616949Y-38086949D02*
X104316950Y-38386948D01*
X103430000Y-45693998D02*
X103430000Y-47663590D01*
X103430000Y-47663590D02*
X103787011Y-48020601D01*
X104316950Y-38386948D02*
X104316950Y-44807048D01*
X104316950Y-44807048D02*
X103430000Y-45693998D01*
X103787011Y-48020601D02*
X103787011Y-58227989D01*
X103787011Y-58227989D02*
X103011999Y-59003001D01*
X103011999Y-59003001D02*
X102250000Y-59765000D01*
X102250000Y-57225000D02*
X103337001Y-56137999D01*
X103337001Y-38482999D02*
X104610000Y-37210000D01*
X103337001Y-56137999D02*
X103337001Y-48207001D01*
X103337001Y-48207001D02*
X102260000Y-47130000D01*
X103337001Y-43330000D02*
X103337001Y-38482999D01*
X102260000Y-47130000D02*
X102260000Y-44407001D01*
X102260000Y-44407001D02*
X103337001Y-43330000D01*
X104550000Y-36230000D02*
X101162999Y-39617001D01*
X101162999Y-39617001D02*
X101162999Y-53597999D01*
X101162999Y-53597999D02*
X101488001Y-53923001D01*
X101488001Y-53923001D02*
X102250000Y-54685000D01*
X72180000Y3710000D02*
X70991399Y2521399D01*
X70991399Y2521399D02*
X70991399Y599471D01*
X70991399Y599471D02*
X69010000Y-1381928D01*
X69010000Y-1381928D02*
X69010000Y-3270000D01*
X72180000Y1170000D02*
X72180000Y-230000D01*
X72180000Y-230000D02*
X69700000Y-2710000D01*
X74530000Y-21690000D02*
X74530000Y-21850359D01*
X74530000Y-21850359D02*
X73300359Y-23080000D01*
D20*
G36*
X49262560Y3300000D02*
X49306838Y3064683D01*
X49445910Y2848559D01*
X49658110Y2703569D01*
X49910000Y2652560D01*
X52010000Y2652560D01*
X52245317Y2696838D01*
X52461441Y2835910D01*
X52606431Y3048110D01*
X52657440Y3300000D01*
X52657440Y4990000D01*
X56562560Y4990000D01*
X56562560Y3300000D01*
X56606838Y3064683D01*
X56745910Y2848559D01*
X56958110Y2703569D01*
X57210000Y2652560D01*
X59310000Y2652560D01*
X59545317Y2696838D01*
X59761441Y2835910D01*
X59906431Y3048110D01*
X59957440Y3300000D01*
X59957440Y4990000D01*
X68292374Y4990000D01*
X68179969Y4825490D01*
X68128960Y4573600D01*
X68128960Y2846400D01*
X68173238Y2611083D01*
X68312310Y2394959D01*
X68524510Y2249969D01*
X68568345Y2241092D01*
X68255474Y1772848D01*
X68141400Y1199359D01*
X68141400Y1140641D01*
X68255474Y567152D01*
X68580330Y80971D01*
X69066511Y-243885D01*
X69072124Y-245002D01*
X68472599Y-844527D01*
X68307852Y-1091089D01*
X68250000Y-1381928D01*
X68250000Y-2707537D01*
X68217808Y-2739673D01*
X68075162Y-3083201D01*
X68074838Y-3455167D01*
X68216883Y-3798943D01*
X68479673Y-4062192D01*
X68823201Y-4204838D01*
X69195167Y-4205162D01*
X69538943Y-4063117D01*
X69802192Y-3800327D01*
X69866629Y-3645146D01*
X69885167Y-3645162D01*
X70228943Y-3503117D01*
X70492192Y-3240327D01*
X70634838Y-2896799D01*
X70634879Y-2849923D01*
X70661987Y-2822815D01*
X77114630Y-2822815D01*
X77438980Y-3607800D01*
X78039041Y-4208909D01*
X78823459Y-4534628D01*
X79672815Y-4535370D01*
X80457800Y-4211020D01*
X81058909Y-3610959D01*
X81384628Y-2826541D01*
X81385370Y-1977185D01*
X81061020Y-1192200D01*
X80460959Y-591091D01*
X79676541Y-265372D01*
X78827185Y-264630D01*
X78042200Y-588980D01*
X77441091Y-1189041D01*
X77115372Y-1973459D01*
X77114630Y-2822815D01*
X70661987Y-2822815D01*
X72717401Y-767401D01*
X72882148Y-520839D01*
X72940000Y-230000D01*
X72940000Y-119262D01*
X73239670Y80971D01*
X73564526Y567152D01*
X73678600Y1140641D01*
X73678600Y1199359D01*
X73564526Y1772848D01*
X73239670Y2259029D01*
X72968828Y2440000D01*
X73239670Y2620971D01*
X73450000Y2935752D01*
X73660330Y2620971D01*
X74146511Y2296115D01*
X74720000Y2182041D01*
X75293489Y2296115D01*
X75779670Y2620971D01*
X76104526Y3107152D01*
X76218600Y3680641D01*
X76218600Y3739359D01*
X76104526Y4312848D01*
X75779670Y4799029D01*
X75493862Y4990000D01*
X107290000Y4990000D01*
X107290000Y2000000D01*
X107344046Y1728295D01*
X107497954Y1497954D01*
X107728295Y1344046D01*
X108000000Y1290000D01*
X108873000Y1290000D01*
X108873000Y-46100238D01*
X108157381Y-46099613D01*
X107684983Y-46294804D01*
X107685370Y-45852185D01*
X107626620Y-45710000D01*
X108000000Y-45710000D01*
X108271705Y-45655954D01*
X108502046Y-45502046D01*
X108655954Y-45271705D01*
X108710000Y-45000000D01*
X108655954Y-44728295D01*
X108502046Y-44497954D01*
X108271705Y-44344046D01*
X108000000Y-44290000D01*
X106336885Y-44290000D01*
X105976541Y-44140372D01*
X105127185Y-44139630D01*
X105076950Y-44160387D01*
X105076950Y-38908552D01*
X105145892Y-38880066D01*
X105409141Y-38617276D01*
X105551787Y-38273748D01*
X105552111Y-37901782D01*
X105443898Y-37639887D01*
X105544838Y-37396799D01*
X105545162Y-37024833D01*
X105403117Y-36681057D01*
X105383336Y-36661242D01*
X105484838Y-36416799D01*
X105485162Y-36044833D01*
X105343117Y-35701057D01*
X105080327Y-35437808D01*
X104736799Y-35295162D01*
X104364833Y-35294838D01*
X104021057Y-35436883D01*
X103757808Y-35699673D01*
X103615162Y-36043201D01*
X103615121Y-36090077D01*
X101472989Y-38232209D01*
X101472989Y-35851813D01*
X101875983Y-35448819D01*
X102323459Y-35634628D01*
X103172815Y-35635370D01*
X103957800Y-35311020D01*
X104558909Y-34710959D01*
X104884628Y-33926541D01*
X104885370Y-33077185D01*
X104561020Y-32292200D01*
X103960959Y-31691091D01*
X103510000Y-31503836D01*
X103510000Y-19696048D01*
X103957800Y-19511020D01*
X104558909Y-18910959D01*
X104884628Y-18126541D01*
X104885370Y-17277185D01*
X104561020Y-16492200D01*
X103960959Y-15891091D01*
X103510000Y-15703836D01*
X103510000Y-3896048D01*
X103957800Y-3711020D01*
X104558909Y-3110959D01*
X104884628Y-2326541D01*
X104885370Y-1477185D01*
X104561020Y-692200D01*
X103960959Y-91091D01*
X103176541Y234628D01*
X102327185Y235370D01*
X101542200Y-88980D01*
X100941091Y-689041D01*
X100615372Y-1473459D01*
X100614630Y-2322815D01*
X100938980Y-3107800D01*
X101539041Y-3708909D01*
X101990000Y-3896164D01*
X101990000Y-15703952D01*
X101542200Y-15888980D01*
X100941091Y-16489041D01*
X100615372Y-17273459D01*
X100614630Y-18122815D01*
X100938980Y-18907800D01*
X101539041Y-19508909D01*
X101990000Y-19696164D01*
X101990000Y-31503952D01*
X101542200Y-31688980D01*
X100941091Y-32289041D01*
X100615372Y-33073459D01*
X100614630Y-33922815D01*
X100801098Y-34374100D01*
X100175588Y-34999610D01*
X100010841Y-35246172D01*
X99952989Y-35537011D01*
X99952989Y-43167935D01*
X96372599Y-46748325D01*
X96207852Y-46994887D01*
X96184301Y-47113286D01*
X96126144Y-47171342D01*
X93755122Y-44800320D01*
X93755162Y-44754833D01*
X93613117Y-44411057D01*
X93350327Y-44147808D01*
X93006799Y-44005162D01*
X92634833Y-44004838D01*
X92291057Y-44146883D01*
X92027808Y-44409673D01*
X91885162Y-44753201D01*
X91884838Y-45125167D01*
X92026883Y-45468943D01*
X92289673Y-45732192D01*
X92633201Y-45874838D01*
X92680077Y-45874879D01*
X95677599Y-48872401D01*
X95722677Y-48902521D01*
X93045929Y-51579269D01*
X92881182Y-51825831D01*
X92823330Y-52116670D01*
X92823330Y-56303952D01*
X92375530Y-56488980D01*
X91774421Y-57089041D01*
X91448702Y-57873459D01*
X91447960Y-58722815D01*
X91772310Y-59507800D01*
X92372371Y-60108909D01*
X93156789Y-60434628D01*
X94006145Y-60435370D01*
X94791130Y-60111020D01*
X95392239Y-59510959D01*
X95717958Y-58726541D01*
X95718700Y-57877185D01*
X95394350Y-57092200D01*
X94794289Y-56491091D01*
X94343330Y-56303836D01*
X94343330Y-52431472D01*
X96829680Y-49945122D01*
X96875167Y-49945162D01*
X97218943Y-49803117D01*
X97482192Y-49540327D01*
X97624838Y-49196799D01*
X97624927Y-49095000D01*
X98512469Y-49095000D01*
X98524990Y-49125303D01*
X98917630Y-49518629D01*
X99125512Y-49604949D01*
X98919697Y-49689990D01*
X98526371Y-50082630D01*
X98313243Y-50595900D01*
X98312758Y-51151661D01*
X98524990Y-51665303D01*
X98917630Y-52058629D01*
X99125512Y-52144949D01*
X98919697Y-52229990D01*
X98526371Y-52622630D01*
X98313243Y-53135900D01*
X98312758Y-53691661D01*
X98524990Y-54205303D01*
X98917630Y-54598629D01*
X99125512Y-54684949D01*
X98919697Y-54769990D01*
X98526371Y-55162630D01*
X98313243Y-55675900D01*
X98312758Y-56231661D01*
X98524990Y-56745303D01*
X98917630Y-57138629D01*
X99125512Y-57224949D01*
X98919697Y-57309990D01*
X98526371Y-57702630D01*
X98313243Y-58215900D01*
X98312758Y-58771661D01*
X98524990Y-59285303D01*
X98917630Y-59678629D01*
X99430900Y-59891757D01*
X99986661Y-59892242D01*
X100500303Y-59680010D01*
X100893629Y-59287370D01*
X101106757Y-58774100D01*
X101107242Y-58218339D01*
X100895010Y-57704697D01*
X100502370Y-57311371D01*
X100294488Y-57225051D01*
X100500303Y-57140010D01*
X100893629Y-56747370D01*
X101106757Y-56234100D01*
X101107242Y-55678339D01*
X100895010Y-55164697D01*
X100502370Y-54771371D01*
X100294488Y-54685051D01*
X100500303Y-54600010D01*
X100795513Y-54305315D01*
X100865817Y-54375619D01*
X100853243Y-54405900D01*
X100852758Y-54961661D01*
X101064990Y-55475303D01*
X101457630Y-55868629D01*
X101665512Y-55954949D01*
X101459697Y-56039990D01*
X101066371Y-56432630D01*
X100853243Y-56945900D01*
X100852758Y-57501661D01*
X101064990Y-58015303D01*
X101457630Y-58408629D01*
X101665512Y-58494949D01*
X101459697Y-58579990D01*
X101066371Y-58972630D01*
X100853243Y-59485900D01*
X100852758Y-60041661D01*
X101064990Y-60555303D01*
X101457630Y-60948629D01*
X101970900Y-61161757D01*
X102526661Y-61162242D01*
X103040303Y-60950010D01*
X103433629Y-60557370D01*
X103646757Y-60044100D01*
X103647242Y-59488339D01*
X103633857Y-59455945D01*
X104324412Y-58765390D01*
X104489159Y-58518829D01*
X104511079Y-58408629D01*
X104547011Y-58227989D01*
X104547011Y-48170266D01*
X105123459Y-48409628D01*
X105972815Y-48410370D01*
X106365075Y-48248291D01*
X106364613Y-48777619D01*
X106704155Y-49599372D01*
X107332321Y-50228636D01*
X108153481Y-50569611D01*
X108873000Y-50570239D01*
X108873000Y-57530238D01*
X108157381Y-57529613D01*
X107335628Y-57869155D01*
X106706364Y-58497321D01*
X106365389Y-59318481D01*
X106364924Y-59851643D01*
X105976541Y-59690372D01*
X105127185Y-59689630D01*
X104342200Y-60013980D01*
X103741091Y-60614041D01*
X103415372Y-61398459D01*
X103414630Y-62247815D01*
X103672952Y-62873000D01*
X60965308Y-62873000D01*
X49010952Y-59222815D01*
X67947960Y-59222815D01*
X68272310Y-60007800D01*
X68872371Y-60608909D01*
X69656789Y-60934628D01*
X70506145Y-60935370D01*
X71291130Y-60611020D01*
X71892239Y-60010959D01*
X72217958Y-59226541D01*
X72218700Y-58377185D01*
X71894350Y-57592200D01*
X71294289Y-56991091D01*
X70509871Y-56665372D01*
X69660515Y-56664630D01*
X68875530Y-56988980D01*
X68274421Y-57589041D01*
X67948702Y-58373459D01*
X67947960Y-59222815D01*
X49010952Y-59222815D01*
X710000Y-44474433D01*
X710000Y-34422815D01*
X3114630Y-34422815D01*
X3438980Y-35207800D01*
X4039041Y-35808909D01*
X4823459Y-36134628D01*
X5672815Y-36135370D01*
X6457800Y-35811020D01*
X7058909Y-35210959D01*
X7384628Y-34426541D01*
X7385370Y-33577185D01*
X7061020Y-32792200D01*
X6460959Y-32191091D01*
X5676541Y-31865372D01*
X4827185Y-31864630D01*
X4042200Y-32188980D01*
X3441091Y-32789041D01*
X3115372Y-33573459D01*
X3114630Y-34422815D01*
X710000Y-34422815D01*
X710000Y-18622815D01*
X3114630Y-18622815D01*
X3438980Y-19407800D01*
X4039041Y-20008909D01*
X4823459Y-20334628D01*
X5672815Y-20335370D01*
X6457800Y-20011020D01*
X7058909Y-19410959D01*
X7384628Y-18626541D01*
X7385370Y-17777185D01*
X7061020Y-16992200D01*
X6460959Y-16391091D01*
X5676541Y-16065372D01*
X4827185Y-16064630D01*
X4042200Y-16388980D01*
X3441091Y-16989041D01*
X3115372Y-17773459D01*
X3114630Y-18622815D01*
X710000Y-18622815D01*
X710000Y-2822815D01*
X3114630Y-2822815D01*
X3438980Y-3607800D01*
X4039041Y-4208909D01*
X4823459Y-4534628D01*
X5672815Y-4535370D01*
X6457800Y-4211020D01*
X7058909Y-3610959D01*
X7384628Y-2826541D01*
X7385068Y-2322815D01*
X8114630Y-2322815D01*
X8438980Y-3107800D01*
X9039041Y-3708909D01*
X9490000Y-3896164D01*
X9490000Y-15703952D01*
X9042200Y-15888980D01*
X8441091Y-16489041D01*
X8115372Y-17273459D01*
X8114630Y-18122815D01*
X8438980Y-18907800D01*
X9039041Y-19508909D01*
X9490000Y-19696164D01*
X9490000Y-31503952D01*
X9042200Y-31688980D01*
X8441091Y-32289041D01*
X8115372Y-33073459D01*
X8114630Y-33922815D01*
X8438980Y-34707800D01*
X9039041Y-35308909D01*
X9823459Y-35634628D01*
X10672815Y-35635370D01*
X11457800Y-35311020D01*
X12058909Y-34710959D01*
X12178556Y-34422815D01*
X21614630Y-34422815D01*
X21938980Y-35207800D01*
X22539041Y-35808909D01*
X23323459Y-36134628D01*
X24172815Y-36135370D01*
X24957800Y-35811020D01*
X25558909Y-35210959D01*
X25884628Y-34426541D01*
X25885370Y-33577185D01*
X25561020Y-32792200D01*
X24960959Y-32191091D01*
X24176541Y-31865372D01*
X23327185Y-31864630D01*
X22542200Y-32188980D01*
X21941091Y-32789041D01*
X21615372Y-33573459D01*
X21614630Y-34422815D01*
X12178556Y-34422815D01*
X12384628Y-33926541D01*
X12385370Y-33077185D01*
X12061020Y-32292200D01*
X11460959Y-31691091D01*
X11010000Y-31503836D01*
X11010000Y-19696048D01*
X11457800Y-19511020D01*
X12058909Y-18910959D01*
X12178556Y-18622815D01*
X21614630Y-18622815D01*
X21938980Y-19407800D01*
X22539041Y-20008909D01*
X23323459Y-20334628D01*
X24172815Y-20335370D01*
X24957800Y-20011020D01*
X25558909Y-19410959D01*
X25884628Y-18626541D01*
X25885370Y-17777185D01*
X25561020Y-16992200D01*
X24960959Y-16391091D01*
X24176541Y-16065372D01*
X23327185Y-16064630D01*
X22542200Y-16388980D01*
X21941091Y-16989041D01*
X21615372Y-17773459D01*
X21614630Y-18622815D01*
X12178556Y-18622815D01*
X12384628Y-18126541D01*
X12385370Y-17277185D01*
X12061020Y-16492200D01*
X11460959Y-15891091D01*
X11010000Y-15703836D01*
X11010000Y-3896048D01*
X11457800Y-3711020D01*
X12058909Y-3110959D01*
X12178556Y-2822815D01*
X21614630Y-2822815D01*
X21938980Y-3607800D01*
X22539041Y-4208909D01*
X23323459Y-4534628D01*
X24172815Y-4535370D01*
X24957800Y-4211020D01*
X25558909Y-3610959D01*
X25884628Y-2826541D01*
X25885068Y-2322815D01*
X26614630Y-2322815D01*
X26938980Y-3107800D01*
X27539041Y-3708909D01*
X27990000Y-3896164D01*
X27990000Y-15703952D01*
X27542200Y-15888980D01*
X26941091Y-16489041D01*
X26615372Y-17273459D01*
X26614630Y-18122815D01*
X26938980Y-18907800D01*
X27539041Y-19508909D01*
X27990000Y-19696164D01*
X27990000Y-31503952D01*
X27542200Y-31688980D01*
X26941091Y-32289041D01*
X26615372Y-33073459D01*
X26614630Y-33922815D01*
X26938980Y-34707800D01*
X27539041Y-35308909D01*
X28323459Y-35634628D01*
X29172815Y-35635370D01*
X29957800Y-35311020D01*
X30558909Y-34710959D01*
X30678556Y-34422815D01*
X40114630Y-34422815D01*
X40438980Y-35207800D01*
X41039041Y-35808909D01*
X41823459Y-36134628D01*
X42672815Y-36135370D01*
X43457800Y-35811020D01*
X44058909Y-35210959D01*
X44384628Y-34426541D01*
X44385370Y-33577185D01*
X44061020Y-32792200D01*
X43460959Y-32191091D01*
X42676541Y-31865372D01*
X41827185Y-31864630D01*
X41042200Y-32188980D01*
X40441091Y-32789041D01*
X40115372Y-33573459D01*
X40114630Y-34422815D01*
X30678556Y-34422815D01*
X30884628Y-33926541D01*
X30885370Y-33077185D01*
X30561020Y-32292200D01*
X29960959Y-31691091D01*
X29510000Y-31503836D01*
X29510000Y-19696048D01*
X29957800Y-19511020D01*
X30558909Y-18910959D01*
X30678556Y-18622815D01*
X40114630Y-18622815D01*
X40438980Y-19407800D01*
X41039041Y-20008909D01*
X41823459Y-20334628D01*
X42672815Y-20335370D01*
X43457800Y-20011020D01*
X44058909Y-19410959D01*
X44384628Y-18626541D01*
X44385370Y-17777185D01*
X44061020Y-16992200D01*
X43460959Y-16391091D01*
X42676541Y-16065372D01*
X41827185Y-16064630D01*
X41042200Y-16388980D01*
X40441091Y-16989041D01*
X40115372Y-17773459D01*
X40114630Y-18622815D01*
X30678556Y-18622815D01*
X30884628Y-18126541D01*
X30885370Y-17277185D01*
X30561020Y-16492200D01*
X29960959Y-15891091D01*
X29510000Y-15703836D01*
X29510000Y-3896048D01*
X29957800Y-3711020D01*
X30558909Y-3110959D01*
X30678556Y-2822815D01*
X40114630Y-2822815D01*
X40438980Y-3607800D01*
X41039041Y-4208909D01*
X41823459Y-4534628D01*
X42672815Y-4535370D01*
X43457800Y-4211020D01*
X44058909Y-3610959D01*
X44384628Y-2826541D01*
X44385068Y-2322815D01*
X45114630Y-2322815D01*
X45438980Y-3107800D01*
X46039041Y-3708909D01*
X46490000Y-3896164D01*
X46490000Y-15703952D01*
X46042200Y-15888980D01*
X45441091Y-16489041D01*
X45115372Y-17273459D01*
X45114630Y-18122815D01*
X45438980Y-18907800D01*
X46039041Y-19508909D01*
X46490000Y-19696164D01*
X46490000Y-31503952D01*
X46042200Y-31688980D01*
X45441091Y-32289041D01*
X45115372Y-33073459D01*
X45114630Y-33922815D01*
X45438980Y-34707800D01*
X46039041Y-35308909D01*
X46823459Y-35634628D01*
X47672815Y-35635370D01*
X48457800Y-35311020D01*
X49058909Y-34710959D01*
X49178556Y-34422815D01*
X58614630Y-34422815D01*
X58938980Y-35207800D01*
X59539041Y-35808909D01*
X60323459Y-36134628D01*
X61172815Y-36135370D01*
X61957800Y-35811020D01*
X62558909Y-35210959D01*
X62884628Y-34426541D01*
X62885370Y-33577185D01*
X62561020Y-32792200D01*
X61960959Y-32191091D01*
X61176541Y-31865372D01*
X60327185Y-31864630D01*
X59542200Y-32188980D01*
X58941091Y-32789041D01*
X58615372Y-33573459D01*
X58614630Y-34422815D01*
X49178556Y-34422815D01*
X49384628Y-33926541D01*
X49385370Y-33077185D01*
X49061020Y-32292200D01*
X48460959Y-31691091D01*
X48010000Y-31503836D01*
X48010000Y-19696048D01*
X48457800Y-19511020D01*
X49058909Y-18910959D01*
X49178556Y-18622815D01*
X58614630Y-18622815D01*
X58938980Y-19407800D01*
X59539041Y-20008909D01*
X60323459Y-20334628D01*
X61172815Y-20335370D01*
X61957800Y-20011020D01*
X62558909Y-19410959D01*
X62884628Y-18626541D01*
X62885370Y-17777185D01*
X62795716Y-17560206D01*
X62903201Y-17604838D01*
X63275167Y-17605162D01*
X63615205Y-17464662D01*
X63614630Y-18122815D01*
X63938980Y-18907800D01*
X64539041Y-19508909D01*
X64990000Y-19696164D01*
X64990000Y-31503952D01*
X64542200Y-31688980D01*
X63941091Y-32289041D01*
X63615372Y-33073459D01*
X63614630Y-33922815D01*
X63938980Y-34707800D01*
X64539041Y-35308909D01*
X65323459Y-35634628D01*
X66172815Y-35635370D01*
X66957800Y-35311020D01*
X67558909Y-34710959D01*
X67678556Y-34422815D01*
X77114630Y-34422815D01*
X77438980Y-35207800D01*
X78039041Y-35808909D01*
X78823459Y-36134628D01*
X79672815Y-36135370D01*
X80457800Y-35811020D01*
X81058909Y-35210959D01*
X81384628Y-34426541D01*
X81385370Y-33577185D01*
X81061020Y-32792200D01*
X80460959Y-32191091D01*
X79676541Y-31865372D01*
X78827185Y-31864630D01*
X78042200Y-32188980D01*
X77441091Y-32789041D01*
X77115372Y-33573459D01*
X77114630Y-34422815D01*
X67678556Y-34422815D01*
X67884628Y-33926541D01*
X67885370Y-33077185D01*
X67561020Y-32292200D01*
X66960959Y-31691091D01*
X66510000Y-31503836D01*
X66510000Y-28560237D01*
X70684838Y-28560237D01*
X70826883Y-28904013D01*
X71089673Y-29167262D01*
X71433201Y-29309908D01*
X71805167Y-29310232D01*
X72148943Y-29168187D01*
X72412192Y-28905397D01*
X72554838Y-28561869D01*
X72555162Y-28189903D01*
X72413117Y-27846127D01*
X72400000Y-27832987D01*
X72400000Y-27687513D01*
X72432192Y-27655377D01*
X72574838Y-27311849D01*
X72575162Y-26939883D01*
X72433117Y-26596107D01*
X72170327Y-26332858D01*
X71826799Y-26190212D01*
X71454833Y-26189888D01*
X71111057Y-26331933D01*
X70847808Y-26594723D01*
X70705162Y-26938251D01*
X70704838Y-27310217D01*
X70846883Y-27653993D01*
X70880000Y-27687168D01*
X70880000Y-27792642D01*
X70827808Y-27844743D01*
X70685162Y-28188271D01*
X70684838Y-28560237D01*
X66510000Y-28560237D01*
X66510000Y-19696048D01*
X66957800Y-19511020D01*
X67558909Y-18910959D01*
X67884628Y-18126541D01*
X67885031Y-17664848D01*
X67920077Y-17664879D01*
X71612599Y-21357401D01*
X71859160Y-21522148D01*
X71907414Y-21531746D01*
X72150000Y-21580000D01*
X73595095Y-21580000D01*
X73594981Y-21710576D01*
X73160679Y-22144878D01*
X73115192Y-22144838D01*
X72771416Y-22286883D01*
X72508167Y-22549673D01*
X72365521Y-22893201D01*
X72365197Y-23265167D01*
X72507242Y-23608943D01*
X72770032Y-23872192D01*
X73113560Y-24014838D01*
X73485526Y-24015162D01*
X73829302Y-23873117D01*
X74092551Y-23610327D01*
X74235197Y-23266799D01*
X74235238Y-23219923D01*
X74910856Y-22544305D01*
X75058943Y-22483117D01*
X75322192Y-22220327D01*
X75464838Y-21876799D01*
X75465097Y-21580000D01*
X81130000Y-21580000D01*
X81420839Y-21522148D01*
X81667401Y-21357401D01*
X83375983Y-19648819D01*
X83490000Y-19696164D01*
X83490000Y-31503952D01*
X83042200Y-31688980D01*
X82441091Y-32289041D01*
X82115372Y-33073459D01*
X82114630Y-33922815D01*
X82438980Y-34707800D01*
X83039041Y-35308909D01*
X83490000Y-35496164D01*
X83490000Y-48818528D01*
X75957347Y-56351181D01*
X75509871Y-56165372D01*
X74660515Y-56164630D01*
X73875530Y-56488980D01*
X73274421Y-57089041D01*
X72948702Y-57873459D01*
X72947960Y-58722815D01*
X73272310Y-59507800D01*
X73872371Y-60108909D01*
X74656789Y-60434628D01*
X75506145Y-60435370D01*
X76291130Y-60111020D01*
X76892239Y-59510959D01*
X77011886Y-59222815D01*
X86447960Y-59222815D01*
X86772310Y-60007800D01*
X87372371Y-60608909D01*
X88156789Y-60934628D01*
X89006145Y-60935370D01*
X89791130Y-60611020D01*
X90392239Y-60010959D01*
X90717958Y-59226541D01*
X90718700Y-58377185D01*
X90394350Y-57592200D01*
X89794289Y-56991091D01*
X89009871Y-56665372D01*
X88160515Y-56664630D01*
X87375530Y-56988980D01*
X86774421Y-57589041D01*
X86448702Y-58373459D01*
X86447960Y-59222815D01*
X77011886Y-59222815D01*
X77217958Y-58726541D01*
X77218700Y-57877185D01*
X77032232Y-57425900D01*
X84787401Y-49670731D01*
X84952148Y-49424169D01*
X85010000Y-49133330D01*
X85010000Y-35496048D01*
X85457800Y-35311020D01*
X86058909Y-34710959D01*
X86250000Y-34250761D01*
X86250000Y-45027537D01*
X86217808Y-45059673D01*
X86075162Y-45403201D01*
X86074838Y-45775167D01*
X86216883Y-46118943D01*
X86479673Y-46382192D01*
X86823201Y-46524838D01*
X87195167Y-46525162D01*
X87538943Y-46383117D01*
X87802192Y-46120327D01*
X87944838Y-45776799D01*
X87945162Y-45404833D01*
X87803117Y-45061057D01*
X87770000Y-45027882D01*
X87770000Y-34422815D01*
X95614630Y-34422815D01*
X95938980Y-35207800D01*
X96539041Y-35808909D01*
X97323459Y-36134628D01*
X98172815Y-36135370D01*
X98957800Y-35811020D01*
X99558909Y-35210959D01*
X99884628Y-34426541D01*
X99885370Y-33577185D01*
X99561020Y-32792200D01*
X98960959Y-32191091D01*
X98176541Y-31865372D01*
X97327185Y-31864630D01*
X96542200Y-32188980D01*
X95941091Y-32789041D01*
X95615372Y-33573459D01*
X95614630Y-34422815D01*
X87770000Y-34422815D01*
X87770000Y-18622815D01*
X95614630Y-18622815D01*
X95938980Y-19407800D01*
X96539041Y-20008909D01*
X97323459Y-20334628D01*
X98172815Y-20335370D01*
X98957800Y-20011020D01*
X99558909Y-19410959D01*
X99884628Y-18626541D01*
X99885370Y-17777185D01*
X99561020Y-16992200D01*
X98960959Y-16391091D01*
X98176541Y-16065372D01*
X97327185Y-16064630D01*
X96542200Y-16388980D01*
X95941091Y-16989041D01*
X95615372Y-17773459D01*
X95614630Y-18622815D01*
X87770000Y-18622815D01*
X87770000Y-14424936D01*
X87712148Y-14134097D01*
X87547401Y-13887535D01*
X86395122Y-12735256D01*
X86395162Y-12689769D01*
X86253117Y-12345993D01*
X85990327Y-12082744D01*
X85646799Y-11940098D01*
X85274833Y-11939774D01*
X85010000Y-12049200D01*
X85010000Y-3896048D01*
X85457800Y-3711020D01*
X86058909Y-3110959D01*
X86178556Y-2822815D01*
X95614630Y-2822815D01*
X95938980Y-3607800D01*
X96539041Y-4208909D01*
X97323459Y-4534628D01*
X98172815Y-4535370D01*
X98957800Y-4211020D01*
X99558909Y-3610959D01*
X99884628Y-2826541D01*
X99885370Y-1977185D01*
X99561020Y-1192200D01*
X98960959Y-591091D01*
X98176541Y-265372D01*
X97327185Y-264630D01*
X96542200Y-588980D01*
X95941091Y-1189041D01*
X95615372Y-1973459D01*
X95614630Y-2822815D01*
X86178556Y-2822815D01*
X86384628Y-2326541D01*
X86385370Y-1477185D01*
X86061020Y-692200D01*
X85460959Y-91091D01*
X84676541Y234628D01*
X83827185Y235370D01*
X83042200Y-88980D01*
X82441091Y-689041D01*
X82115372Y-1473459D01*
X82114630Y-2322815D01*
X82438980Y-3107800D01*
X83039041Y-3708909D01*
X83490000Y-3896164D01*
X83490000Y-15703952D01*
X83042200Y-15888980D01*
X82441091Y-16489041D01*
X82115372Y-17273459D01*
X82115160Y-17516094D01*
X80936664Y-16337598D01*
X80690102Y-16172851D01*
X80399263Y-16114999D01*
X78040002Y-16114999D01*
X77749163Y-16172851D01*
X77502601Y-16337598D01*
X74575198Y-19265001D01*
X72553701Y-19265001D01*
X72311871Y-19023171D01*
X72414894Y-18920327D01*
X72557540Y-18576799D01*
X72557864Y-18204833D01*
X72415819Y-17861057D01*
X72153029Y-17597808D01*
X71809501Y-17455162D01*
X71762625Y-17455121D01*
X71754999Y-17447495D01*
X71754999Y-13184801D01*
X75269800Y-9670000D01*
X76427537Y-9670000D01*
X76459673Y-9702192D01*
X76558243Y-9743122D01*
X76475162Y-9943201D01*
X76474838Y-10315167D01*
X76616883Y-10658943D01*
X76879673Y-10922192D01*
X77223201Y-11064838D01*
X77595167Y-11065162D01*
X77938943Y-10923117D01*
X78202192Y-10660327D01*
X78344838Y-10316799D01*
X78344921Y-10221451D01*
X78412147Y-10120840D01*
X78469999Y-9830001D01*
X78469999Y-8704997D01*
X78412147Y-8414158D01*
X78412147Y-8414157D01*
X78247400Y-8167596D01*
X76722403Y-6642599D01*
X76475841Y-6477852D01*
X76185002Y-6420000D01*
X75682463Y-6420000D01*
X75650327Y-6387808D01*
X75306799Y-6245162D01*
X74934833Y-6244838D01*
X74591057Y-6386883D01*
X74327808Y-6649673D01*
X74185162Y-6993201D01*
X74184838Y-7365167D01*
X74326883Y-7708943D01*
X74589673Y-7972192D01*
X74933201Y-8114838D01*
X75305167Y-8115162D01*
X75648943Y-7973117D01*
X75682118Y-7940000D01*
X75870200Y-7940000D01*
X76080200Y-8150000D01*
X74954998Y-8150000D01*
X74664158Y-8207852D01*
X74417597Y-8372599D01*
X70457598Y-12332598D01*
X70292851Y-12579160D01*
X70234999Y-12869999D01*
X70234999Y-16946299D01*
X69992071Y-16703371D01*
X69992111Y-16657884D01*
X69850066Y-16314108D01*
X69587276Y-16050859D01*
X69243748Y-15908213D01*
X68871782Y-15907889D01*
X68651373Y-15998960D01*
X68590327Y-15937808D01*
X68246799Y-15795162D01*
X67874833Y-15794838D01*
X67531057Y-15936883D01*
X67268407Y-16199075D01*
X66960959Y-15891091D01*
X66510000Y-15703836D01*
X66510000Y-3896048D01*
X66957800Y-3711020D01*
X67558909Y-3110959D01*
X67884628Y-2326541D01*
X67885370Y-1477185D01*
X67561020Y-692200D01*
X66960959Y-91091D01*
X66176541Y234628D01*
X65327185Y235370D01*
X64542200Y-88980D01*
X63941091Y-689041D01*
X63615372Y-1473459D01*
X63614630Y-2322815D01*
X63938980Y-3107800D01*
X64539041Y-3708909D01*
X64990000Y-3896164D01*
X64990000Y-11957770D01*
X64824577Y-11792058D01*
X64481049Y-11649412D01*
X64334086Y-11649284D01*
X63765122Y-11080320D01*
X63765162Y-11034833D01*
X63623117Y-10691057D01*
X63360327Y-10427808D01*
X63016799Y-10285162D01*
X62644833Y-10284838D01*
X62301057Y-10426883D01*
X62037808Y-10689673D01*
X61895162Y-11033201D01*
X61894838Y-11405167D01*
X61954281Y-11549031D01*
X61896799Y-11525162D01*
X61524833Y-11524838D01*
X61181057Y-11666883D01*
X60917808Y-11929673D01*
X60775162Y-12273201D01*
X60774838Y-12645167D01*
X60916883Y-12988943D01*
X61179673Y-13252192D01*
X61523201Y-13394838D01*
X61570077Y-13394879D01*
X62330000Y-14154802D01*
X62330000Y-16107537D01*
X62297808Y-16139673D01*
X62155162Y-16483201D01*
X62155073Y-16585544D01*
X61960959Y-16391091D01*
X61176541Y-16065372D01*
X60327185Y-16064630D01*
X59542200Y-16388980D01*
X58941091Y-16989041D01*
X58615372Y-17773459D01*
X58614630Y-18622815D01*
X49178556Y-18622815D01*
X49384628Y-18126541D01*
X49385370Y-17277185D01*
X49061020Y-16492200D01*
X48460959Y-15891091D01*
X48010000Y-15703836D01*
X48010000Y-3896048D01*
X48457800Y-3711020D01*
X49058909Y-3110959D01*
X49384628Y-2326541D01*
X49385370Y-1477185D01*
X49061020Y-692200D01*
X48460959Y-91091D01*
X47676541Y234628D01*
X46827185Y235370D01*
X46042200Y-88980D01*
X45441091Y-689041D01*
X45115372Y-1473459D01*
X45114630Y-2322815D01*
X44385068Y-2322815D01*
X44385370Y-1977185D01*
X44061020Y-1192200D01*
X43460959Y-591091D01*
X42676541Y-265372D01*
X41827185Y-264630D01*
X41042200Y-588980D01*
X40441091Y-1189041D01*
X40115372Y-1973459D01*
X40114630Y-2822815D01*
X30678556Y-2822815D01*
X30884628Y-2326541D01*
X30885370Y-1477185D01*
X30561020Y-692200D01*
X29960959Y-91091D01*
X29176541Y234628D01*
X28327185Y235370D01*
X27542200Y-88980D01*
X26941091Y-689041D01*
X26615372Y-1473459D01*
X26614630Y-2322815D01*
X25885068Y-2322815D01*
X25885370Y-1977185D01*
X25561020Y-1192200D01*
X24960959Y-591091D01*
X24176541Y-265372D01*
X23327185Y-264630D01*
X22542200Y-588980D01*
X21941091Y-1189041D01*
X21615372Y-1973459D01*
X21614630Y-2822815D01*
X12178556Y-2822815D01*
X12384628Y-2326541D01*
X12385370Y-1477185D01*
X12061020Y-692200D01*
X11460959Y-91091D01*
X10676541Y234628D01*
X9827185Y235370D01*
X9042200Y-88980D01*
X8441091Y-689041D01*
X8115372Y-1473459D01*
X8114630Y-2322815D01*
X7385068Y-2322815D01*
X7385370Y-1977185D01*
X7061020Y-1192200D01*
X6460959Y-591091D01*
X5676541Y-265372D01*
X4827185Y-264630D01*
X4042200Y-588980D01*
X3441091Y-1189041D01*
X3115372Y-1973459D01*
X3114630Y-2822815D01*
X710000Y-2822815D01*
X710000Y974833D01*
X47644838Y974833D01*
X47786883Y631057D01*
X48049673Y367808D01*
X48393201Y225162D01*
X48440077Y225121D01*
X49912599Y-1247401D01*
X50159160Y-1412148D01*
X50450000Y-1470000D01*
X52185198Y-1470000D01*
X53032599Y-2317401D01*
X53279161Y-2482148D01*
X53570000Y-2540000D01*
X57160000Y-2540000D01*
X57450839Y-2482148D01*
X57697401Y-2317401D01*
X59554802Y-460000D01*
X59854355Y-460000D01*
X59542200Y-588980D01*
X58941091Y-1189041D01*
X58615372Y-1973459D01*
X58614630Y-2822815D01*
X58938980Y-3607800D01*
X59539041Y-4208909D01*
X59990000Y-4396164D01*
X59990000Y-5715198D01*
X56390320Y-9314878D01*
X56344833Y-9314838D01*
X56001057Y-9456883D01*
X55737808Y-9719673D01*
X55595162Y-10063201D01*
X55594838Y-10435167D01*
X55736883Y-10778943D01*
X55999673Y-11042192D01*
X56343201Y-11184838D01*
X56715167Y-11185162D01*
X57058943Y-11043117D01*
X57322192Y-10780327D01*
X57464838Y-10436799D01*
X57464879Y-10389923D01*
X61287401Y-6567401D01*
X61452148Y-6320840D01*
X61510000Y-6030000D01*
X61510000Y-4396048D01*
X61957800Y-4211020D01*
X62558909Y-3610959D01*
X62884628Y-2826541D01*
X62885370Y-1977185D01*
X62561020Y-1192200D01*
X61960959Y-591091D01*
X61274601Y-306090D01*
X61377401Y-237401D01*
X62019680Y404878D01*
X62065167Y404838D01*
X62408943Y546883D01*
X62672192Y809673D01*
X62814838Y1153201D01*
X62815162Y1525167D01*
X62673117Y1868943D01*
X62410327Y2132192D01*
X62066799Y2274838D01*
X61694833Y2275162D01*
X61351057Y2133117D01*
X61087808Y1870327D01*
X60945162Y1526799D01*
X60945121Y1479923D01*
X60525198Y1060000D01*
X59240000Y1060000D01*
X58949160Y1002148D01*
X58702599Y837401D01*
X56845198Y-1020000D01*
X53884802Y-1020000D01*
X53037401Y-172599D01*
X52790839Y-7852D01*
X52555369Y38986D01*
X52628913Y53615D01*
X53005244Y305071D01*
X53256700Y681402D01*
X53345000Y1125315D01*
X53345000Y1374685D01*
X55875000Y1374685D01*
X55875000Y1125315D01*
X55963300Y681402D01*
X56214756Y305071D01*
X56591087Y53615D01*
X57035000Y-34685D01*
X57478913Y53615D01*
X57855244Y305071D01*
X58106700Y681402D01*
X58195000Y1125315D01*
X58195000Y1374685D01*
X58106700Y1818598D01*
X57855244Y2194929D01*
X57478913Y2446385D01*
X57035000Y2534685D01*
X56591087Y2446385D01*
X56214756Y2194929D01*
X55963300Y1818598D01*
X55875000Y1374685D01*
X53345000Y1374685D01*
X53256700Y1818598D01*
X53005244Y2194929D01*
X52628913Y2446385D01*
X52185000Y2534685D01*
X51741087Y2446385D01*
X51364756Y2194929D01*
X51113300Y1818598D01*
X51025000Y1374685D01*
X51025000Y1125315D01*
X51113300Y681402D01*
X51364756Y305071D01*
X51741087Y53615D01*
X51759261Y50000D01*
X50764802Y50000D01*
X49515122Y1299680D01*
X49515162Y1345167D01*
X49373117Y1688943D01*
X49110327Y1952192D01*
X48766799Y2094838D01*
X48394833Y2095162D01*
X48051057Y1953117D01*
X47787808Y1690327D01*
X47645162Y1346799D01*
X47644838Y974833D01*
X710000Y974833D01*
X710000Y1290000D01*
X45200000Y1290000D01*
X45471705Y1344046D01*
X45702046Y1497954D01*
X45855954Y1728295D01*
X45910000Y2000000D01*
X45910000Y4990000D01*
X49262560Y4990000D01*
X49262560Y3300000D01*
X49262560Y3300000D01*
G37*
X49262560Y3300000D02*
X49306838Y3064683D01*
X49445910Y2848559D01*
X49658110Y2703569D01*
X49910000Y2652560D01*
X52010000Y2652560D01*
X52245317Y2696838D01*
X52461441Y2835910D01*
X52606431Y3048110D01*
X52657440Y3300000D01*
X52657440Y4990000D01*
X56562560Y4990000D01*
X56562560Y3300000D01*
X56606838Y3064683D01*
X56745910Y2848559D01*
X56958110Y2703569D01*
X57210000Y2652560D01*
X59310000Y2652560D01*
X59545317Y2696838D01*
X59761441Y2835910D01*
X59906431Y3048110D01*
X59957440Y3300000D01*
X59957440Y4990000D01*
X68292374Y4990000D01*
X68179969Y4825490D01*
X68128960Y4573600D01*
X68128960Y2846400D01*
X68173238Y2611083D01*
X68312310Y2394959D01*
X68524510Y2249969D01*
X68568345Y2241092D01*
X68255474Y1772848D01*
X68141400Y1199359D01*
X68141400Y1140641D01*
X68255474Y567152D01*
X68580330Y80971D01*
X69066511Y-243885D01*
X69072124Y-245002D01*
X68472599Y-844527D01*
X68307852Y-1091089D01*
X68250000Y-1381928D01*
X68250000Y-2707537D01*
X68217808Y-2739673D01*
X68075162Y-3083201D01*
X68074838Y-3455167D01*
X68216883Y-3798943D01*
X68479673Y-4062192D01*
X68823201Y-4204838D01*
X69195167Y-4205162D01*
X69538943Y-4063117D01*
X69802192Y-3800327D01*
X69866629Y-3645146D01*
X69885167Y-3645162D01*
X70228943Y-3503117D01*
X70492192Y-3240327D01*
X70634838Y-2896799D01*
X70634879Y-2849923D01*
X70661987Y-2822815D01*
X77114630Y-2822815D01*
X77438980Y-3607800D01*
X78039041Y-4208909D01*
X78823459Y-4534628D01*
X79672815Y-4535370D01*
X80457800Y-4211020D01*
X81058909Y-3610959D01*
X81384628Y-2826541D01*
X81385370Y-1977185D01*
X81061020Y-1192200D01*
X80460959Y-591091D01*
X79676541Y-265372D01*
X78827185Y-264630D01*
X78042200Y-588980D01*
X77441091Y-1189041D01*
X77115372Y-1973459D01*
X77114630Y-2822815D01*
X70661987Y-2822815D01*
X72717401Y-767401D01*
X72882148Y-520839D01*
X72940000Y-230000D01*
X72940000Y-119262D01*
X73239670Y80971D01*
X73564526Y567152D01*
X73678600Y1140641D01*
X73678600Y1199359D01*
X73564526Y1772848D01*
X73239670Y2259029D01*
X72968828Y2440000D01*
X73239670Y2620971D01*
X73450000Y2935752D01*
X73660330Y2620971D01*
X74146511Y2296115D01*
X74720000Y2182041D01*
X75293489Y2296115D01*
X75779670Y2620971D01*
X76104526Y3107152D01*
X76218600Y3680641D01*
X76218600Y3739359D01*
X76104526Y4312848D01*
X75779670Y4799029D01*
X75493862Y4990000D01*
X107290000Y4990000D01*
X107290000Y2000000D01*
X107344046Y1728295D01*
X107497954Y1497954D01*
X107728295Y1344046D01*
X108000000Y1290000D01*
X108873000Y1290000D01*
X108873000Y-46100238D01*
X108157381Y-46099613D01*
X107684983Y-46294804D01*
X107685370Y-45852185D01*
X107626620Y-45710000D01*
X108000000Y-45710000D01*
X108271705Y-45655954D01*
X108502046Y-45502046D01*
X108655954Y-45271705D01*
X108710000Y-45000000D01*
X108655954Y-44728295D01*
X108502046Y-44497954D01*
X108271705Y-44344046D01*
X108000000Y-44290000D01*
X106336885Y-44290000D01*
X105976541Y-44140372D01*
X105127185Y-44139630D01*
X105076950Y-44160387D01*
X105076950Y-38908552D01*
X105145892Y-38880066D01*
X105409141Y-38617276D01*
X105551787Y-38273748D01*
X105552111Y-37901782D01*
X105443898Y-37639887D01*
X105544838Y-37396799D01*
X105545162Y-37024833D01*
X105403117Y-36681057D01*
X105383336Y-36661242D01*
X105484838Y-36416799D01*
X105485162Y-36044833D01*
X105343117Y-35701057D01*
X105080327Y-35437808D01*
X104736799Y-35295162D01*
X104364833Y-35294838D01*
X104021057Y-35436883D01*
X103757808Y-35699673D01*
X103615162Y-36043201D01*
X103615121Y-36090077D01*
X101472989Y-38232209D01*
X101472989Y-35851813D01*
X101875983Y-35448819D01*
X102323459Y-35634628D01*
X103172815Y-35635370D01*
X103957800Y-35311020D01*
X104558909Y-34710959D01*
X104884628Y-33926541D01*
X104885370Y-33077185D01*
X104561020Y-32292200D01*
X103960959Y-31691091D01*
X103510000Y-31503836D01*
X103510000Y-19696048D01*
X103957800Y-19511020D01*
X104558909Y-18910959D01*
X104884628Y-18126541D01*
X104885370Y-17277185D01*
X104561020Y-16492200D01*
X103960959Y-15891091D01*
X103510000Y-15703836D01*
X103510000Y-3896048D01*
X103957800Y-3711020D01*
X104558909Y-3110959D01*
X104884628Y-2326541D01*
X104885370Y-1477185D01*
X104561020Y-692200D01*
X103960959Y-91091D01*
X103176541Y234628D01*
X102327185Y235370D01*
X101542200Y-88980D01*
X100941091Y-689041D01*
X100615372Y-1473459D01*
X100614630Y-2322815D01*
X100938980Y-3107800D01*
X101539041Y-3708909D01*
X101990000Y-3896164D01*
X101990000Y-15703952D01*
X101542200Y-15888980D01*
X100941091Y-16489041D01*
X100615372Y-17273459D01*
X100614630Y-18122815D01*
X100938980Y-18907800D01*
X101539041Y-19508909D01*
X101990000Y-19696164D01*
X101990000Y-31503952D01*
X101542200Y-31688980D01*
X100941091Y-32289041D01*
X100615372Y-33073459D01*
X100614630Y-33922815D01*
X100801098Y-34374100D01*
X100175588Y-34999610D01*
X100010841Y-35246172D01*
X99952989Y-35537011D01*
X99952989Y-43167935D01*
X96372599Y-46748325D01*
X96207852Y-46994887D01*
X96184301Y-47113286D01*
X96126144Y-47171342D01*
X93755122Y-44800320D01*
X93755162Y-44754833D01*
X93613117Y-44411057D01*
X93350327Y-44147808D01*
X93006799Y-44005162D01*
X92634833Y-44004838D01*
X92291057Y-44146883D01*
X92027808Y-44409673D01*
X91885162Y-44753201D01*
X91884838Y-45125167D01*
X92026883Y-45468943D01*
X92289673Y-45732192D01*
X92633201Y-45874838D01*
X92680077Y-45874879D01*
X95677599Y-48872401D01*
X95722677Y-48902521D01*
X93045929Y-51579269D01*
X92881182Y-51825831D01*
X92823330Y-52116670D01*
X92823330Y-56303952D01*
X92375530Y-56488980D01*
X91774421Y-57089041D01*
X91448702Y-57873459D01*
X91447960Y-58722815D01*
X91772310Y-59507800D01*
X92372371Y-60108909D01*
X93156789Y-60434628D01*
X94006145Y-60435370D01*
X94791130Y-60111020D01*
X95392239Y-59510959D01*
X95717958Y-58726541D01*
X95718700Y-57877185D01*
X95394350Y-57092200D01*
X94794289Y-56491091D01*
X94343330Y-56303836D01*
X94343330Y-52431472D01*
X96829680Y-49945122D01*
X96875167Y-49945162D01*
X97218943Y-49803117D01*
X97482192Y-49540327D01*
X97624838Y-49196799D01*
X97624927Y-49095000D01*
X98512469Y-49095000D01*
X98524990Y-49125303D01*
X98917630Y-49518629D01*
X99125512Y-49604949D01*
X98919697Y-49689990D01*
X98526371Y-50082630D01*
X98313243Y-50595900D01*
X98312758Y-51151661D01*
X98524990Y-51665303D01*
X98917630Y-52058629D01*
X99125512Y-52144949D01*
X98919697Y-52229990D01*
X98526371Y-52622630D01*
X98313243Y-53135900D01*
X98312758Y-53691661D01*
X98524990Y-54205303D01*
X98917630Y-54598629D01*
X99125512Y-54684949D01*
X98919697Y-54769990D01*
X98526371Y-55162630D01*
X98313243Y-55675900D01*
X98312758Y-56231661D01*
X98524990Y-56745303D01*
X98917630Y-57138629D01*
X99125512Y-57224949D01*
X98919697Y-57309990D01*
X98526371Y-57702630D01*
X98313243Y-58215900D01*
X98312758Y-58771661D01*
X98524990Y-59285303D01*
X98917630Y-59678629D01*
X99430900Y-59891757D01*
X99986661Y-59892242D01*
X100500303Y-59680010D01*
X100893629Y-59287370D01*
X101106757Y-58774100D01*
X101107242Y-58218339D01*
X100895010Y-57704697D01*
X100502370Y-57311371D01*
X100294488Y-57225051D01*
X100500303Y-57140010D01*
X100893629Y-56747370D01*
X101106757Y-56234100D01*
X101107242Y-55678339D01*
X100895010Y-55164697D01*
X100502370Y-54771371D01*
X100294488Y-54685051D01*
X100500303Y-54600010D01*
X100795513Y-54305315D01*
X100865817Y-54375619D01*
X100853243Y-54405900D01*
X100852758Y-54961661D01*
X101064990Y-55475303D01*
X101457630Y-55868629D01*
X101665512Y-55954949D01*
X101459697Y-56039990D01*
X101066371Y-56432630D01*
X100853243Y-56945900D01*
X100852758Y-57501661D01*
X101064990Y-58015303D01*
X101457630Y-58408629D01*
X101665512Y-58494949D01*
X101459697Y-58579990D01*
X101066371Y-58972630D01*
X100853243Y-59485900D01*
X100852758Y-60041661D01*
X101064990Y-60555303D01*
X101457630Y-60948629D01*
X101970900Y-61161757D01*
X102526661Y-61162242D01*
X103040303Y-60950010D01*
X103433629Y-60557370D01*
X103646757Y-60044100D01*
X103647242Y-59488339D01*
X103633857Y-59455945D01*
X104324412Y-58765390D01*
X104489159Y-58518829D01*
X104511079Y-58408629D01*
X104547011Y-58227989D01*
X104547011Y-48170266D01*
X105123459Y-48409628D01*
X105972815Y-48410370D01*
X106365075Y-48248291D01*
X106364613Y-48777619D01*
X106704155Y-49599372D01*
X107332321Y-50228636D01*
X108153481Y-50569611D01*
X108873000Y-50570239D01*
X108873000Y-57530238D01*
X108157381Y-57529613D01*
X107335628Y-57869155D01*
X106706364Y-58497321D01*
X106365389Y-59318481D01*
X106364924Y-59851643D01*
X105976541Y-59690372D01*
X105127185Y-59689630D01*
X104342200Y-60013980D01*
X103741091Y-60614041D01*
X103415372Y-61398459D01*
X103414630Y-62247815D01*
X103672952Y-62873000D01*
X60965308Y-62873000D01*
X49010952Y-59222815D01*
X67947960Y-59222815D01*
X68272310Y-60007800D01*
X68872371Y-60608909D01*
X69656789Y-60934628D01*
X70506145Y-60935370D01*
X71291130Y-60611020D01*
X71892239Y-60010959D01*
X72217958Y-59226541D01*
X72218700Y-58377185D01*
X71894350Y-57592200D01*
X71294289Y-56991091D01*
X70509871Y-56665372D01*
X69660515Y-56664630D01*
X68875530Y-56988980D01*
X68274421Y-57589041D01*
X67948702Y-58373459D01*
X67947960Y-59222815D01*
X49010952Y-59222815D01*
X710000Y-44474433D01*
X710000Y-34422815D01*
X3114630Y-34422815D01*
X3438980Y-35207800D01*
X4039041Y-35808909D01*
X4823459Y-36134628D01*
X5672815Y-36135370D01*
X6457800Y-35811020D01*
X7058909Y-35210959D01*
X7384628Y-34426541D01*
X7385370Y-33577185D01*
X7061020Y-32792200D01*
X6460959Y-32191091D01*
X5676541Y-31865372D01*
X4827185Y-31864630D01*
X4042200Y-32188980D01*
X3441091Y-32789041D01*
X3115372Y-33573459D01*
X3114630Y-34422815D01*
X710000Y-34422815D01*
X710000Y-18622815D01*
X3114630Y-18622815D01*
X3438980Y-19407800D01*
X4039041Y-20008909D01*
X4823459Y-20334628D01*
X5672815Y-20335370D01*
X6457800Y-20011020D01*
X7058909Y-19410959D01*
X7384628Y-18626541D01*
X7385370Y-17777185D01*
X7061020Y-16992200D01*
X6460959Y-16391091D01*
X5676541Y-16065372D01*
X4827185Y-16064630D01*
X4042200Y-16388980D01*
X3441091Y-16989041D01*
X3115372Y-17773459D01*
X3114630Y-18622815D01*
X710000Y-18622815D01*
X710000Y-2822815D01*
X3114630Y-2822815D01*
X3438980Y-3607800D01*
X4039041Y-4208909D01*
X4823459Y-4534628D01*
X5672815Y-4535370D01*
X6457800Y-4211020D01*
X7058909Y-3610959D01*
X7384628Y-2826541D01*
X7385068Y-2322815D01*
X8114630Y-2322815D01*
X8438980Y-3107800D01*
X9039041Y-3708909D01*
X9490000Y-3896164D01*
X9490000Y-15703952D01*
X9042200Y-15888980D01*
X8441091Y-16489041D01*
X8115372Y-17273459D01*
X8114630Y-18122815D01*
X8438980Y-18907800D01*
X9039041Y-19508909D01*
X9490000Y-19696164D01*
X9490000Y-31503952D01*
X9042200Y-31688980D01*
X8441091Y-32289041D01*
X8115372Y-33073459D01*
X8114630Y-33922815D01*
X8438980Y-34707800D01*
X9039041Y-35308909D01*
X9823459Y-35634628D01*
X10672815Y-35635370D01*
X11457800Y-35311020D01*
X12058909Y-34710959D01*
X12178556Y-34422815D01*
X21614630Y-34422815D01*
X21938980Y-35207800D01*
X22539041Y-35808909D01*
X23323459Y-36134628D01*
X24172815Y-36135370D01*
X24957800Y-35811020D01*
X25558909Y-35210959D01*
X25884628Y-34426541D01*
X25885370Y-33577185D01*
X25561020Y-32792200D01*
X24960959Y-32191091D01*
X24176541Y-31865372D01*
X23327185Y-31864630D01*
X22542200Y-32188980D01*
X21941091Y-32789041D01*
X21615372Y-33573459D01*
X21614630Y-34422815D01*
X12178556Y-34422815D01*
X12384628Y-33926541D01*
X12385370Y-33077185D01*
X12061020Y-32292200D01*
X11460959Y-31691091D01*
X11010000Y-31503836D01*
X11010000Y-19696048D01*
X11457800Y-19511020D01*
X12058909Y-18910959D01*
X12178556Y-18622815D01*
X21614630Y-18622815D01*
X21938980Y-19407800D01*
X22539041Y-20008909D01*
X23323459Y-20334628D01*
X24172815Y-20335370D01*
X24957800Y-20011020D01*
X25558909Y-19410959D01*
X25884628Y-18626541D01*
X25885370Y-17777185D01*
X25561020Y-16992200D01*
X24960959Y-16391091D01*
X24176541Y-16065372D01*
X23327185Y-16064630D01*
X22542200Y-16388980D01*
X21941091Y-16989041D01*
X21615372Y-17773459D01*
X21614630Y-18622815D01*
X12178556Y-18622815D01*
X12384628Y-18126541D01*
X12385370Y-17277185D01*
X12061020Y-16492200D01*
X11460959Y-15891091D01*
X11010000Y-15703836D01*
X11010000Y-3896048D01*
X11457800Y-3711020D01*
X12058909Y-3110959D01*
X12178556Y-2822815D01*
X21614630Y-2822815D01*
X21938980Y-3607800D01*
X22539041Y-4208909D01*
X23323459Y-4534628D01*
X24172815Y-4535370D01*
X24957800Y-4211020D01*
X25558909Y-3610959D01*
X25884628Y-2826541D01*
X25885068Y-2322815D01*
X26614630Y-2322815D01*
X26938980Y-3107800D01*
X27539041Y-3708909D01*
X27990000Y-3896164D01*
X27990000Y-15703952D01*
X27542200Y-15888980D01*
X26941091Y-16489041D01*
X26615372Y-17273459D01*
X26614630Y-18122815D01*
X26938980Y-18907800D01*
X27539041Y-19508909D01*
X27990000Y-19696164D01*
X27990000Y-31503952D01*
X27542200Y-31688980D01*
X26941091Y-32289041D01*
X26615372Y-33073459D01*
X26614630Y-33922815D01*
X26938980Y-34707800D01*
X27539041Y-35308909D01*
X28323459Y-35634628D01*
X29172815Y-35635370D01*
X29957800Y-35311020D01*
X30558909Y-34710959D01*
X30678556Y-34422815D01*
X40114630Y-34422815D01*
X40438980Y-35207800D01*
X41039041Y-35808909D01*
X41823459Y-36134628D01*
X42672815Y-36135370D01*
X43457800Y-35811020D01*
X44058909Y-35210959D01*
X44384628Y-34426541D01*
X44385370Y-33577185D01*
X44061020Y-32792200D01*
X43460959Y-32191091D01*
X42676541Y-31865372D01*
X41827185Y-31864630D01*
X41042200Y-32188980D01*
X40441091Y-32789041D01*
X40115372Y-33573459D01*
X40114630Y-34422815D01*
X30678556Y-34422815D01*
X30884628Y-33926541D01*
X30885370Y-33077185D01*
X30561020Y-32292200D01*
X29960959Y-31691091D01*
X29510000Y-31503836D01*
X29510000Y-19696048D01*
X29957800Y-19511020D01*
X30558909Y-18910959D01*
X30678556Y-18622815D01*
X40114630Y-18622815D01*
X40438980Y-19407800D01*
X41039041Y-20008909D01*
X41823459Y-20334628D01*
X42672815Y-20335370D01*
X43457800Y-20011020D01*
X44058909Y-19410959D01*
X44384628Y-18626541D01*
X44385370Y-17777185D01*
X44061020Y-16992200D01*
X43460959Y-16391091D01*
X42676541Y-16065372D01*
X41827185Y-16064630D01*
X41042200Y-16388980D01*
X40441091Y-16989041D01*
X40115372Y-17773459D01*
X40114630Y-18622815D01*
X30678556Y-18622815D01*
X30884628Y-18126541D01*
X30885370Y-17277185D01*
X30561020Y-16492200D01*
X29960959Y-15891091D01*
X29510000Y-15703836D01*
X29510000Y-3896048D01*
X29957800Y-3711020D01*
X30558909Y-3110959D01*
X30678556Y-2822815D01*
X40114630Y-2822815D01*
X40438980Y-3607800D01*
X41039041Y-4208909D01*
X41823459Y-4534628D01*
X42672815Y-4535370D01*
X43457800Y-4211020D01*
X44058909Y-3610959D01*
X44384628Y-2826541D01*
X44385068Y-2322815D01*
X45114630Y-2322815D01*
X45438980Y-3107800D01*
X46039041Y-3708909D01*
X46490000Y-3896164D01*
X46490000Y-15703952D01*
X46042200Y-15888980D01*
X45441091Y-16489041D01*
X45115372Y-17273459D01*
X45114630Y-18122815D01*
X45438980Y-18907800D01*
X46039041Y-19508909D01*
X46490000Y-19696164D01*
X46490000Y-31503952D01*
X46042200Y-31688980D01*
X45441091Y-32289041D01*
X45115372Y-33073459D01*
X45114630Y-33922815D01*
X45438980Y-34707800D01*
X46039041Y-35308909D01*
X46823459Y-35634628D01*
X47672815Y-35635370D01*
X48457800Y-35311020D01*
X49058909Y-34710959D01*
X49178556Y-34422815D01*
X58614630Y-34422815D01*
X58938980Y-35207800D01*
X59539041Y-35808909D01*
X60323459Y-36134628D01*
X61172815Y-36135370D01*
X61957800Y-35811020D01*
X62558909Y-35210959D01*
X62884628Y-34426541D01*
X62885370Y-33577185D01*
X62561020Y-32792200D01*
X61960959Y-32191091D01*
X61176541Y-31865372D01*
X60327185Y-31864630D01*
X59542200Y-32188980D01*
X58941091Y-32789041D01*
X58615372Y-33573459D01*
X58614630Y-34422815D01*
X49178556Y-34422815D01*
X49384628Y-33926541D01*
X49385370Y-33077185D01*
X49061020Y-32292200D01*
X48460959Y-31691091D01*
X48010000Y-31503836D01*
X48010000Y-19696048D01*
X48457800Y-19511020D01*
X49058909Y-18910959D01*
X49178556Y-18622815D01*
X58614630Y-18622815D01*
X58938980Y-19407800D01*
X59539041Y-20008909D01*
X60323459Y-20334628D01*
X61172815Y-20335370D01*
X61957800Y-20011020D01*
X62558909Y-19410959D01*
X62884628Y-18626541D01*
X62885370Y-17777185D01*
X62795716Y-17560206D01*
X62903201Y-17604838D01*
X63275167Y-17605162D01*
X63615205Y-17464662D01*
X63614630Y-18122815D01*
X63938980Y-18907800D01*
X64539041Y-19508909D01*
X64990000Y-19696164D01*
X64990000Y-31503952D01*
X64542200Y-31688980D01*
X63941091Y-32289041D01*
X63615372Y-33073459D01*
X63614630Y-33922815D01*
X63938980Y-34707800D01*
X64539041Y-35308909D01*
X65323459Y-35634628D01*
X66172815Y-35635370D01*
X66957800Y-35311020D01*
X67558909Y-34710959D01*
X67678556Y-34422815D01*
X77114630Y-34422815D01*
X77438980Y-35207800D01*
X78039041Y-35808909D01*
X78823459Y-36134628D01*
X79672815Y-36135370D01*
X80457800Y-35811020D01*
X81058909Y-35210959D01*
X81384628Y-34426541D01*
X81385370Y-33577185D01*
X81061020Y-32792200D01*
X80460959Y-32191091D01*
X79676541Y-31865372D01*
X78827185Y-31864630D01*
X78042200Y-32188980D01*
X77441091Y-32789041D01*
X77115372Y-33573459D01*
X77114630Y-34422815D01*
X67678556Y-34422815D01*
X67884628Y-33926541D01*
X67885370Y-33077185D01*
X67561020Y-32292200D01*
X66960959Y-31691091D01*
X66510000Y-31503836D01*
X66510000Y-28560237D01*
X70684838Y-28560237D01*
X70826883Y-28904013D01*
X71089673Y-29167262D01*
X71433201Y-29309908D01*
X71805167Y-29310232D01*
X72148943Y-29168187D01*
X72412192Y-28905397D01*
X72554838Y-28561869D01*
X72555162Y-28189903D01*
X72413117Y-27846127D01*
X72400000Y-27832987D01*
X72400000Y-27687513D01*
X72432192Y-27655377D01*
X72574838Y-27311849D01*
X72575162Y-26939883D01*
X72433117Y-26596107D01*
X72170327Y-26332858D01*
X71826799Y-26190212D01*
X71454833Y-26189888D01*
X71111057Y-26331933D01*
X70847808Y-26594723D01*
X70705162Y-26938251D01*
X70704838Y-27310217D01*
X70846883Y-27653993D01*
X70880000Y-27687168D01*
X70880000Y-27792642D01*
X70827808Y-27844743D01*
X70685162Y-28188271D01*
X70684838Y-28560237D01*
X66510000Y-28560237D01*
X66510000Y-19696048D01*
X66957800Y-19511020D01*
X67558909Y-18910959D01*
X67884628Y-18126541D01*
X67885031Y-17664848D01*
X67920077Y-17664879D01*
X71612599Y-21357401D01*
X71859160Y-21522148D01*
X71907414Y-21531746D01*
X72150000Y-21580000D01*
X73595095Y-21580000D01*
X73594981Y-21710576D01*
X73160679Y-22144878D01*
X73115192Y-22144838D01*
X72771416Y-22286883D01*
X72508167Y-22549673D01*
X72365521Y-22893201D01*
X72365197Y-23265167D01*
X72507242Y-23608943D01*
X72770032Y-23872192D01*
X73113560Y-24014838D01*
X73485526Y-24015162D01*
X73829302Y-23873117D01*
X74092551Y-23610327D01*
X74235197Y-23266799D01*
X74235238Y-23219923D01*
X74910856Y-22544305D01*
X75058943Y-22483117D01*
X75322192Y-22220327D01*
X75464838Y-21876799D01*
X75465097Y-21580000D01*
X81130000Y-21580000D01*
X81420839Y-21522148D01*
X81667401Y-21357401D01*
X83375983Y-19648819D01*
X83490000Y-19696164D01*
X83490000Y-31503952D01*
X83042200Y-31688980D01*
X82441091Y-32289041D01*
X82115372Y-33073459D01*
X82114630Y-33922815D01*
X82438980Y-34707800D01*
X83039041Y-35308909D01*
X83490000Y-35496164D01*
X83490000Y-48818528D01*
X75957347Y-56351181D01*
X75509871Y-56165372D01*
X74660515Y-56164630D01*
X73875530Y-56488980D01*
X73274421Y-57089041D01*
X72948702Y-57873459D01*
X72947960Y-58722815D01*
X73272310Y-59507800D01*
X73872371Y-60108909D01*
X74656789Y-60434628D01*
X75506145Y-60435370D01*
X76291130Y-60111020D01*
X76892239Y-59510959D01*
X77011886Y-59222815D01*
X86447960Y-59222815D01*
X86772310Y-60007800D01*
X87372371Y-60608909D01*
X88156789Y-60934628D01*
X89006145Y-60935370D01*
X89791130Y-60611020D01*
X90392239Y-60010959D01*
X90717958Y-59226541D01*
X90718700Y-58377185D01*
X90394350Y-57592200D01*
X89794289Y-56991091D01*
X89009871Y-56665372D01*
X88160515Y-56664630D01*
X87375530Y-56988980D01*
X86774421Y-57589041D01*
X86448702Y-58373459D01*
X86447960Y-59222815D01*
X77011886Y-59222815D01*
X77217958Y-58726541D01*
X77218700Y-57877185D01*
X77032232Y-57425900D01*
X84787401Y-49670731D01*
X84952148Y-49424169D01*
X85010000Y-49133330D01*
X85010000Y-35496048D01*
X85457800Y-35311020D01*
X86058909Y-34710959D01*
X86250000Y-34250761D01*
X86250000Y-45027537D01*
X86217808Y-45059673D01*
X86075162Y-45403201D01*
X86074838Y-45775167D01*
X86216883Y-46118943D01*
X86479673Y-46382192D01*
X86823201Y-46524838D01*
X87195167Y-46525162D01*
X87538943Y-46383117D01*
X87802192Y-46120327D01*
X87944838Y-45776799D01*
X87945162Y-45404833D01*
X87803117Y-45061057D01*
X87770000Y-45027882D01*
X87770000Y-34422815D01*
X95614630Y-34422815D01*
X95938980Y-35207800D01*
X96539041Y-35808909D01*
X97323459Y-36134628D01*
X98172815Y-36135370D01*
X98957800Y-35811020D01*
X99558909Y-35210959D01*
X99884628Y-34426541D01*
X99885370Y-33577185D01*
X99561020Y-32792200D01*
X98960959Y-32191091D01*
X98176541Y-31865372D01*
X97327185Y-31864630D01*
X96542200Y-32188980D01*
X95941091Y-32789041D01*
X95615372Y-33573459D01*
X95614630Y-34422815D01*
X87770000Y-34422815D01*
X87770000Y-18622815D01*
X95614630Y-18622815D01*
X95938980Y-19407800D01*
X96539041Y-20008909D01*
X97323459Y-20334628D01*
X98172815Y-20335370D01*
X98957800Y-20011020D01*
X99558909Y-19410959D01*
X99884628Y-18626541D01*
X99885370Y-17777185D01*
X99561020Y-16992200D01*
X98960959Y-16391091D01*
X98176541Y-16065372D01*
X97327185Y-16064630D01*
X96542200Y-16388980D01*
X95941091Y-16989041D01*
X95615372Y-17773459D01*
X95614630Y-18622815D01*
X87770000Y-18622815D01*
X87770000Y-14424936D01*
X87712148Y-14134097D01*
X87547401Y-13887535D01*
X86395122Y-12735256D01*
X86395162Y-12689769D01*
X86253117Y-12345993D01*
X85990327Y-12082744D01*
X85646799Y-11940098D01*
X85274833Y-11939774D01*
X85010000Y-12049200D01*
X85010000Y-3896048D01*
X85457800Y-3711020D01*
X86058909Y-3110959D01*
X86178556Y-2822815D01*
X95614630Y-2822815D01*
X95938980Y-3607800D01*
X96539041Y-4208909D01*
X97323459Y-4534628D01*
X98172815Y-4535370D01*
X98957800Y-4211020D01*
X99558909Y-3610959D01*
X99884628Y-2826541D01*
X99885370Y-1977185D01*
X99561020Y-1192200D01*
X98960959Y-591091D01*
X98176541Y-265372D01*
X97327185Y-264630D01*
X96542200Y-588980D01*
X95941091Y-1189041D01*
X95615372Y-1973459D01*
X95614630Y-2822815D01*
X86178556Y-2822815D01*
X86384628Y-2326541D01*
X86385370Y-1477185D01*
X86061020Y-692200D01*
X85460959Y-91091D01*
X84676541Y234628D01*
X83827185Y235370D01*
X83042200Y-88980D01*
X82441091Y-689041D01*
X82115372Y-1473459D01*
X82114630Y-2322815D01*
X82438980Y-3107800D01*
X83039041Y-3708909D01*
X83490000Y-3896164D01*
X83490000Y-15703952D01*
X83042200Y-15888980D01*
X82441091Y-16489041D01*
X82115372Y-17273459D01*
X82115160Y-17516094D01*
X80936664Y-16337598D01*
X80690102Y-16172851D01*
X80399263Y-16114999D01*
X78040002Y-16114999D01*
X77749163Y-16172851D01*
X77502601Y-16337598D01*
X74575198Y-19265001D01*
X72553701Y-19265001D01*
X72311871Y-19023171D01*
X72414894Y-18920327D01*
X72557540Y-18576799D01*
X72557864Y-18204833D01*
X72415819Y-17861057D01*
X72153029Y-17597808D01*
X71809501Y-17455162D01*
X71762625Y-17455121D01*
X71754999Y-17447495D01*
X71754999Y-13184801D01*
X75269800Y-9670000D01*
X76427537Y-9670000D01*
X76459673Y-9702192D01*
X76558243Y-9743122D01*
X76475162Y-9943201D01*
X76474838Y-10315167D01*
X76616883Y-10658943D01*
X76879673Y-10922192D01*
X77223201Y-11064838D01*
X77595167Y-11065162D01*
X77938943Y-10923117D01*
X78202192Y-10660327D01*
X78344838Y-10316799D01*
X78344921Y-10221451D01*
X78412147Y-10120840D01*
X78469999Y-9830001D01*
X78469999Y-8704997D01*
X78412147Y-8414158D01*
X78412147Y-8414157D01*
X78247400Y-8167596D01*
X76722403Y-6642599D01*
X76475841Y-6477852D01*
X76185002Y-6420000D01*
X75682463Y-6420000D01*
X75650327Y-6387808D01*
X75306799Y-6245162D01*
X74934833Y-6244838D01*
X74591057Y-6386883D01*
X74327808Y-6649673D01*
X74185162Y-6993201D01*
X74184838Y-7365167D01*
X74326883Y-7708943D01*
X74589673Y-7972192D01*
X74933201Y-8114838D01*
X75305167Y-8115162D01*
X75648943Y-7973117D01*
X75682118Y-7940000D01*
X75870200Y-7940000D01*
X76080200Y-8150000D01*
X74954998Y-8150000D01*
X74664158Y-8207852D01*
X74417597Y-8372599D01*
X70457598Y-12332598D01*
X70292851Y-12579160D01*
X70234999Y-12869999D01*
X70234999Y-16946299D01*
X69992071Y-16703371D01*
X69992111Y-16657884D01*
X69850066Y-16314108D01*
X69587276Y-16050859D01*
X69243748Y-15908213D01*
X68871782Y-15907889D01*
X68651373Y-15998960D01*
X68590327Y-15937808D01*
X68246799Y-15795162D01*
X67874833Y-15794838D01*
X67531057Y-15936883D01*
X67268407Y-16199075D01*
X66960959Y-15891091D01*
X66510000Y-15703836D01*
X66510000Y-3896048D01*
X66957800Y-3711020D01*
X67558909Y-3110959D01*
X67884628Y-2326541D01*
X67885370Y-1477185D01*
X67561020Y-692200D01*
X66960959Y-91091D01*
X66176541Y234628D01*
X65327185Y235370D01*
X64542200Y-88980D01*
X63941091Y-689041D01*
X63615372Y-1473459D01*
X63614630Y-2322815D01*
X63938980Y-3107800D01*
X64539041Y-3708909D01*
X64990000Y-3896164D01*
X64990000Y-11957770D01*
X64824577Y-11792058D01*
X64481049Y-11649412D01*
X64334086Y-11649284D01*
X63765122Y-11080320D01*
X63765162Y-11034833D01*
X63623117Y-10691057D01*
X63360327Y-10427808D01*
X63016799Y-10285162D01*
X62644833Y-10284838D01*
X62301057Y-10426883D01*
X62037808Y-10689673D01*
X61895162Y-11033201D01*
X61894838Y-11405167D01*
X61954281Y-11549031D01*
X61896799Y-11525162D01*
X61524833Y-11524838D01*
X61181057Y-11666883D01*
X60917808Y-11929673D01*
X60775162Y-12273201D01*
X60774838Y-12645167D01*
X60916883Y-12988943D01*
X61179673Y-13252192D01*
X61523201Y-13394838D01*
X61570077Y-13394879D01*
X62330000Y-14154802D01*
X62330000Y-16107537D01*
X62297808Y-16139673D01*
X62155162Y-16483201D01*
X62155073Y-16585544D01*
X61960959Y-16391091D01*
X61176541Y-16065372D01*
X60327185Y-16064630D01*
X59542200Y-16388980D01*
X58941091Y-16989041D01*
X58615372Y-17773459D01*
X58614630Y-18622815D01*
X49178556Y-18622815D01*
X49384628Y-18126541D01*
X49385370Y-17277185D01*
X49061020Y-16492200D01*
X48460959Y-15891091D01*
X48010000Y-15703836D01*
X48010000Y-3896048D01*
X48457800Y-3711020D01*
X49058909Y-3110959D01*
X49384628Y-2326541D01*
X49385370Y-1477185D01*
X49061020Y-692200D01*
X48460959Y-91091D01*
X47676541Y234628D01*
X46827185Y235370D01*
X46042200Y-88980D01*
X45441091Y-689041D01*
X45115372Y-1473459D01*
X45114630Y-2322815D01*
X44385068Y-2322815D01*
X44385370Y-1977185D01*
X44061020Y-1192200D01*
X43460959Y-591091D01*
X42676541Y-265372D01*
X41827185Y-264630D01*
X41042200Y-588980D01*
X40441091Y-1189041D01*
X40115372Y-1973459D01*
X40114630Y-2822815D01*
X30678556Y-2822815D01*
X30884628Y-2326541D01*
X30885370Y-1477185D01*
X30561020Y-692200D01*
X29960959Y-91091D01*
X29176541Y234628D01*
X28327185Y235370D01*
X27542200Y-88980D01*
X26941091Y-689041D01*
X26615372Y-1473459D01*
X26614630Y-2322815D01*
X25885068Y-2322815D01*
X25885370Y-1977185D01*
X25561020Y-1192200D01*
X24960959Y-591091D01*
X24176541Y-265372D01*
X23327185Y-264630D01*
X22542200Y-588980D01*
X21941091Y-1189041D01*
X21615372Y-1973459D01*
X21614630Y-2822815D01*
X12178556Y-2822815D01*
X12384628Y-2326541D01*
X12385370Y-1477185D01*
X12061020Y-692200D01*
X11460959Y-91091D01*
X10676541Y234628D01*
X9827185Y235370D01*
X9042200Y-88980D01*
X8441091Y-689041D01*
X8115372Y-1473459D01*
X8114630Y-2322815D01*
X7385068Y-2322815D01*
X7385370Y-1977185D01*
X7061020Y-1192200D01*
X6460959Y-591091D01*
X5676541Y-265372D01*
X4827185Y-264630D01*
X4042200Y-588980D01*
X3441091Y-1189041D01*
X3115372Y-1973459D01*
X3114630Y-2822815D01*
X710000Y-2822815D01*
X710000Y974833D01*
X47644838Y974833D01*
X47786883Y631057D01*
X48049673Y367808D01*
X48393201Y225162D01*
X48440077Y225121D01*
X49912599Y-1247401D01*
X50159160Y-1412148D01*
X50450000Y-1470000D01*
X52185198Y-1470000D01*
X53032599Y-2317401D01*
X53279161Y-2482148D01*
X53570000Y-2540000D01*
X57160000Y-2540000D01*
X57450839Y-2482148D01*
X57697401Y-2317401D01*
X59554802Y-460000D01*
X59854355Y-460000D01*
X59542200Y-588980D01*
X58941091Y-1189041D01*
X58615372Y-1973459D01*
X58614630Y-2822815D01*
X58938980Y-3607800D01*
X59539041Y-4208909D01*
X59990000Y-4396164D01*
X59990000Y-5715198D01*
X56390320Y-9314878D01*
X56344833Y-9314838D01*
X56001057Y-9456883D01*
X55737808Y-9719673D01*
X55595162Y-10063201D01*
X55594838Y-10435167D01*
X55736883Y-10778943D01*
X55999673Y-11042192D01*
X56343201Y-11184838D01*
X56715167Y-11185162D01*
X57058943Y-11043117D01*
X57322192Y-10780327D01*
X57464838Y-10436799D01*
X57464879Y-10389923D01*
X61287401Y-6567401D01*
X61452148Y-6320840D01*
X61510000Y-6030000D01*
X61510000Y-4396048D01*
X61957800Y-4211020D01*
X62558909Y-3610959D01*
X62884628Y-2826541D01*
X62885370Y-1977185D01*
X62561020Y-1192200D01*
X61960959Y-591091D01*
X61274601Y-306090D01*
X61377401Y-237401D01*
X62019680Y404878D01*
X62065167Y404838D01*
X62408943Y546883D01*
X62672192Y809673D01*
X62814838Y1153201D01*
X62815162Y1525167D01*
X62673117Y1868943D01*
X62410327Y2132192D01*
X62066799Y2274838D01*
X61694833Y2275162D01*
X61351057Y2133117D01*
X61087808Y1870327D01*
X60945162Y1526799D01*
X60945121Y1479923D01*
X60525198Y1060000D01*
X59240000Y1060000D01*
X58949160Y1002148D01*
X58702599Y837401D01*
X56845198Y-1020000D01*
X53884802Y-1020000D01*
X53037401Y-172599D01*
X52790839Y-7852D01*
X52555369Y38986D01*
X52628913Y53615D01*
X53005244Y305071D01*
X53256700Y681402D01*
X53345000Y1125315D01*
X53345000Y1374685D01*
X55875000Y1374685D01*
X55875000Y1125315D01*
X55963300Y681402D01*
X56214756Y305071D01*
X56591087Y53615D01*
X57035000Y-34685D01*
X57478913Y53615D01*
X57855244Y305071D01*
X58106700Y681402D01*
X58195000Y1125315D01*
X58195000Y1374685D01*
X58106700Y1818598D01*
X57855244Y2194929D01*
X57478913Y2446385D01*
X57035000Y2534685D01*
X56591087Y2446385D01*
X56214756Y2194929D01*
X55963300Y1818598D01*
X55875000Y1374685D01*
X53345000Y1374685D01*
X53256700Y1818598D01*
X53005244Y2194929D01*
X52628913Y2446385D01*
X52185000Y2534685D01*
X51741087Y2446385D01*
X51364756Y2194929D01*
X51113300Y1818598D01*
X51025000Y1374685D01*
X51025000Y1125315D01*
X51113300Y681402D01*
X51364756Y305071D01*
X51741087Y53615D01*
X51759261Y50000D01*
X50764802Y50000D01*
X49515122Y1299680D01*
X49515162Y1345167D01*
X49373117Y1688943D01*
X49110327Y1952192D01*
X48766799Y2094838D01*
X48394833Y2095162D01*
X48051057Y1953117D01*
X47787808Y1690327D01*
X47645162Y1346799D01*
X47644838Y974833D01*
X710000Y974833D01*
X710000Y1290000D01*
X45200000Y1290000D01*
X45471705Y1344046D01*
X45702046Y1497954D01*
X45855954Y1728295D01*
X45910000Y2000000D01*
X45910000Y4990000D01*
X49262560Y4990000D01*
X49262560Y3300000D01*
M02*
