G04 #@! TF.FileFunction,Legend,Top*
%FSLAX46Y46*%
G04 Gerber Fmt 4.6, Leading zero omitted, Abs format (unit mm)*
G04 Created by KiCad (PCBNEW 4.0.5) date Saturday, July 01, 2017 'AMt' 12:52:34 AM*
%MOMM*%
%LPD*%
G01*
G04 APERTURE LIST*
%ADD10C,0.100000*%
%ADD11C,0.200000*%
%ADD12C,0.150000*%
%ADD13O,3.400000X3.400000*%
%ADD14C,3.400000*%
%ADD15C,1.924000*%
%ADD16C,3.600000*%
%ADD17R,2.127200X2.127200*%
%ADD18O,2.127200X2.127200*%
%ADD19O,1.250000X1.450000*%
%ADD20R,2.300000X2.100000*%
G04 APERTURE END LIST*
D10*
D11*
X116200000Y0D02*
X116200000Y-63000000D01*
X115000000Y0D02*
X115000000Y-63000000D01*
D12*
X89500000Y-28600000D02*
X74000000Y-28600000D01*
X89500000Y-15800000D02*
X89500000Y-28600000D01*
X74000000Y-15800000D02*
X89500000Y-15800000D01*
X74000000Y-28600000D02*
X74000000Y-15800000D01*
X138700000Y-12800000D02*
X123200000Y-12800000D01*
X138700000Y0D02*
X138700000Y-12800000D01*
X123200000Y0D02*
X138700000Y0D01*
X123200000Y-12800000D02*
X123200000Y0D01*
X108000000Y-28600000D02*
X92500000Y-28600000D01*
X108000000Y-15800000D02*
X108000000Y-28600000D01*
X92500000Y-15800000D02*
X108000000Y-15800000D01*
X92500000Y-28600000D02*
X92500000Y-15800000D01*
X89500000Y-12800000D02*
X74000000Y-12800000D01*
X89500000Y0D02*
X89500000Y-12800000D01*
X74000000Y0D02*
X89500000Y0D01*
X74000000Y-12800000D02*
X74000000Y0D01*
X80333330Y-69200000D02*
X64833330Y-69200000D01*
X80333330Y-56400000D02*
X80333330Y-69200000D01*
X64833330Y-56400000D02*
X80333330Y-56400000D01*
X64833330Y-69200000D02*
X64833330Y-56400000D01*
X52500000Y-12800000D02*
X37000000Y-12800000D01*
X52500000Y0D02*
X52500000Y-12800000D01*
X37000000Y0D02*
X52500000Y0D01*
X37000000Y-12800000D02*
X37000000Y0D01*
X108000000Y-12800000D02*
X92500000Y-12800000D01*
X108000000Y0D02*
X108000000Y-12800000D01*
X92500000Y0D02*
X108000000Y0D01*
X92500000Y-12800000D02*
X92500000Y0D01*
X15500000Y-12800000D02*
X0Y-12800000D01*
X15500000Y0D02*
X15500000Y-12800000D01*
X0Y0D02*
X15500000Y0D01*
X0Y-12800000D02*
X0Y0D01*
X166366667Y-69200000D02*
X150866667Y-69200000D01*
X166366667Y-56400000D02*
X166366667Y-69200000D01*
X150866667Y-56400000D02*
X166366667Y-56400000D01*
X150866667Y-69200000D02*
X150866667Y-56400000D01*
X147866667Y-69200000D02*
X132366667Y-69200000D01*
X147866667Y-56400000D02*
X147866667Y-69200000D01*
X132366667Y-56400000D02*
X147866667Y-56400000D01*
X132366667Y-69200000D02*
X132366667Y-56400000D01*
X98833330Y-69200000D02*
X83333330Y-69200000D01*
X98833330Y-56400000D02*
X98833330Y-69200000D01*
X83333330Y-56400000D02*
X98833330Y-56400000D01*
X83333330Y-69200000D02*
X83333330Y-56400000D01*
X231200000Y-44400000D02*
X215700000Y-44400000D01*
X231200000Y-31600000D02*
X231200000Y-44400000D01*
X215700000Y-31600000D02*
X231200000Y-31600000D01*
X215700000Y-44400000D02*
X215700000Y-31600000D01*
X212700000Y-44400000D02*
X197200000Y-44400000D01*
X212700000Y-31600000D02*
X212700000Y-44400000D01*
X197200000Y-31600000D02*
X212700000Y-31600000D01*
X197200000Y-44400000D02*
X197200000Y-31600000D01*
X194200000Y-44400000D02*
X178700000Y-44400000D01*
X194200000Y-31600000D02*
X194200000Y-44400000D01*
X178700000Y-31600000D02*
X194200000Y-31600000D01*
X178700000Y-44400000D02*
X178700000Y-31600000D01*
X175700000Y-44400000D02*
X160200000Y-44400000D01*
X175700000Y-31600000D02*
X175700000Y-44400000D01*
X160200000Y-31600000D02*
X175700000Y-31600000D01*
X160200000Y-44400000D02*
X160200000Y-31600000D01*
X157200000Y-44400000D02*
X141700000Y-44400000D01*
X157200000Y-31600000D02*
X157200000Y-44400000D01*
X141700000Y-31600000D02*
X157200000Y-31600000D01*
X141700000Y-44400000D02*
X141700000Y-31600000D01*
X138700000Y-44400000D02*
X123200000Y-44400000D01*
X138700000Y-31600000D02*
X138700000Y-44400000D01*
X123200000Y-31600000D02*
X138700000Y-31600000D01*
X123200000Y-44400000D02*
X123200000Y-31600000D01*
X108000000Y-44400000D02*
X92500000Y-44400000D01*
X108000000Y-31600000D02*
X108000000Y-44400000D01*
X92500000Y-31600000D02*
X108000000Y-31600000D01*
X92500000Y-44400000D02*
X92500000Y-31600000D01*
X89500000Y-44400000D02*
X74000000Y-44400000D01*
X89500000Y-31600000D02*
X89500000Y-44400000D01*
X74000000Y-31600000D02*
X89500000Y-31600000D01*
X74000000Y-44400000D02*
X74000000Y-31600000D01*
X71000000Y-44400000D02*
X55500000Y-44400000D01*
X71000000Y-31600000D02*
X71000000Y-44400000D01*
X55500000Y-31600000D02*
X71000000Y-31600000D01*
X55500000Y-44400000D02*
X55500000Y-31600000D01*
X52500000Y-44400000D02*
X37000000Y-44400000D01*
X52500000Y-31600000D02*
X52500000Y-44400000D01*
X37000000Y-31600000D02*
X52500000Y-31600000D01*
X37000000Y-44400000D02*
X37000000Y-31600000D01*
X34000000Y-44400000D02*
X18500000Y-44400000D01*
X34000000Y-31600000D02*
X34000000Y-44400000D01*
X18500000Y-31600000D02*
X34000000Y-31600000D01*
X18500000Y-44400000D02*
X18500000Y-31600000D01*
X15500000Y-44400000D02*
X0Y-44400000D01*
X15500000Y-31600000D02*
X15500000Y-44400000D01*
X0Y-31600000D02*
X15500000Y-31600000D01*
X0Y-44400000D02*
X0Y-31600000D01*
X231200000Y-28600000D02*
X215700000Y-28600000D01*
X231200000Y-15800000D02*
X231200000Y-28600000D01*
X215700000Y-15800000D02*
X231200000Y-15800000D01*
X215700000Y-28600000D02*
X215700000Y-15800000D01*
X212700000Y-28600000D02*
X197200000Y-28600000D01*
X212700000Y-15800000D02*
X212700000Y-28600000D01*
X197200000Y-15800000D02*
X212700000Y-15800000D01*
X197200000Y-28600000D02*
X197200000Y-15800000D01*
X194200000Y-28600000D02*
X178700000Y-28600000D01*
X194200000Y-15800000D02*
X194200000Y-28600000D01*
X178700000Y-15800000D02*
X194200000Y-15800000D01*
X178700000Y-28600000D02*
X178700000Y-15800000D01*
X175700000Y-28600000D02*
X160200000Y-28600000D01*
X175700000Y-15800000D02*
X175700000Y-28600000D01*
X160200000Y-15800000D02*
X175700000Y-15800000D01*
X160200000Y-28600000D02*
X160200000Y-15800000D01*
X157200000Y-28600000D02*
X141700000Y-28600000D01*
X157200000Y-15800000D02*
X157200000Y-28600000D01*
X141700000Y-15800000D02*
X157200000Y-15800000D01*
X141700000Y-28600000D02*
X141700000Y-15800000D01*
X138700000Y-28600000D02*
X123200000Y-28600000D01*
X138700000Y-15800000D02*
X138700000Y-28600000D01*
X123200000Y-15800000D02*
X138700000Y-15800000D01*
X123200000Y-28600000D02*
X123200000Y-15800000D01*
X71000000Y-28600000D02*
X55500000Y-28600000D01*
X71000000Y-15800000D02*
X71000000Y-28600000D01*
X55500000Y-15800000D02*
X71000000Y-15800000D01*
X55500000Y-28600000D02*
X55500000Y-15800000D01*
X52500000Y-28600000D02*
X37000000Y-28600000D01*
X52500000Y-15800000D02*
X52500000Y-28600000D01*
X37000000Y-15800000D02*
X52500000Y-15800000D01*
X37000000Y-28600000D02*
X37000000Y-15800000D01*
X34000000Y-28600000D02*
X18500000Y-28600000D01*
X34000000Y-15800000D02*
X34000000Y-28600000D01*
X18500000Y-15800000D02*
X34000000Y-15800000D01*
X18500000Y-28600000D02*
X18500000Y-15800000D01*
X15500000Y-28600000D02*
X0Y-28600000D01*
X15500000Y-15800000D02*
X15500000Y-28600000D01*
X0Y-15800000D02*
X15500000Y-15800000D01*
X0Y-28600000D02*
X0Y-15800000D01*
X231200000Y-12800000D02*
X215700000Y-12800000D01*
X231200000Y0D02*
X231200000Y-12800000D01*
X215700000Y0D02*
X231200000Y0D01*
X215700000Y-12800000D02*
X215700000Y0D01*
X212700000Y-12800000D02*
X197200000Y-12800000D01*
X212700000Y0D02*
X212700000Y-12800000D01*
X197200000Y0D02*
X212700000Y0D01*
X197200000Y-12800000D02*
X197200000Y0D01*
X194200000Y-12800000D02*
X178700000Y-12800000D01*
X194200000Y0D02*
X194200000Y-12800000D01*
X178700000Y0D02*
X194200000Y0D01*
X178700000Y-12800000D02*
X178700000Y0D01*
X175700000Y-12800000D02*
X160200000Y-12800000D01*
X175700000Y0D02*
X175700000Y-12800000D01*
X160200000Y0D02*
X175700000Y0D01*
X160200000Y-12800000D02*
X160200000Y0D01*
X157200000Y-12800000D02*
X141700000Y-12800000D01*
X157200000Y0D02*
X157200000Y-12800000D01*
X141700000Y0D02*
X157200000Y0D01*
X141700000Y-12800000D02*
X141700000Y0D01*
X71000000Y-12800000D02*
X55500000Y-12800000D01*
X71000000Y0D02*
X71000000Y-12800000D01*
X55500000Y0D02*
X71000000Y0D01*
X55500000Y-12800000D02*
X55500000Y0D01*
X34000000Y-12800000D02*
X18500000Y-12800000D01*
X34000000Y0D02*
X34000000Y-12800000D01*
X18500000Y0D02*
X34000000Y0D01*
X18500000Y-12800000D02*
X18500000Y0D01*
X80890476Y-30204762D02*
X81033333Y-30252381D01*
X81271429Y-30252381D01*
X81366667Y-30204762D01*
X81414286Y-30157143D01*
X81461905Y-30061905D01*
X81461905Y-29966667D01*
X81414286Y-29871429D01*
X81366667Y-29823810D01*
X81271429Y-29776190D01*
X81080952Y-29728571D01*
X80985714Y-29680952D01*
X80938095Y-29633333D01*
X80890476Y-29538095D01*
X80890476Y-29442857D01*
X80938095Y-29347619D01*
X80985714Y-29300000D01*
X81080952Y-29252381D01*
X81319048Y-29252381D01*
X81461905Y-29300000D01*
X81795238Y-29252381D02*
X82033333Y-30252381D01*
X82223810Y-29538095D01*
X82414286Y-30252381D01*
X82652381Y-29252381D01*
X83557143Y-30252381D02*
X82985714Y-30252381D01*
X83271428Y-30252381D02*
X83271428Y-29252381D01*
X83176190Y-29395238D01*
X83080952Y-29490476D01*
X82985714Y-29538095D01*
X83890476Y-29252381D02*
X84557143Y-29252381D01*
X84128571Y-30252381D01*
X130566667Y-14404762D02*
X130709524Y-14452381D01*
X130947620Y-14452381D01*
X131042858Y-14404762D01*
X131090477Y-14357143D01*
X131138096Y-14261905D01*
X131138096Y-14166667D01*
X131090477Y-14071429D01*
X131042858Y-14023810D01*
X130947620Y-13976190D01*
X130757143Y-13928571D01*
X130661905Y-13880952D01*
X130614286Y-13833333D01*
X130566667Y-13738095D01*
X130566667Y-13642857D01*
X130614286Y-13547619D01*
X130661905Y-13500000D01*
X130757143Y-13452381D01*
X130995239Y-13452381D01*
X131138096Y-13500000D01*
X131471429Y-13452381D02*
X131709524Y-14452381D01*
X131900001Y-13738095D01*
X132090477Y-14452381D01*
X132328572Y-13452381D01*
X132614286Y-13452381D02*
X133280953Y-13452381D01*
X132852381Y-14452381D01*
X99390476Y-30204762D02*
X99533333Y-30252381D01*
X99771429Y-30252381D01*
X99866667Y-30204762D01*
X99914286Y-30157143D01*
X99961905Y-30061905D01*
X99961905Y-29966667D01*
X99914286Y-29871429D01*
X99866667Y-29823810D01*
X99771429Y-29776190D01*
X99580952Y-29728571D01*
X99485714Y-29680952D01*
X99438095Y-29633333D01*
X99390476Y-29538095D01*
X99390476Y-29442857D01*
X99438095Y-29347619D01*
X99485714Y-29300000D01*
X99580952Y-29252381D01*
X99819048Y-29252381D01*
X99961905Y-29300000D01*
X100295238Y-29252381D02*
X100533333Y-30252381D01*
X100723810Y-29538095D01*
X100914286Y-30252381D01*
X101152381Y-29252381D01*
X102057143Y-30252381D02*
X101485714Y-30252381D01*
X101771428Y-30252381D02*
X101771428Y-29252381D01*
X101676190Y-29395238D01*
X101580952Y-29490476D01*
X101485714Y-29538095D01*
X102628571Y-29680952D02*
X102533333Y-29633333D01*
X102485714Y-29585714D01*
X102438095Y-29490476D01*
X102438095Y-29442857D01*
X102485714Y-29347619D01*
X102533333Y-29300000D01*
X102628571Y-29252381D01*
X102819048Y-29252381D01*
X102914286Y-29300000D01*
X102961905Y-29347619D01*
X103009524Y-29442857D01*
X103009524Y-29490476D01*
X102961905Y-29585714D01*
X102914286Y-29633333D01*
X102819048Y-29680952D01*
X102628571Y-29680952D01*
X102533333Y-29728571D01*
X102485714Y-29776190D01*
X102438095Y-29871429D01*
X102438095Y-30061905D01*
X102485714Y-30157143D01*
X102533333Y-30204762D01*
X102628571Y-30252381D01*
X102819048Y-30252381D01*
X102914286Y-30204762D01*
X102961905Y-30157143D01*
X103009524Y-30061905D01*
X103009524Y-29871429D01*
X102961905Y-29776190D01*
X102914286Y-29728571D01*
X102819048Y-29680952D01*
X81366667Y-14404762D02*
X81509524Y-14452381D01*
X81747620Y-14452381D01*
X81842858Y-14404762D01*
X81890477Y-14357143D01*
X81938096Y-14261905D01*
X81938096Y-14166667D01*
X81890477Y-14071429D01*
X81842858Y-14023810D01*
X81747620Y-13976190D01*
X81557143Y-13928571D01*
X81461905Y-13880952D01*
X81414286Y-13833333D01*
X81366667Y-13738095D01*
X81366667Y-13642857D01*
X81414286Y-13547619D01*
X81461905Y-13500000D01*
X81557143Y-13452381D01*
X81795239Y-13452381D01*
X81938096Y-13500000D01*
X82271429Y-13452381D02*
X82509524Y-14452381D01*
X82700001Y-13738095D01*
X82890477Y-14452381D01*
X83128572Y-13452381D01*
X83985715Y-13452381D02*
X83509524Y-13452381D01*
X83461905Y-13928571D01*
X83509524Y-13880952D01*
X83604762Y-13833333D01*
X83842858Y-13833333D01*
X83938096Y-13880952D01*
X83985715Y-13928571D01*
X84033334Y-14023810D01*
X84033334Y-14261905D01*
X83985715Y-14357143D01*
X83938096Y-14404762D01*
X83842858Y-14452381D01*
X83604762Y-14452381D01*
X83509524Y-14404762D01*
X83461905Y-14357143D01*
X71723806Y-70804762D02*
X71866663Y-70852381D01*
X72104759Y-70852381D01*
X72199997Y-70804762D01*
X72247616Y-70757143D01*
X72295235Y-70661905D01*
X72295235Y-70566667D01*
X72247616Y-70471429D01*
X72199997Y-70423810D01*
X72104759Y-70376190D01*
X71914282Y-70328571D01*
X71819044Y-70280952D01*
X71771425Y-70233333D01*
X71723806Y-70138095D01*
X71723806Y-70042857D01*
X71771425Y-69947619D01*
X71819044Y-69900000D01*
X71914282Y-69852381D01*
X72152378Y-69852381D01*
X72295235Y-69900000D01*
X72628568Y-69852381D02*
X72866663Y-70852381D01*
X73057140Y-70138095D01*
X73247616Y-70852381D01*
X73485711Y-69852381D01*
X73771425Y-69852381D02*
X74390473Y-69852381D01*
X74057139Y-70233333D01*
X74199997Y-70233333D01*
X74295235Y-70280952D01*
X74342854Y-70328571D01*
X74390473Y-70423810D01*
X74390473Y-70661905D01*
X74342854Y-70757143D01*
X74295235Y-70804762D01*
X74199997Y-70852381D01*
X73914282Y-70852381D01*
X73819044Y-70804762D01*
X73771425Y-70757143D01*
X74723806Y-69852381D02*
X75390473Y-69852381D01*
X74961901Y-70852381D01*
X44366667Y-14404762D02*
X44509524Y-14452381D01*
X44747620Y-14452381D01*
X44842858Y-14404762D01*
X44890477Y-14357143D01*
X44938096Y-14261905D01*
X44938096Y-14166667D01*
X44890477Y-14071429D01*
X44842858Y-14023810D01*
X44747620Y-13976190D01*
X44557143Y-13928571D01*
X44461905Y-13880952D01*
X44414286Y-13833333D01*
X44366667Y-13738095D01*
X44366667Y-13642857D01*
X44414286Y-13547619D01*
X44461905Y-13500000D01*
X44557143Y-13452381D01*
X44795239Y-13452381D01*
X44938096Y-13500000D01*
X45271429Y-13452381D02*
X45509524Y-14452381D01*
X45700001Y-13738095D01*
X45890477Y-14452381D01*
X46128572Y-13452381D01*
X46414286Y-13452381D02*
X47033334Y-13452381D01*
X46700000Y-13833333D01*
X46842858Y-13833333D01*
X46938096Y-13880952D01*
X46985715Y-13928571D01*
X47033334Y-14023810D01*
X47033334Y-14261905D01*
X46985715Y-14357143D01*
X46938096Y-14404762D01*
X46842858Y-14452381D01*
X46557143Y-14452381D01*
X46461905Y-14404762D01*
X46414286Y-14357143D01*
X99866667Y-14404762D02*
X100009524Y-14452381D01*
X100247620Y-14452381D01*
X100342858Y-14404762D01*
X100390477Y-14357143D01*
X100438096Y-14261905D01*
X100438096Y-14166667D01*
X100390477Y-14071429D01*
X100342858Y-14023810D01*
X100247620Y-13976190D01*
X100057143Y-13928571D01*
X99961905Y-13880952D01*
X99914286Y-13833333D01*
X99866667Y-13738095D01*
X99866667Y-13642857D01*
X99914286Y-13547619D01*
X99961905Y-13500000D01*
X100057143Y-13452381D01*
X100295239Y-13452381D01*
X100438096Y-13500000D01*
X100771429Y-13452381D02*
X101009524Y-14452381D01*
X101200001Y-13738095D01*
X101390477Y-14452381D01*
X101628572Y-13452381D01*
X102438096Y-13452381D02*
X102247619Y-13452381D01*
X102152381Y-13500000D01*
X102104762Y-13547619D01*
X102009524Y-13690476D01*
X101961905Y-13880952D01*
X101961905Y-14261905D01*
X102009524Y-14357143D01*
X102057143Y-14404762D01*
X102152381Y-14452381D01*
X102342858Y-14452381D01*
X102438096Y-14404762D01*
X102485715Y-14357143D01*
X102533334Y-14261905D01*
X102533334Y-14023810D01*
X102485715Y-13928571D01*
X102438096Y-13880952D01*
X102342858Y-13833333D01*
X102152381Y-13833333D01*
X102057143Y-13880952D01*
X102009524Y-13928571D01*
X101961905Y-14023810D01*
X7366667Y-14404762D02*
X7509524Y-14452381D01*
X7747620Y-14452381D01*
X7842858Y-14404762D01*
X7890477Y-14357143D01*
X7938096Y-14261905D01*
X7938096Y-14166667D01*
X7890477Y-14071429D01*
X7842858Y-14023810D01*
X7747620Y-13976190D01*
X7557143Y-13928571D01*
X7461905Y-13880952D01*
X7414286Y-13833333D01*
X7366667Y-13738095D01*
X7366667Y-13642857D01*
X7414286Y-13547619D01*
X7461905Y-13500000D01*
X7557143Y-13452381D01*
X7795239Y-13452381D01*
X7938096Y-13500000D01*
X8271429Y-13452381D02*
X8509524Y-14452381D01*
X8700001Y-13738095D01*
X8890477Y-14452381D01*
X9128572Y-13452381D01*
X10033334Y-14452381D02*
X9461905Y-14452381D01*
X9747619Y-14452381D02*
X9747619Y-13452381D01*
X9652381Y-13595238D01*
X9557143Y-13690476D01*
X9461905Y-13738095D01*
X157757143Y-70804762D02*
X157900000Y-70852381D01*
X158138096Y-70852381D01*
X158233334Y-70804762D01*
X158280953Y-70757143D01*
X158328572Y-70661905D01*
X158328572Y-70566667D01*
X158280953Y-70471429D01*
X158233334Y-70423810D01*
X158138096Y-70376190D01*
X157947619Y-70328571D01*
X157852381Y-70280952D01*
X157804762Y-70233333D01*
X157757143Y-70138095D01*
X157757143Y-70042857D01*
X157804762Y-69947619D01*
X157852381Y-69900000D01*
X157947619Y-69852381D01*
X158185715Y-69852381D01*
X158328572Y-69900000D01*
X158661905Y-69852381D02*
X158900000Y-70852381D01*
X159090477Y-70138095D01*
X159280953Y-70852381D01*
X159519048Y-69852381D01*
X160328572Y-70185714D02*
X160328572Y-70852381D01*
X160090476Y-69804762D02*
X159852381Y-70519048D01*
X160471429Y-70519048D01*
X161042857Y-69852381D02*
X161138096Y-69852381D01*
X161233334Y-69900000D01*
X161280953Y-69947619D01*
X161328572Y-70042857D01*
X161376191Y-70233333D01*
X161376191Y-70471429D01*
X161328572Y-70661905D01*
X161280953Y-70757143D01*
X161233334Y-70804762D01*
X161138096Y-70852381D01*
X161042857Y-70852381D01*
X160947619Y-70804762D01*
X160900000Y-70757143D01*
X160852381Y-70661905D01*
X160804762Y-70471429D01*
X160804762Y-70233333D01*
X160852381Y-70042857D01*
X160900000Y-69947619D01*
X160947619Y-69900000D01*
X161042857Y-69852381D01*
X139257143Y-70804762D02*
X139400000Y-70852381D01*
X139638096Y-70852381D01*
X139733334Y-70804762D01*
X139780953Y-70757143D01*
X139828572Y-70661905D01*
X139828572Y-70566667D01*
X139780953Y-70471429D01*
X139733334Y-70423810D01*
X139638096Y-70376190D01*
X139447619Y-70328571D01*
X139352381Y-70280952D01*
X139304762Y-70233333D01*
X139257143Y-70138095D01*
X139257143Y-70042857D01*
X139304762Y-69947619D01*
X139352381Y-69900000D01*
X139447619Y-69852381D01*
X139685715Y-69852381D01*
X139828572Y-69900000D01*
X140161905Y-69852381D02*
X140400000Y-70852381D01*
X140590477Y-70138095D01*
X140780953Y-70852381D01*
X141019048Y-69852381D01*
X141304762Y-69852381D02*
X141923810Y-69852381D01*
X141590476Y-70233333D01*
X141733334Y-70233333D01*
X141828572Y-70280952D01*
X141876191Y-70328571D01*
X141923810Y-70423810D01*
X141923810Y-70661905D01*
X141876191Y-70757143D01*
X141828572Y-70804762D01*
X141733334Y-70852381D01*
X141447619Y-70852381D01*
X141352381Y-70804762D01*
X141304762Y-70757143D01*
X142400000Y-70852381D02*
X142590476Y-70852381D01*
X142685715Y-70804762D01*
X142733334Y-70757143D01*
X142828572Y-70614286D01*
X142876191Y-70423810D01*
X142876191Y-70042857D01*
X142828572Y-69947619D01*
X142780953Y-69900000D01*
X142685715Y-69852381D01*
X142495238Y-69852381D01*
X142400000Y-69900000D01*
X142352381Y-69947619D01*
X142304762Y-70042857D01*
X142304762Y-70280952D01*
X142352381Y-70376190D01*
X142400000Y-70423810D01*
X142495238Y-70471429D01*
X142685715Y-70471429D01*
X142780953Y-70423810D01*
X142828572Y-70376190D01*
X142876191Y-70280952D01*
X90223806Y-70804762D02*
X90366663Y-70852381D01*
X90604759Y-70852381D01*
X90699997Y-70804762D01*
X90747616Y-70757143D01*
X90795235Y-70661905D01*
X90795235Y-70566667D01*
X90747616Y-70471429D01*
X90699997Y-70423810D01*
X90604759Y-70376190D01*
X90414282Y-70328571D01*
X90319044Y-70280952D01*
X90271425Y-70233333D01*
X90223806Y-70138095D01*
X90223806Y-70042857D01*
X90271425Y-69947619D01*
X90319044Y-69900000D01*
X90414282Y-69852381D01*
X90652378Y-69852381D01*
X90795235Y-69900000D01*
X91128568Y-69852381D02*
X91366663Y-70852381D01*
X91557140Y-70138095D01*
X91747616Y-70852381D01*
X91985711Y-69852381D01*
X92271425Y-69852381D02*
X92890473Y-69852381D01*
X92557139Y-70233333D01*
X92699997Y-70233333D01*
X92795235Y-70280952D01*
X92842854Y-70328571D01*
X92890473Y-70423810D01*
X92890473Y-70661905D01*
X92842854Y-70757143D01*
X92795235Y-70804762D01*
X92699997Y-70852381D01*
X92414282Y-70852381D01*
X92319044Y-70804762D01*
X92271425Y-70757143D01*
X93461901Y-70280952D02*
X93366663Y-70233333D01*
X93319044Y-70185714D01*
X93271425Y-70090476D01*
X93271425Y-70042857D01*
X93319044Y-69947619D01*
X93366663Y-69900000D01*
X93461901Y-69852381D01*
X93652378Y-69852381D01*
X93747616Y-69900000D01*
X93795235Y-69947619D01*
X93842854Y-70042857D01*
X93842854Y-70090476D01*
X93795235Y-70185714D01*
X93747616Y-70233333D01*
X93652378Y-70280952D01*
X93461901Y-70280952D01*
X93366663Y-70328571D01*
X93319044Y-70376190D01*
X93271425Y-70471429D01*
X93271425Y-70661905D01*
X93319044Y-70757143D01*
X93366663Y-70804762D01*
X93461901Y-70852381D01*
X93652378Y-70852381D01*
X93747616Y-70804762D01*
X93795235Y-70757143D01*
X93842854Y-70661905D01*
X93842854Y-70471429D01*
X93795235Y-70376190D01*
X93747616Y-70328571D01*
X93652378Y-70280952D01*
X222590476Y-46004762D02*
X222733333Y-46052381D01*
X222971429Y-46052381D01*
X223066667Y-46004762D01*
X223114286Y-45957143D01*
X223161905Y-45861905D01*
X223161905Y-45766667D01*
X223114286Y-45671429D01*
X223066667Y-45623810D01*
X222971429Y-45576190D01*
X222780952Y-45528571D01*
X222685714Y-45480952D01*
X222638095Y-45433333D01*
X222590476Y-45338095D01*
X222590476Y-45242857D01*
X222638095Y-45147619D01*
X222685714Y-45100000D01*
X222780952Y-45052381D01*
X223019048Y-45052381D01*
X223161905Y-45100000D01*
X223495238Y-45052381D02*
X223733333Y-46052381D01*
X223923810Y-45338095D01*
X224114286Y-46052381D01*
X224352381Y-45052381D01*
X224638095Y-45052381D02*
X225257143Y-45052381D01*
X224923809Y-45433333D01*
X225066667Y-45433333D01*
X225161905Y-45480952D01*
X225209524Y-45528571D01*
X225257143Y-45623810D01*
X225257143Y-45861905D01*
X225209524Y-45957143D01*
X225161905Y-46004762D01*
X225066667Y-46052381D01*
X224780952Y-46052381D01*
X224685714Y-46004762D01*
X224638095Y-45957143D01*
X226114286Y-45052381D02*
X225923809Y-45052381D01*
X225828571Y-45100000D01*
X225780952Y-45147619D01*
X225685714Y-45290476D01*
X225638095Y-45480952D01*
X225638095Y-45861905D01*
X225685714Y-45957143D01*
X225733333Y-46004762D01*
X225828571Y-46052381D01*
X226019048Y-46052381D01*
X226114286Y-46004762D01*
X226161905Y-45957143D01*
X226209524Y-45861905D01*
X226209524Y-45623810D01*
X226161905Y-45528571D01*
X226114286Y-45480952D01*
X226019048Y-45433333D01*
X225828571Y-45433333D01*
X225733333Y-45480952D01*
X225685714Y-45528571D01*
X225638095Y-45623810D01*
X204090476Y-46004762D02*
X204233333Y-46052381D01*
X204471429Y-46052381D01*
X204566667Y-46004762D01*
X204614286Y-45957143D01*
X204661905Y-45861905D01*
X204661905Y-45766667D01*
X204614286Y-45671429D01*
X204566667Y-45623810D01*
X204471429Y-45576190D01*
X204280952Y-45528571D01*
X204185714Y-45480952D01*
X204138095Y-45433333D01*
X204090476Y-45338095D01*
X204090476Y-45242857D01*
X204138095Y-45147619D01*
X204185714Y-45100000D01*
X204280952Y-45052381D01*
X204519048Y-45052381D01*
X204661905Y-45100000D01*
X204995238Y-45052381D02*
X205233333Y-46052381D01*
X205423810Y-45338095D01*
X205614286Y-46052381D01*
X205852381Y-45052381D01*
X206138095Y-45052381D02*
X206757143Y-45052381D01*
X206423809Y-45433333D01*
X206566667Y-45433333D01*
X206661905Y-45480952D01*
X206709524Y-45528571D01*
X206757143Y-45623810D01*
X206757143Y-45861905D01*
X206709524Y-45957143D01*
X206661905Y-46004762D01*
X206566667Y-46052381D01*
X206280952Y-46052381D01*
X206185714Y-46004762D01*
X206138095Y-45957143D01*
X207661905Y-45052381D02*
X207185714Y-45052381D01*
X207138095Y-45528571D01*
X207185714Y-45480952D01*
X207280952Y-45433333D01*
X207519048Y-45433333D01*
X207614286Y-45480952D01*
X207661905Y-45528571D01*
X207709524Y-45623810D01*
X207709524Y-45861905D01*
X207661905Y-45957143D01*
X207614286Y-46004762D01*
X207519048Y-46052381D01*
X207280952Y-46052381D01*
X207185714Y-46004762D01*
X207138095Y-45957143D01*
X185590476Y-46004762D02*
X185733333Y-46052381D01*
X185971429Y-46052381D01*
X186066667Y-46004762D01*
X186114286Y-45957143D01*
X186161905Y-45861905D01*
X186161905Y-45766667D01*
X186114286Y-45671429D01*
X186066667Y-45623810D01*
X185971429Y-45576190D01*
X185780952Y-45528571D01*
X185685714Y-45480952D01*
X185638095Y-45433333D01*
X185590476Y-45338095D01*
X185590476Y-45242857D01*
X185638095Y-45147619D01*
X185685714Y-45100000D01*
X185780952Y-45052381D01*
X186019048Y-45052381D01*
X186161905Y-45100000D01*
X186495238Y-45052381D02*
X186733333Y-46052381D01*
X186923810Y-45338095D01*
X187114286Y-46052381D01*
X187352381Y-45052381D01*
X187638095Y-45052381D02*
X188257143Y-45052381D01*
X187923809Y-45433333D01*
X188066667Y-45433333D01*
X188161905Y-45480952D01*
X188209524Y-45528571D01*
X188257143Y-45623810D01*
X188257143Y-45861905D01*
X188209524Y-45957143D01*
X188161905Y-46004762D01*
X188066667Y-46052381D01*
X187780952Y-46052381D01*
X187685714Y-46004762D01*
X187638095Y-45957143D01*
X189114286Y-45385714D02*
X189114286Y-46052381D01*
X188876190Y-45004762D02*
X188638095Y-45719048D01*
X189257143Y-45719048D01*
X167090476Y-46004762D02*
X167233333Y-46052381D01*
X167471429Y-46052381D01*
X167566667Y-46004762D01*
X167614286Y-45957143D01*
X167661905Y-45861905D01*
X167661905Y-45766667D01*
X167614286Y-45671429D01*
X167566667Y-45623810D01*
X167471429Y-45576190D01*
X167280952Y-45528571D01*
X167185714Y-45480952D01*
X167138095Y-45433333D01*
X167090476Y-45338095D01*
X167090476Y-45242857D01*
X167138095Y-45147619D01*
X167185714Y-45100000D01*
X167280952Y-45052381D01*
X167519048Y-45052381D01*
X167661905Y-45100000D01*
X167995238Y-45052381D02*
X168233333Y-46052381D01*
X168423810Y-45338095D01*
X168614286Y-46052381D01*
X168852381Y-45052381D01*
X169138095Y-45052381D02*
X169757143Y-45052381D01*
X169423809Y-45433333D01*
X169566667Y-45433333D01*
X169661905Y-45480952D01*
X169709524Y-45528571D01*
X169757143Y-45623810D01*
X169757143Y-45861905D01*
X169709524Y-45957143D01*
X169661905Y-46004762D01*
X169566667Y-46052381D01*
X169280952Y-46052381D01*
X169185714Y-46004762D01*
X169138095Y-45957143D01*
X170090476Y-45052381D02*
X170709524Y-45052381D01*
X170376190Y-45433333D01*
X170519048Y-45433333D01*
X170614286Y-45480952D01*
X170661905Y-45528571D01*
X170709524Y-45623810D01*
X170709524Y-45861905D01*
X170661905Y-45957143D01*
X170614286Y-46004762D01*
X170519048Y-46052381D01*
X170233333Y-46052381D01*
X170138095Y-46004762D01*
X170090476Y-45957143D01*
X148590476Y-46004762D02*
X148733333Y-46052381D01*
X148971429Y-46052381D01*
X149066667Y-46004762D01*
X149114286Y-45957143D01*
X149161905Y-45861905D01*
X149161905Y-45766667D01*
X149114286Y-45671429D01*
X149066667Y-45623810D01*
X148971429Y-45576190D01*
X148780952Y-45528571D01*
X148685714Y-45480952D01*
X148638095Y-45433333D01*
X148590476Y-45338095D01*
X148590476Y-45242857D01*
X148638095Y-45147619D01*
X148685714Y-45100000D01*
X148780952Y-45052381D01*
X149019048Y-45052381D01*
X149161905Y-45100000D01*
X149495238Y-45052381D02*
X149733333Y-46052381D01*
X149923810Y-45338095D01*
X150114286Y-46052381D01*
X150352381Y-45052381D01*
X150638095Y-45052381D02*
X151257143Y-45052381D01*
X150923809Y-45433333D01*
X151066667Y-45433333D01*
X151161905Y-45480952D01*
X151209524Y-45528571D01*
X151257143Y-45623810D01*
X151257143Y-45861905D01*
X151209524Y-45957143D01*
X151161905Y-46004762D01*
X151066667Y-46052381D01*
X150780952Y-46052381D01*
X150685714Y-46004762D01*
X150638095Y-45957143D01*
X151638095Y-45147619D02*
X151685714Y-45100000D01*
X151780952Y-45052381D01*
X152019048Y-45052381D01*
X152114286Y-45100000D01*
X152161905Y-45147619D01*
X152209524Y-45242857D01*
X152209524Y-45338095D01*
X152161905Y-45480952D01*
X151590476Y-46052381D01*
X152209524Y-46052381D01*
X130090476Y-46004762D02*
X130233333Y-46052381D01*
X130471429Y-46052381D01*
X130566667Y-46004762D01*
X130614286Y-45957143D01*
X130661905Y-45861905D01*
X130661905Y-45766667D01*
X130614286Y-45671429D01*
X130566667Y-45623810D01*
X130471429Y-45576190D01*
X130280952Y-45528571D01*
X130185714Y-45480952D01*
X130138095Y-45433333D01*
X130090476Y-45338095D01*
X130090476Y-45242857D01*
X130138095Y-45147619D01*
X130185714Y-45100000D01*
X130280952Y-45052381D01*
X130519048Y-45052381D01*
X130661905Y-45100000D01*
X130995238Y-45052381D02*
X131233333Y-46052381D01*
X131423810Y-45338095D01*
X131614286Y-46052381D01*
X131852381Y-45052381D01*
X132138095Y-45052381D02*
X132757143Y-45052381D01*
X132423809Y-45433333D01*
X132566667Y-45433333D01*
X132661905Y-45480952D01*
X132709524Y-45528571D01*
X132757143Y-45623810D01*
X132757143Y-45861905D01*
X132709524Y-45957143D01*
X132661905Y-46004762D01*
X132566667Y-46052381D01*
X132280952Y-46052381D01*
X132185714Y-46004762D01*
X132138095Y-45957143D01*
X133709524Y-46052381D02*
X133138095Y-46052381D01*
X133423809Y-46052381D02*
X133423809Y-45052381D01*
X133328571Y-45195238D01*
X133233333Y-45290476D01*
X133138095Y-45338095D01*
X99390476Y-46004762D02*
X99533333Y-46052381D01*
X99771429Y-46052381D01*
X99866667Y-46004762D01*
X99914286Y-45957143D01*
X99961905Y-45861905D01*
X99961905Y-45766667D01*
X99914286Y-45671429D01*
X99866667Y-45623810D01*
X99771429Y-45576190D01*
X99580952Y-45528571D01*
X99485714Y-45480952D01*
X99438095Y-45433333D01*
X99390476Y-45338095D01*
X99390476Y-45242857D01*
X99438095Y-45147619D01*
X99485714Y-45100000D01*
X99580952Y-45052381D01*
X99819048Y-45052381D01*
X99961905Y-45100000D01*
X100295238Y-45052381D02*
X100533333Y-46052381D01*
X100723810Y-45338095D01*
X100914286Y-46052381D01*
X101152381Y-45052381D01*
X101438095Y-45052381D02*
X102057143Y-45052381D01*
X101723809Y-45433333D01*
X101866667Y-45433333D01*
X101961905Y-45480952D01*
X102009524Y-45528571D01*
X102057143Y-45623810D01*
X102057143Y-45861905D01*
X102009524Y-45957143D01*
X101961905Y-46004762D01*
X101866667Y-46052381D01*
X101580952Y-46052381D01*
X101485714Y-46004762D01*
X101438095Y-45957143D01*
X102676190Y-45052381D02*
X102771429Y-45052381D01*
X102866667Y-45100000D01*
X102914286Y-45147619D01*
X102961905Y-45242857D01*
X103009524Y-45433333D01*
X103009524Y-45671429D01*
X102961905Y-45861905D01*
X102914286Y-45957143D01*
X102866667Y-46004762D01*
X102771429Y-46052381D01*
X102676190Y-46052381D01*
X102580952Y-46004762D01*
X102533333Y-45957143D01*
X102485714Y-45861905D01*
X102438095Y-45671429D01*
X102438095Y-45433333D01*
X102485714Y-45242857D01*
X102533333Y-45147619D01*
X102580952Y-45100000D01*
X102676190Y-45052381D01*
X80890476Y-46004762D02*
X81033333Y-46052381D01*
X81271429Y-46052381D01*
X81366667Y-46004762D01*
X81414286Y-45957143D01*
X81461905Y-45861905D01*
X81461905Y-45766667D01*
X81414286Y-45671429D01*
X81366667Y-45623810D01*
X81271429Y-45576190D01*
X81080952Y-45528571D01*
X80985714Y-45480952D01*
X80938095Y-45433333D01*
X80890476Y-45338095D01*
X80890476Y-45242857D01*
X80938095Y-45147619D01*
X80985714Y-45100000D01*
X81080952Y-45052381D01*
X81319048Y-45052381D01*
X81461905Y-45100000D01*
X81795238Y-45052381D02*
X82033333Y-46052381D01*
X82223810Y-45338095D01*
X82414286Y-46052381D01*
X82652381Y-45052381D01*
X82985714Y-45147619D02*
X83033333Y-45100000D01*
X83128571Y-45052381D01*
X83366667Y-45052381D01*
X83461905Y-45100000D01*
X83509524Y-45147619D01*
X83557143Y-45242857D01*
X83557143Y-45338095D01*
X83509524Y-45480952D01*
X82938095Y-46052381D01*
X83557143Y-46052381D01*
X84033333Y-46052381D02*
X84223809Y-46052381D01*
X84319048Y-46004762D01*
X84366667Y-45957143D01*
X84461905Y-45814286D01*
X84509524Y-45623810D01*
X84509524Y-45242857D01*
X84461905Y-45147619D01*
X84414286Y-45100000D01*
X84319048Y-45052381D01*
X84128571Y-45052381D01*
X84033333Y-45100000D01*
X83985714Y-45147619D01*
X83938095Y-45242857D01*
X83938095Y-45480952D01*
X83985714Y-45576190D01*
X84033333Y-45623810D01*
X84128571Y-45671429D01*
X84319048Y-45671429D01*
X84414286Y-45623810D01*
X84461905Y-45576190D01*
X84509524Y-45480952D01*
X62390476Y-46004762D02*
X62533333Y-46052381D01*
X62771429Y-46052381D01*
X62866667Y-46004762D01*
X62914286Y-45957143D01*
X62961905Y-45861905D01*
X62961905Y-45766667D01*
X62914286Y-45671429D01*
X62866667Y-45623810D01*
X62771429Y-45576190D01*
X62580952Y-45528571D01*
X62485714Y-45480952D01*
X62438095Y-45433333D01*
X62390476Y-45338095D01*
X62390476Y-45242857D01*
X62438095Y-45147619D01*
X62485714Y-45100000D01*
X62580952Y-45052381D01*
X62819048Y-45052381D01*
X62961905Y-45100000D01*
X63295238Y-45052381D02*
X63533333Y-46052381D01*
X63723810Y-45338095D01*
X63914286Y-46052381D01*
X64152381Y-45052381D01*
X64485714Y-45147619D02*
X64533333Y-45100000D01*
X64628571Y-45052381D01*
X64866667Y-45052381D01*
X64961905Y-45100000D01*
X65009524Y-45147619D01*
X65057143Y-45242857D01*
X65057143Y-45338095D01*
X65009524Y-45480952D01*
X64438095Y-46052381D01*
X65057143Y-46052381D01*
X65628571Y-45480952D02*
X65533333Y-45433333D01*
X65485714Y-45385714D01*
X65438095Y-45290476D01*
X65438095Y-45242857D01*
X65485714Y-45147619D01*
X65533333Y-45100000D01*
X65628571Y-45052381D01*
X65819048Y-45052381D01*
X65914286Y-45100000D01*
X65961905Y-45147619D01*
X66009524Y-45242857D01*
X66009524Y-45290476D01*
X65961905Y-45385714D01*
X65914286Y-45433333D01*
X65819048Y-45480952D01*
X65628571Y-45480952D01*
X65533333Y-45528571D01*
X65485714Y-45576190D01*
X65438095Y-45671429D01*
X65438095Y-45861905D01*
X65485714Y-45957143D01*
X65533333Y-46004762D01*
X65628571Y-46052381D01*
X65819048Y-46052381D01*
X65914286Y-46004762D01*
X65961905Y-45957143D01*
X66009524Y-45861905D01*
X66009524Y-45671429D01*
X65961905Y-45576190D01*
X65914286Y-45528571D01*
X65819048Y-45480952D01*
X43890476Y-46004762D02*
X44033333Y-46052381D01*
X44271429Y-46052381D01*
X44366667Y-46004762D01*
X44414286Y-45957143D01*
X44461905Y-45861905D01*
X44461905Y-45766667D01*
X44414286Y-45671429D01*
X44366667Y-45623810D01*
X44271429Y-45576190D01*
X44080952Y-45528571D01*
X43985714Y-45480952D01*
X43938095Y-45433333D01*
X43890476Y-45338095D01*
X43890476Y-45242857D01*
X43938095Y-45147619D01*
X43985714Y-45100000D01*
X44080952Y-45052381D01*
X44319048Y-45052381D01*
X44461905Y-45100000D01*
X44795238Y-45052381D02*
X45033333Y-46052381D01*
X45223810Y-45338095D01*
X45414286Y-46052381D01*
X45652381Y-45052381D01*
X45985714Y-45147619D02*
X46033333Y-45100000D01*
X46128571Y-45052381D01*
X46366667Y-45052381D01*
X46461905Y-45100000D01*
X46509524Y-45147619D01*
X46557143Y-45242857D01*
X46557143Y-45338095D01*
X46509524Y-45480952D01*
X45938095Y-46052381D01*
X46557143Y-46052381D01*
X46890476Y-45052381D02*
X47557143Y-45052381D01*
X47128571Y-46052381D01*
X25390476Y-46004762D02*
X25533333Y-46052381D01*
X25771429Y-46052381D01*
X25866667Y-46004762D01*
X25914286Y-45957143D01*
X25961905Y-45861905D01*
X25961905Y-45766667D01*
X25914286Y-45671429D01*
X25866667Y-45623810D01*
X25771429Y-45576190D01*
X25580952Y-45528571D01*
X25485714Y-45480952D01*
X25438095Y-45433333D01*
X25390476Y-45338095D01*
X25390476Y-45242857D01*
X25438095Y-45147619D01*
X25485714Y-45100000D01*
X25580952Y-45052381D01*
X25819048Y-45052381D01*
X25961905Y-45100000D01*
X26295238Y-45052381D02*
X26533333Y-46052381D01*
X26723810Y-45338095D01*
X26914286Y-46052381D01*
X27152381Y-45052381D01*
X27485714Y-45147619D02*
X27533333Y-45100000D01*
X27628571Y-45052381D01*
X27866667Y-45052381D01*
X27961905Y-45100000D01*
X28009524Y-45147619D01*
X28057143Y-45242857D01*
X28057143Y-45338095D01*
X28009524Y-45480952D01*
X27438095Y-46052381D01*
X28057143Y-46052381D01*
X28914286Y-45052381D02*
X28723809Y-45052381D01*
X28628571Y-45100000D01*
X28580952Y-45147619D01*
X28485714Y-45290476D01*
X28438095Y-45480952D01*
X28438095Y-45861905D01*
X28485714Y-45957143D01*
X28533333Y-46004762D01*
X28628571Y-46052381D01*
X28819048Y-46052381D01*
X28914286Y-46004762D01*
X28961905Y-45957143D01*
X29009524Y-45861905D01*
X29009524Y-45623810D01*
X28961905Y-45528571D01*
X28914286Y-45480952D01*
X28819048Y-45433333D01*
X28628571Y-45433333D01*
X28533333Y-45480952D01*
X28485714Y-45528571D01*
X28438095Y-45623810D01*
X6890476Y-46004762D02*
X7033333Y-46052381D01*
X7271429Y-46052381D01*
X7366667Y-46004762D01*
X7414286Y-45957143D01*
X7461905Y-45861905D01*
X7461905Y-45766667D01*
X7414286Y-45671429D01*
X7366667Y-45623810D01*
X7271429Y-45576190D01*
X7080952Y-45528571D01*
X6985714Y-45480952D01*
X6938095Y-45433333D01*
X6890476Y-45338095D01*
X6890476Y-45242857D01*
X6938095Y-45147619D01*
X6985714Y-45100000D01*
X7080952Y-45052381D01*
X7319048Y-45052381D01*
X7461905Y-45100000D01*
X7795238Y-45052381D02*
X8033333Y-46052381D01*
X8223810Y-45338095D01*
X8414286Y-46052381D01*
X8652381Y-45052381D01*
X8985714Y-45147619D02*
X9033333Y-45100000D01*
X9128571Y-45052381D01*
X9366667Y-45052381D01*
X9461905Y-45100000D01*
X9509524Y-45147619D01*
X9557143Y-45242857D01*
X9557143Y-45338095D01*
X9509524Y-45480952D01*
X8938095Y-46052381D01*
X9557143Y-46052381D01*
X10461905Y-45052381D02*
X9985714Y-45052381D01*
X9938095Y-45528571D01*
X9985714Y-45480952D01*
X10080952Y-45433333D01*
X10319048Y-45433333D01*
X10414286Y-45480952D01*
X10461905Y-45528571D01*
X10509524Y-45623810D01*
X10509524Y-45861905D01*
X10461905Y-45957143D01*
X10414286Y-46004762D01*
X10319048Y-46052381D01*
X10080952Y-46052381D01*
X9985714Y-46004762D01*
X9938095Y-45957143D01*
X222590476Y-30204762D02*
X222733333Y-30252381D01*
X222971429Y-30252381D01*
X223066667Y-30204762D01*
X223114286Y-30157143D01*
X223161905Y-30061905D01*
X223161905Y-29966667D01*
X223114286Y-29871429D01*
X223066667Y-29823810D01*
X222971429Y-29776190D01*
X222780952Y-29728571D01*
X222685714Y-29680952D01*
X222638095Y-29633333D01*
X222590476Y-29538095D01*
X222590476Y-29442857D01*
X222638095Y-29347619D01*
X222685714Y-29300000D01*
X222780952Y-29252381D01*
X223019048Y-29252381D01*
X223161905Y-29300000D01*
X223495238Y-29252381D02*
X223733333Y-30252381D01*
X223923810Y-29538095D01*
X224114286Y-30252381D01*
X224352381Y-29252381D01*
X224685714Y-29347619D02*
X224733333Y-29300000D01*
X224828571Y-29252381D01*
X225066667Y-29252381D01*
X225161905Y-29300000D01*
X225209524Y-29347619D01*
X225257143Y-29442857D01*
X225257143Y-29538095D01*
X225209524Y-29680952D01*
X224638095Y-30252381D01*
X225257143Y-30252381D01*
X226114286Y-29585714D02*
X226114286Y-30252381D01*
X225876190Y-29204762D02*
X225638095Y-29919048D01*
X226257143Y-29919048D01*
X204090476Y-30204762D02*
X204233333Y-30252381D01*
X204471429Y-30252381D01*
X204566667Y-30204762D01*
X204614286Y-30157143D01*
X204661905Y-30061905D01*
X204661905Y-29966667D01*
X204614286Y-29871429D01*
X204566667Y-29823810D01*
X204471429Y-29776190D01*
X204280952Y-29728571D01*
X204185714Y-29680952D01*
X204138095Y-29633333D01*
X204090476Y-29538095D01*
X204090476Y-29442857D01*
X204138095Y-29347619D01*
X204185714Y-29300000D01*
X204280952Y-29252381D01*
X204519048Y-29252381D01*
X204661905Y-29300000D01*
X204995238Y-29252381D02*
X205233333Y-30252381D01*
X205423810Y-29538095D01*
X205614286Y-30252381D01*
X205852381Y-29252381D01*
X206185714Y-29347619D02*
X206233333Y-29300000D01*
X206328571Y-29252381D01*
X206566667Y-29252381D01*
X206661905Y-29300000D01*
X206709524Y-29347619D01*
X206757143Y-29442857D01*
X206757143Y-29538095D01*
X206709524Y-29680952D01*
X206138095Y-30252381D01*
X206757143Y-30252381D01*
X207090476Y-29252381D02*
X207709524Y-29252381D01*
X207376190Y-29633333D01*
X207519048Y-29633333D01*
X207614286Y-29680952D01*
X207661905Y-29728571D01*
X207709524Y-29823810D01*
X207709524Y-30061905D01*
X207661905Y-30157143D01*
X207614286Y-30204762D01*
X207519048Y-30252381D01*
X207233333Y-30252381D01*
X207138095Y-30204762D01*
X207090476Y-30157143D01*
X185590476Y-30204762D02*
X185733333Y-30252381D01*
X185971429Y-30252381D01*
X186066667Y-30204762D01*
X186114286Y-30157143D01*
X186161905Y-30061905D01*
X186161905Y-29966667D01*
X186114286Y-29871429D01*
X186066667Y-29823810D01*
X185971429Y-29776190D01*
X185780952Y-29728571D01*
X185685714Y-29680952D01*
X185638095Y-29633333D01*
X185590476Y-29538095D01*
X185590476Y-29442857D01*
X185638095Y-29347619D01*
X185685714Y-29300000D01*
X185780952Y-29252381D01*
X186019048Y-29252381D01*
X186161905Y-29300000D01*
X186495238Y-29252381D02*
X186733333Y-30252381D01*
X186923810Y-29538095D01*
X187114286Y-30252381D01*
X187352381Y-29252381D01*
X187685714Y-29347619D02*
X187733333Y-29300000D01*
X187828571Y-29252381D01*
X188066667Y-29252381D01*
X188161905Y-29300000D01*
X188209524Y-29347619D01*
X188257143Y-29442857D01*
X188257143Y-29538095D01*
X188209524Y-29680952D01*
X187638095Y-30252381D01*
X188257143Y-30252381D01*
X188638095Y-29347619D02*
X188685714Y-29300000D01*
X188780952Y-29252381D01*
X189019048Y-29252381D01*
X189114286Y-29300000D01*
X189161905Y-29347619D01*
X189209524Y-29442857D01*
X189209524Y-29538095D01*
X189161905Y-29680952D01*
X188590476Y-30252381D01*
X189209524Y-30252381D01*
X167090476Y-30204762D02*
X167233333Y-30252381D01*
X167471429Y-30252381D01*
X167566667Y-30204762D01*
X167614286Y-30157143D01*
X167661905Y-30061905D01*
X167661905Y-29966667D01*
X167614286Y-29871429D01*
X167566667Y-29823810D01*
X167471429Y-29776190D01*
X167280952Y-29728571D01*
X167185714Y-29680952D01*
X167138095Y-29633333D01*
X167090476Y-29538095D01*
X167090476Y-29442857D01*
X167138095Y-29347619D01*
X167185714Y-29300000D01*
X167280952Y-29252381D01*
X167519048Y-29252381D01*
X167661905Y-29300000D01*
X167995238Y-29252381D02*
X168233333Y-30252381D01*
X168423810Y-29538095D01*
X168614286Y-30252381D01*
X168852381Y-29252381D01*
X169185714Y-29347619D02*
X169233333Y-29300000D01*
X169328571Y-29252381D01*
X169566667Y-29252381D01*
X169661905Y-29300000D01*
X169709524Y-29347619D01*
X169757143Y-29442857D01*
X169757143Y-29538095D01*
X169709524Y-29680952D01*
X169138095Y-30252381D01*
X169757143Y-30252381D01*
X170709524Y-30252381D02*
X170138095Y-30252381D01*
X170423809Y-30252381D02*
X170423809Y-29252381D01*
X170328571Y-29395238D01*
X170233333Y-29490476D01*
X170138095Y-29538095D01*
X148590476Y-30204762D02*
X148733333Y-30252381D01*
X148971429Y-30252381D01*
X149066667Y-30204762D01*
X149114286Y-30157143D01*
X149161905Y-30061905D01*
X149161905Y-29966667D01*
X149114286Y-29871429D01*
X149066667Y-29823810D01*
X148971429Y-29776190D01*
X148780952Y-29728571D01*
X148685714Y-29680952D01*
X148638095Y-29633333D01*
X148590476Y-29538095D01*
X148590476Y-29442857D01*
X148638095Y-29347619D01*
X148685714Y-29300000D01*
X148780952Y-29252381D01*
X149019048Y-29252381D01*
X149161905Y-29300000D01*
X149495238Y-29252381D02*
X149733333Y-30252381D01*
X149923810Y-29538095D01*
X150114286Y-30252381D01*
X150352381Y-29252381D01*
X150685714Y-29347619D02*
X150733333Y-29300000D01*
X150828571Y-29252381D01*
X151066667Y-29252381D01*
X151161905Y-29300000D01*
X151209524Y-29347619D01*
X151257143Y-29442857D01*
X151257143Y-29538095D01*
X151209524Y-29680952D01*
X150638095Y-30252381D01*
X151257143Y-30252381D01*
X151876190Y-29252381D02*
X151971429Y-29252381D01*
X152066667Y-29300000D01*
X152114286Y-29347619D01*
X152161905Y-29442857D01*
X152209524Y-29633333D01*
X152209524Y-29871429D01*
X152161905Y-30061905D01*
X152114286Y-30157143D01*
X152066667Y-30204762D01*
X151971429Y-30252381D01*
X151876190Y-30252381D01*
X151780952Y-30204762D01*
X151733333Y-30157143D01*
X151685714Y-30061905D01*
X151638095Y-29871429D01*
X151638095Y-29633333D01*
X151685714Y-29442857D01*
X151733333Y-29347619D01*
X151780952Y-29300000D01*
X151876190Y-29252381D01*
X130090476Y-30204762D02*
X130233333Y-30252381D01*
X130471429Y-30252381D01*
X130566667Y-30204762D01*
X130614286Y-30157143D01*
X130661905Y-30061905D01*
X130661905Y-29966667D01*
X130614286Y-29871429D01*
X130566667Y-29823810D01*
X130471429Y-29776190D01*
X130280952Y-29728571D01*
X130185714Y-29680952D01*
X130138095Y-29633333D01*
X130090476Y-29538095D01*
X130090476Y-29442857D01*
X130138095Y-29347619D01*
X130185714Y-29300000D01*
X130280952Y-29252381D01*
X130519048Y-29252381D01*
X130661905Y-29300000D01*
X130995238Y-29252381D02*
X131233333Y-30252381D01*
X131423810Y-29538095D01*
X131614286Y-30252381D01*
X131852381Y-29252381D01*
X132757143Y-30252381D02*
X132185714Y-30252381D01*
X132471428Y-30252381D02*
X132471428Y-29252381D01*
X132376190Y-29395238D01*
X132280952Y-29490476D01*
X132185714Y-29538095D01*
X133233333Y-30252381D02*
X133423809Y-30252381D01*
X133519048Y-30204762D01*
X133566667Y-30157143D01*
X133661905Y-30014286D01*
X133709524Y-29823810D01*
X133709524Y-29442857D01*
X133661905Y-29347619D01*
X133614286Y-29300000D01*
X133519048Y-29252381D01*
X133328571Y-29252381D01*
X133233333Y-29300000D01*
X133185714Y-29347619D01*
X133138095Y-29442857D01*
X133138095Y-29680952D01*
X133185714Y-29776190D01*
X133233333Y-29823810D01*
X133328571Y-29871429D01*
X133519048Y-29871429D01*
X133614286Y-29823810D01*
X133661905Y-29776190D01*
X133709524Y-29680952D01*
X62390476Y-30204762D02*
X62533333Y-30252381D01*
X62771429Y-30252381D01*
X62866667Y-30204762D01*
X62914286Y-30157143D01*
X62961905Y-30061905D01*
X62961905Y-29966667D01*
X62914286Y-29871429D01*
X62866667Y-29823810D01*
X62771429Y-29776190D01*
X62580952Y-29728571D01*
X62485714Y-29680952D01*
X62438095Y-29633333D01*
X62390476Y-29538095D01*
X62390476Y-29442857D01*
X62438095Y-29347619D01*
X62485714Y-29300000D01*
X62580952Y-29252381D01*
X62819048Y-29252381D01*
X62961905Y-29300000D01*
X63295238Y-29252381D02*
X63533333Y-30252381D01*
X63723810Y-29538095D01*
X63914286Y-30252381D01*
X64152381Y-29252381D01*
X65057143Y-30252381D02*
X64485714Y-30252381D01*
X64771428Y-30252381D02*
X64771428Y-29252381D01*
X64676190Y-29395238D01*
X64580952Y-29490476D01*
X64485714Y-29538095D01*
X65914286Y-29252381D02*
X65723809Y-29252381D01*
X65628571Y-29300000D01*
X65580952Y-29347619D01*
X65485714Y-29490476D01*
X65438095Y-29680952D01*
X65438095Y-30061905D01*
X65485714Y-30157143D01*
X65533333Y-30204762D01*
X65628571Y-30252381D01*
X65819048Y-30252381D01*
X65914286Y-30204762D01*
X65961905Y-30157143D01*
X66009524Y-30061905D01*
X66009524Y-29823810D01*
X65961905Y-29728571D01*
X65914286Y-29680952D01*
X65819048Y-29633333D01*
X65628571Y-29633333D01*
X65533333Y-29680952D01*
X65485714Y-29728571D01*
X65438095Y-29823810D01*
X43890476Y-30204762D02*
X44033333Y-30252381D01*
X44271429Y-30252381D01*
X44366667Y-30204762D01*
X44414286Y-30157143D01*
X44461905Y-30061905D01*
X44461905Y-29966667D01*
X44414286Y-29871429D01*
X44366667Y-29823810D01*
X44271429Y-29776190D01*
X44080952Y-29728571D01*
X43985714Y-29680952D01*
X43938095Y-29633333D01*
X43890476Y-29538095D01*
X43890476Y-29442857D01*
X43938095Y-29347619D01*
X43985714Y-29300000D01*
X44080952Y-29252381D01*
X44319048Y-29252381D01*
X44461905Y-29300000D01*
X44795238Y-29252381D02*
X45033333Y-30252381D01*
X45223810Y-29538095D01*
X45414286Y-30252381D01*
X45652381Y-29252381D01*
X46557143Y-30252381D02*
X45985714Y-30252381D01*
X46271428Y-30252381D02*
X46271428Y-29252381D01*
X46176190Y-29395238D01*
X46080952Y-29490476D01*
X45985714Y-29538095D01*
X47461905Y-29252381D02*
X46985714Y-29252381D01*
X46938095Y-29728571D01*
X46985714Y-29680952D01*
X47080952Y-29633333D01*
X47319048Y-29633333D01*
X47414286Y-29680952D01*
X47461905Y-29728571D01*
X47509524Y-29823810D01*
X47509524Y-30061905D01*
X47461905Y-30157143D01*
X47414286Y-30204762D01*
X47319048Y-30252381D01*
X47080952Y-30252381D01*
X46985714Y-30204762D01*
X46938095Y-30157143D01*
X25390476Y-30204762D02*
X25533333Y-30252381D01*
X25771429Y-30252381D01*
X25866667Y-30204762D01*
X25914286Y-30157143D01*
X25961905Y-30061905D01*
X25961905Y-29966667D01*
X25914286Y-29871429D01*
X25866667Y-29823810D01*
X25771429Y-29776190D01*
X25580952Y-29728571D01*
X25485714Y-29680952D01*
X25438095Y-29633333D01*
X25390476Y-29538095D01*
X25390476Y-29442857D01*
X25438095Y-29347619D01*
X25485714Y-29300000D01*
X25580952Y-29252381D01*
X25819048Y-29252381D01*
X25961905Y-29300000D01*
X26295238Y-29252381D02*
X26533333Y-30252381D01*
X26723810Y-29538095D01*
X26914286Y-30252381D01*
X27152381Y-29252381D01*
X28057143Y-30252381D02*
X27485714Y-30252381D01*
X27771428Y-30252381D02*
X27771428Y-29252381D01*
X27676190Y-29395238D01*
X27580952Y-29490476D01*
X27485714Y-29538095D01*
X28914286Y-29585714D02*
X28914286Y-30252381D01*
X28676190Y-29204762D02*
X28438095Y-29919048D01*
X29057143Y-29919048D01*
X6890476Y-30204762D02*
X7033333Y-30252381D01*
X7271429Y-30252381D01*
X7366667Y-30204762D01*
X7414286Y-30157143D01*
X7461905Y-30061905D01*
X7461905Y-29966667D01*
X7414286Y-29871429D01*
X7366667Y-29823810D01*
X7271429Y-29776190D01*
X7080952Y-29728571D01*
X6985714Y-29680952D01*
X6938095Y-29633333D01*
X6890476Y-29538095D01*
X6890476Y-29442857D01*
X6938095Y-29347619D01*
X6985714Y-29300000D01*
X7080952Y-29252381D01*
X7319048Y-29252381D01*
X7461905Y-29300000D01*
X7795238Y-29252381D02*
X8033333Y-30252381D01*
X8223810Y-29538095D01*
X8414286Y-30252381D01*
X8652381Y-29252381D01*
X9557143Y-30252381D02*
X8985714Y-30252381D01*
X9271428Y-30252381D02*
X9271428Y-29252381D01*
X9176190Y-29395238D01*
X9080952Y-29490476D01*
X8985714Y-29538095D01*
X9890476Y-29252381D02*
X10509524Y-29252381D01*
X10176190Y-29633333D01*
X10319048Y-29633333D01*
X10414286Y-29680952D01*
X10461905Y-29728571D01*
X10509524Y-29823810D01*
X10509524Y-30061905D01*
X10461905Y-30157143D01*
X10414286Y-30204762D01*
X10319048Y-30252381D01*
X10033333Y-30252381D01*
X9938095Y-30204762D01*
X9890476Y-30157143D01*
X222590476Y-14404762D02*
X222733333Y-14452381D01*
X222971429Y-14452381D01*
X223066667Y-14404762D01*
X223114286Y-14357143D01*
X223161905Y-14261905D01*
X223161905Y-14166667D01*
X223114286Y-14071429D01*
X223066667Y-14023810D01*
X222971429Y-13976190D01*
X222780952Y-13928571D01*
X222685714Y-13880952D01*
X222638095Y-13833333D01*
X222590476Y-13738095D01*
X222590476Y-13642857D01*
X222638095Y-13547619D01*
X222685714Y-13500000D01*
X222780952Y-13452381D01*
X223019048Y-13452381D01*
X223161905Y-13500000D01*
X223495238Y-13452381D02*
X223733333Y-14452381D01*
X223923810Y-13738095D01*
X224114286Y-14452381D01*
X224352381Y-13452381D01*
X225257143Y-14452381D02*
X224685714Y-14452381D01*
X224971428Y-14452381D02*
X224971428Y-13452381D01*
X224876190Y-13595238D01*
X224780952Y-13690476D01*
X224685714Y-13738095D01*
X225638095Y-13547619D02*
X225685714Y-13500000D01*
X225780952Y-13452381D01*
X226019048Y-13452381D01*
X226114286Y-13500000D01*
X226161905Y-13547619D01*
X226209524Y-13642857D01*
X226209524Y-13738095D01*
X226161905Y-13880952D01*
X225590476Y-14452381D01*
X226209524Y-14452381D01*
X204090476Y-14404762D02*
X204233333Y-14452381D01*
X204471429Y-14452381D01*
X204566667Y-14404762D01*
X204614286Y-14357143D01*
X204661905Y-14261905D01*
X204661905Y-14166667D01*
X204614286Y-14071429D01*
X204566667Y-14023810D01*
X204471429Y-13976190D01*
X204280952Y-13928571D01*
X204185714Y-13880952D01*
X204138095Y-13833333D01*
X204090476Y-13738095D01*
X204090476Y-13642857D01*
X204138095Y-13547619D01*
X204185714Y-13500000D01*
X204280952Y-13452381D01*
X204519048Y-13452381D01*
X204661905Y-13500000D01*
X204995238Y-13452381D02*
X205233333Y-14452381D01*
X205423810Y-13738095D01*
X205614286Y-14452381D01*
X205852381Y-13452381D01*
X206757143Y-14452381D02*
X206185714Y-14452381D01*
X206471428Y-14452381D02*
X206471428Y-13452381D01*
X206376190Y-13595238D01*
X206280952Y-13690476D01*
X206185714Y-13738095D01*
X207709524Y-14452381D02*
X207138095Y-14452381D01*
X207423809Y-14452381D02*
X207423809Y-13452381D01*
X207328571Y-13595238D01*
X207233333Y-13690476D01*
X207138095Y-13738095D01*
X185590476Y-14404762D02*
X185733333Y-14452381D01*
X185971429Y-14452381D01*
X186066667Y-14404762D01*
X186114286Y-14357143D01*
X186161905Y-14261905D01*
X186161905Y-14166667D01*
X186114286Y-14071429D01*
X186066667Y-14023810D01*
X185971429Y-13976190D01*
X185780952Y-13928571D01*
X185685714Y-13880952D01*
X185638095Y-13833333D01*
X185590476Y-13738095D01*
X185590476Y-13642857D01*
X185638095Y-13547619D01*
X185685714Y-13500000D01*
X185780952Y-13452381D01*
X186019048Y-13452381D01*
X186161905Y-13500000D01*
X186495238Y-13452381D02*
X186733333Y-14452381D01*
X186923810Y-13738095D01*
X187114286Y-14452381D01*
X187352381Y-13452381D01*
X188257143Y-14452381D02*
X187685714Y-14452381D01*
X187971428Y-14452381D02*
X187971428Y-13452381D01*
X187876190Y-13595238D01*
X187780952Y-13690476D01*
X187685714Y-13738095D01*
X188876190Y-13452381D02*
X188971429Y-13452381D01*
X189066667Y-13500000D01*
X189114286Y-13547619D01*
X189161905Y-13642857D01*
X189209524Y-13833333D01*
X189209524Y-14071429D01*
X189161905Y-14261905D01*
X189114286Y-14357143D01*
X189066667Y-14404762D01*
X188971429Y-14452381D01*
X188876190Y-14452381D01*
X188780952Y-14404762D01*
X188733333Y-14357143D01*
X188685714Y-14261905D01*
X188638095Y-14071429D01*
X188638095Y-13833333D01*
X188685714Y-13642857D01*
X188733333Y-13547619D01*
X188780952Y-13500000D01*
X188876190Y-13452381D01*
X167566667Y-14404762D02*
X167709524Y-14452381D01*
X167947620Y-14452381D01*
X168042858Y-14404762D01*
X168090477Y-14357143D01*
X168138096Y-14261905D01*
X168138096Y-14166667D01*
X168090477Y-14071429D01*
X168042858Y-14023810D01*
X167947620Y-13976190D01*
X167757143Y-13928571D01*
X167661905Y-13880952D01*
X167614286Y-13833333D01*
X167566667Y-13738095D01*
X167566667Y-13642857D01*
X167614286Y-13547619D01*
X167661905Y-13500000D01*
X167757143Y-13452381D01*
X167995239Y-13452381D01*
X168138096Y-13500000D01*
X168471429Y-13452381D02*
X168709524Y-14452381D01*
X168900001Y-13738095D01*
X169090477Y-14452381D01*
X169328572Y-13452381D01*
X169757143Y-14452381D02*
X169947619Y-14452381D01*
X170042858Y-14404762D01*
X170090477Y-14357143D01*
X170185715Y-14214286D01*
X170233334Y-14023810D01*
X170233334Y-13642857D01*
X170185715Y-13547619D01*
X170138096Y-13500000D01*
X170042858Y-13452381D01*
X169852381Y-13452381D01*
X169757143Y-13500000D01*
X169709524Y-13547619D01*
X169661905Y-13642857D01*
X169661905Y-13880952D01*
X169709524Y-13976190D01*
X169757143Y-14023810D01*
X169852381Y-14071429D01*
X170042858Y-14071429D01*
X170138096Y-14023810D01*
X170185715Y-13976190D01*
X170233334Y-13880952D01*
X149066667Y-14404762D02*
X149209524Y-14452381D01*
X149447620Y-14452381D01*
X149542858Y-14404762D01*
X149590477Y-14357143D01*
X149638096Y-14261905D01*
X149638096Y-14166667D01*
X149590477Y-14071429D01*
X149542858Y-14023810D01*
X149447620Y-13976190D01*
X149257143Y-13928571D01*
X149161905Y-13880952D01*
X149114286Y-13833333D01*
X149066667Y-13738095D01*
X149066667Y-13642857D01*
X149114286Y-13547619D01*
X149161905Y-13500000D01*
X149257143Y-13452381D01*
X149495239Y-13452381D01*
X149638096Y-13500000D01*
X149971429Y-13452381D02*
X150209524Y-14452381D01*
X150400001Y-13738095D01*
X150590477Y-14452381D01*
X150828572Y-13452381D01*
X151352381Y-13880952D02*
X151257143Y-13833333D01*
X151209524Y-13785714D01*
X151161905Y-13690476D01*
X151161905Y-13642857D01*
X151209524Y-13547619D01*
X151257143Y-13500000D01*
X151352381Y-13452381D01*
X151542858Y-13452381D01*
X151638096Y-13500000D01*
X151685715Y-13547619D01*
X151733334Y-13642857D01*
X151733334Y-13690476D01*
X151685715Y-13785714D01*
X151638096Y-13833333D01*
X151542858Y-13880952D01*
X151352381Y-13880952D01*
X151257143Y-13928571D01*
X151209524Y-13976190D01*
X151161905Y-14071429D01*
X151161905Y-14261905D01*
X151209524Y-14357143D01*
X151257143Y-14404762D01*
X151352381Y-14452381D01*
X151542858Y-14452381D01*
X151638096Y-14404762D01*
X151685715Y-14357143D01*
X151733334Y-14261905D01*
X151733334Y-14071429D01*
X151685715Y-13976190D01*
X151638096Y-13928571D01*
X151542858Y-13880952D01*
X62866667Y-14404762D02*
X63009524Y-14452381D01*
X63247620Y-14452381D01*
X63342858Y-14404762D01*
X63390477Y-14357143D01*
X63438096Y-14261905D01*
X63438096Y-14166667D01*
X63390477Y-14071429D01*
X63342858Y-14023810D01*
X63247620Y-13976190D01*
X63057143Y-13928571D01*
X62961905Y-13880952D01*
X62914286Y-13833333D01*
X62866667Y-13738095D01*
X62866667Y-13642857D01*
X62914286Y-13547619D01*
X62961905Y-13500000D01*
X63057143Y-13452381D01*
X63295239Y-13452381D01*
X63438096Y-13500000D01*
X63771429Y-13452381D02*
X64009524Y-14452381D01*
X64200001Y-13738095D01*
X64390477Y-14452381D01*
X64628572Y-13452381D01*
X65438096Y-13785714D02*
X65438096Y-14452381D01*
X65200000Y-13404762D02*
X64961905Y-14119048D01*
X65580953Y-14119048D01*
X25866667Y-14404762D02*
X26009524Y-14452381D01*
X26247620Y-14452381D01*
X26342858Y-14404762D01*
X26390477Y-14357143D01*
X26438096Y-14261905D01*
X26438096Y-14166667D01*
X26390477Y-14071429D01*
X26342858Y-14023810D01*
X26247620Y-13976190D01*
X26057143Y-13928571D01*
X25961905Y-13880952D01*
X25914286Y-13833333D01*
X25866667Y-13738095D01*
X25866667Y-13642857D01*
X25914286Y-13547619D01*
X25961905Y-13500000D01*
X26057143Y-13452381D01*
X26295239Y-13452381D01*
X26438096Y-13500000D01*
X26771429Y-13452381D02*
X27009524Y-14452381D01*
X27200001Y-13738095D01*
X27390477Y-14452381D01*
X27628572Y-13452381D01*
X27961905Y-13547619D02*
X28009524Y-13500000D01*
X28104762Y-13452381D01*
X28342858Y-13452381D01*
X28438096Y-13500000D01*
X28485715Y-13547619D01*
X28533334Y-13642857D01*
X28533334Y-13738095D01*
X28485715Y-13880952D01*
X27914286Y-14452381D01*
X28533334Y-14452381D01*
%LPC*%
D13*
X79250000Y-18700000D03*
D14*
X84250000Y-17700000D03*
D15*
X131490000Y-59765000D03*
D14*
X125650000Y-61825000D03*
D16*
X122600000Y-59765000D03*
D14*
X125650000Y-46275000D03*
D16*
X122600000Y-48335000D03*
D15*
X128950000Y-58495000D03*
X131490000Y-57225000D03*
X131490000Y-54685000D03*
X131490000Y-52145000D03*
X131490000Y-49605000D03*
X128950000Y-55955000D03*
X128950000Y-53415000D03*
X128950000Y-50875000D03*
X128950000Y-48335000D03*
D14*
X128450000Y-2400000D03*
X133450000Y-1900000D03*
X97750000Y-18200000D03*
X102750000Y-17700000D03*
X79250000Y-2400000D03*
X84250000Y-1900000D03*
D15*
X99710000Y-48335000D03*
D14*
X105550000Y-46275000D03*
D16*
X108600000Y-48335000D03*
D14*
X105550000Y-61825000D03*
D16*
X108600000Y-59765000D03*
D15*
X102250000Y-49605000D03*
X99710000Y-50875000D03*
X99710000Y-53415000D03*
X99710000Y-55955000D03*
X99710000Y-58495000D03*
X102250000Y-52145000D03*
X102250000Y-54685000D03*
X102250000Y-57225000D03*
X102250000Y-59765000D03*
D14*
X70083330Y-58800000D03*
X75083330Y-58300000D03*
X42250000Y-2400000D03*
X47250000Y-1900000D03*
X97750000Y-2400000D03*
X102750000Y-1900000D03*
D17*
X69640000Y3710000D03*
D18*
X69640000Y1170000D03*
X72180000Y3710000D03*
X72180000Y1170000D03*
X74720000Y3710000D03*
X74720000Y1170000D03*
D14*
X5250000Y-2400000D03*
X10250000Y-1900000D03*
X156116667Y-58800000D03*
X161116667Y-58300000D03*
X137616667Y-58800000D03*
X142616667Y-58300000D03*
X88583330Y-58800000D03*
X93583330Y-58300000D03*
X220950000Y-34000000D03*
X225950000Y-33500000D03*
X202450000Y-34000000D03*
X207450000Y-33500000D03*
X183950000Y-34000000D03*
X188950000Y-33500000D03*
X165450000Y-34000000D03*
X170450000Y-33500000D03*
X146950000Y-34000000D03*
X151950000Y-33500000D03*
X128450000Y-34000000D03*
X133450000Y-33500000D03*
X97750000Y-34000000D03*
X102750000Y-33500000D03*
X79250000Y-34000000D03*
X84250000Y-33500000D03*
X60750000Y-34000000D03*
X65750000Y-33500000D03*
X42250000Y-34000000D03*
X47250000Y-33500000D03*
X23750000Y-34000000D03*
X28750000Y-33500000D03*
X5250000Y-34000000D03*
X10250000Y-33500000D03*
X220950000Y-18200000D03*
X225950000Y-17700000D03*
X202450000Y-18200000D03*
X207450000Y-17700000D03*
X183950000Y-18200000D03*
X188950000Y-17700000D03*
X165450000Y-18200000D03*
X170450000Y-17700000D03*
X146950000Y-18200000D03*
X151950000Y-17700000D03*
X128450000Y-18200000D03*
X133450000Y-17700000D03*
X60750000Y-18200000D03*
X65750000Y-17700000D03*
X42250000Y-18200000D03*
X47250000Y-17700000D03*
X23750000Y-18200000D03*
X28750000Y-17700000D03*
X5250000Y-18200000D03*
X10250000Y-17700000D03*
X220950000Y-2400000D03*
X225950000Y-1900000D03*
X202450000Y-2400000D03*
X207450000Y-1900000D03*
X183950000Y-2400000D03*
X188950000Y-1900000D03*
X165450000Y-2400000D03*
X170450000Y-1900000D03*
X146950000Y-2400000D03*
X151950000Y-1900000D03*
X60750000Y-2400000D03*
X65750000Y-1900000D03*
X23750000Y-2400000D03*
X28750000Y-1900000D03*
D19*
X52185000Y1250000D03*
X57035000Y1250000D03*
D20*
X50960000Y4250000D03*
X58260000Y4250000D03*
M02*
